<?xml version="1.0" standalone="no"?>
<!DOCTYPE svg PUBLIC "-//W3C//DTD SVG 1.1//EN" "http://www.w3.org/Graphics/SVG/1.1/DTD/svg11.dtd" >
<svg xmlns="http://www.w3.org/2000/svg" xmlns:xlink="http://www.w3.org/1999/xlink" version="1.1">
<metadata>
Created by FontForge 20160407 at Tue Sep 27 12:36:30 2016
 By Jimmy Warting
Copyright 2011 Monotype Imaging Inc. All rights reserved.
</metadata>
<defs>
<font id="HarmoniaSansProCyr-Bold" horiz-adv-x="406" >
  <font-face 
    font-family="Harmonia Sans Pro Cyr"
    font-weight="700"
    font-stretch="normal"
    units-per-em="1000"
    panose-1="2 11 8 2 3 4 2 2 2 4"
    ascent="730"
    descent="-270"
    x-height="479"
    cap-height="682"
    bbox="-186 -258 1253 979"
    underline-thickness="50"
    underline-position="-100"
    stemh="122"
    stemv="135"
    unicode-range="U+0020-FB04"
  />
<missing-glyph horiz-adv-x="500" 
d="M12 0v665h475v-665h-475zM88 618l162 -243l161 243h-323zM60 575v-484c0 -1 161 242 161 242zM440 575l-162 -242l162 -243v485zM411 48l-161 242l-162 -242h323z" />
    <glyph glyph-name="IJ" unicode="IJ" horiz-adv-x="665" 
d="M68 0v682h143v-682h-143zM459 201v481h144v-474c0 -168 -71 -230 -210 -230c-36 0 -84 10 -107 20v120c20 -9 62 -18 87 -18c60 0 86 28 86 101z" />
    <glyph glyph-name="ij" unicode="ij" horiz-adv-x="519" 
d="M62 0v479h135v-479h-135zM59 579v129h142v-129h-142zM456 479v-513c0 -152 -71 -217 -184 -217c-40 0 -71 6 -94 14v114c12 -4 41 -10 67 -10c49 0 76 24 76 97v515h135zM318 579v129h142v-129h-142z" />
    <glyph glyph-name="napostrophe" unicode="&#x27;n" horiz-adv-x="698" 
d="M178 0v479h133v-60h4c33 53 87 75 142 75c108 0 183 -72 183 -219v-275h-135v266c0 72 -34 109 -90 109c-59 0 -102 -42 -102 -122v-253h-135zM-21 578v142h153v-68c0 -81 -22 -144 -57 -198h-75c22 33 37 80 41 124h-62z" />
    <glyph glyph-name="f_f" unicode="ff" horiz-adv-x="642" 
d="M219 365v-365h-136v365h-68v114h68v73c0 113 60 174 172 174c31 0 61 -5 83 -11v-111c-19 5 -36 8 -54 8c-48 0 -65 -26 -65 -69v-64h180v73c0 113 60 174 171 174c31 0 61 -5 83 -11v-111c-19 5 -36 8 -54 8c-48 0 -65 -26 -65 -69v-64h104v-114h-104v-365h-135v365
h-180z" />
    <glyph glyph-name="fi" unicode="fi" horiz-adv-x="596" 
d="M15 365v114h68v73c0 113 60 174 172 174c31 0 61 -5 83 -11v-111c-19 5 -36 8 -54 8c-48 0 -65 -26 -65 -69v-64h104v-114h-104v-365h-136v365h-68zM398 0v479h135v-479h-135zM395 579v129h142v-129h-142z" />
    <glyph glyph-name="fl" unicode="fl" horiz-adv-x="598" 
d="M15 365v114h68v73c0 113 60 174 172 174c31 0 61 -5 83 -11v-111c-19 5 -36 8 -54 8c-48 0 -65 -26 -65 -69v-64h104v-114h-104v-365h-136v365h-68zM400 0v720h135v-720h-135z" />
    <glyph glyph-name="f_f_i" unicode="ffi" horiz-adv-x="911" 
d="M714 0v479h135v-479h-135zM711 579v129h142v-129h-142zM219 365v-365h-136v365h-68v114h68v73c0 113 60 174 172 174c31 0 61 -5 83 -11v-111c-19 5 -36 8 -54 8c-48 0 -65 -26 -65 -69v-64h180v73c0 113 60 174 171 174c31 0 61 -5 83 -11v-111c-19 5 -36 8 -54 8
c-48 0 -65 -26 -65 -69v-64h104v-114h-104v-365h-135v365h-180z" />
    <glyph glyph-name="f_f_l" unicode="ffl" horiz-adv-x="911" 
d="M714 0v720h135v-720h-135zM219 365v-365h-136v365h-68v114h68v73c0 113 60 174 172 174c31 0 61 -5 83 -11v-111c-19 5 -36 8 -54 8c-48 0 -65 -26 -65 -69v-64h180v73c0 113 60 174 171 174c31 0 61 -5 83 -11v-111c-19 5 -36 8 -54 8c-48 0 -65 -26 -65 -69v-64h104
v-114h-104v-365h-135v365h-180z" />
    <glyph glyph-name=".notdef" horiz-adv-x="500" 
d="M12 0v665h475v-665h-475zM88 618l162 -243l161 243h-323zM60 575v-484c0 -1 161 242 161 242zM440 575l-162 -242l162 -243v485zM411 48l-161 242l-162 -242h323z" />
    <glyph glyph-name="space" unicode=" " horiz-adv-x="250" 
 />
    <glyph glyph-name="exclam" unicode="!" horiz-adv-x="276" 
d="M67 0v129h142v-129h-142zM64 682h148l-14 -471h-120z" />
    <glyph glyph-name="quotedbl" unicode="&#x22;" horiz-adv-x="440" 
d="M54 721h122l-10 -242h-103zM264 721h122l-10 -242h-104z" />
    <glyph glyph-name="numbersign" unicode="#" horiz-adv-x="612" 
d="M491 488h109l-19 -83h-108l-28 -132h110l-17 -84h-111l-41 -189h-97l42 189h-116l-42 -189h-96l42 189h-108l18 84h106l30 132h-109l17 83h110l41 194h97l-42 -194h115l42 194h97zM377 405h-116l-30 -132h118z" />
    <glyph glyph-name="dollar" unicode="$" horiz-adv-x="573" 
d="M501 487h-130c-4 44 -34 73 -84 73c-47 0 -80 -24 -80 -63c0 -42 33 -58 118 -87c134 -45 187 -111 187 -201c0 -77 -56 -164 -173 -185v-90h-107v89c-103 17 -169 85 -179 193h136c7 -55 37 -93 101 -93c56 0 88 37 88 77c0 52 -35 77 -123 106
c-134 44 -179 106 -179 191s66 144 156 161v77h107v-75c102 -17 157 -86 162 -173z" />
    <glyph glyph-name="percent" unicode="%" horiz-adv-x="817" 
d="M37 513c0 134 90 190 167 190c72 0 161 -49 161 -188c0 -153 -100 -196 -164 -196c-73 0 -164 50 -164 194zM266 512c0 69 -24 107 -65 107c-36 0 -66 -32 -66 -106c0 -75 26 -109 67 -109c34 0 64 32 64 108zM453 172c0 133 89 190 167 190c72 0 161 -50 161 -188
c0 -154 -100 -195 -164 -195c-74 0 -164 48 -164 193zM682 171c0 69 -24 106 -66 106c-35 0 -65 -31 -65 -105c0 -75 26 -109 66 -109c34 0 65 32 65 108zM595 682h97l-468 -682h-97z" />
    <glyph glyph-name="ampersand" unicode="&#x26;" horiz-adv-x="643" 
d="M473 335v9h122v-8c0 -78 -27 -152 -68 -203c27 -29 48 -40 70 -40c10 0 24 2 30 4v-107c-9 -3 -34 -7 -52 -7c-54 0 -89 20 -130 66c-38 -30 -106 -67 -189 -67c-154 0 -223 92 -223 196c0 92 51 152 143 201c-32 48 -60 101 -60 161c0 80 57 162 193 162
c107 0 187 -61 187 -156c0 -83 -54 -140 -153 -191l104 -134c17 32 26 66 26 114zM261 86c44 0 85 21 108 42l-133 169c-52 -35 -75 -72 -75 -115c0 -51 39 -96 100 -96zM244 540c0 -41 14 -70 40 -105c60 29 92 59 92 106c0 28 -22 59 -68 59c-45 0 -64 -34 -64 -60z" />
    <glyph glyph-name="quotesingle" unicode="'" horiz-adv-x="230" 
d="M54 721h122l-10 -242h-103z" />
    <glyph glyph-name="parenleft" unicode="(" horiz-adv-x="361" 
d="M344 -215h-129c-104 136 -151 320 -151 478c0 161 47 342 151 480h129c-107 -138 -148 -319 -148 -480c0 -158 41 -342 148 -478z" />
    <glyph glyph-name="parenright" unicode=")" horiz-adv-x="361" 
d="M146 -215h-129c106 136 147 319 147 478c0 161 -41 342 -147 480h129c103 -138 150 -319 150 -480c0 -159 -47 -342 -150 -478z" />
    <glyph glyph-name="asterisk" unicode="*" horiz-adv-x="440" 
d="M16 533l29 93l132 -49l-7 144h99l-8 -144l132 49l31 -91l-136 -37l90 -112l-84 -56l-75 119l-76 -119l-84 56l90 112z" />
    <glyph glyph-name="plus" unicode="+" horiz-adv-x="672" 
d="M594 213h-207v-213h-103v213h-207v103h207v214h103v-214h207v-103z" />
    <glyph glyph-name="comma" unicode="," horiz-adv-x="276" 
d="M57 0v152h162v-66c0 -103 -37 -176 -66 -221h-79c30 51 45 104 49 135h-66z" />
    <glyph glyph-name="hyphen" unicode="-" horiz-adv-x="465" 
d="M397 211h-322v105h322v-105z" />
    <glyph glyph-name="period" unicode="." horiz-adv-x="276" 
d="M57 0v152h162v-152h-162z" />
    <glyph glyph-name="slash" unicode="/" horiz-adv-x="415" 
d="M285 720h117l-309 -834h-116z" />
    <glyph glyph-name="zero" unicode="0" horiz-adv-x="573" 
d="M31 344c0 263 137 360 261 360c115 0 250 -84 250 -356c0 -302 -157 -371 -254 -371c-116 0 -257 81 -257 367zM401 344c0 162 -45 239 -114 239c-58 0 -114 -64 -114 -236c0 -179 50 -249 117 -249c54 0 111 65 111 246z" />
    <glyph glyph-name="one" unicode="1" horiz-adv-x="573" 
d="M226 0v560h-100v122h238v-682h-138z" />
    <glyph glyph-name="two" unicode="2" horiz-adv-x="573" 
d="M69 0v104l204 229c50 56 97 115 97 172c0 45 -30 78 -80 78c-54 0 -85 -43 -85 -100h-140c2 122 74 221 228 221c138 0 220 -83 220 -193c0 -90 -49 -160 -149 -264l-117 -125h276v-122h-454z" />
    <glyph glyph-name="three" unicode="3" horiz-adv-x="573" 
d="M202 504h-135c3 114 83 200 221 200c140 0 220 -77 220 -180c0 -77 -55 -132 -111 -148v-3c81 -20 134 -84 134 -176c0 -114 -82 -218 -244 -218c-156 0 -233 87 -240 214h135c5 -60 42 -100 106 -100c62 0 102 45 102 111c0 62 -42 105 -125 105h-41v110h45
c61 0 98 36 98 92c0 39 -26 78 -81 78c-58 0 -82 -41 -84 -85z" />
    <glyph glyph-name="four" unicode="4" horiz-adv-x="573" 
d="M543 126h-87v-126h-134v126h-294v111l293 445h135v-440h87v-116zM269 419l-119 -177h172v183c0 40 0 55 1 83h-3c-12 -26 -29 -55 -51 -89z" />
    <glyph glyph-name="five" unicode="5" horiz-adv-x="573" 
d="M245 560l-13 -123c12 3 32 5 48 5c146 0 242 -87 242 -226c0 -122 -90 -238 -241 -238s-228 96 -235 204h144c6 -44 34 -80 93 -80c50 0 93 40 93 105c0 71 -46 115 -136 115c-48 0 -100 -7 -153 -18l35 378h353v-122h-230z" />
    <glyph glyph-name="six" unicode="6" horiz-adv-x="573" 
d="M27 227c0 87 41 160 93 235l155 220h153l-150 -213c8 3 32 4 44 4c128 -5 224 -107 224 -246c0 -137 -107 -249 -261 -249s-258 103 -258 249zM168 226c0 -76 53 -127 118 -127c67 0 119 51 119 127c0 73 -49 129 -119 129c-69 0 -118 -51 -118 -129z" />
    <glyph glyph-name="seven" unicode="7" horiz-adv-x="573" 
d="M512 682v-114l-259 -568h-152l267 560h-304v122h448z" />
    <glyph glyph-name="eight" unicode="8" horiz-adv-x="573" 
d="M198 502c0 -55 42 -93 88 -93c53 0 89 40 89 93c0 54 -38 88 -89 88c-48 0 -88 -34 -88 -88zM183 199c0 -61 43 -107 106 -107c60 0 104 40 104 107c0 65 -43 109 -104 109s-106 -44 -106 -109zM532 192c0 -109 -79 -214 -244 -214c-166 0 -247 98 -247 208
c0 90 46 150 119 180v2c-65 28 -99 80 -99 146c0 103 84 190 227 190c138 0 223 -86 223 -182c0 -77 -41 -133 -99 -154v-2c80 -29 120 -91 120 -174z" />
    <glyph glyph-name="nine" unicode="9" horiz-adv-x="573" 
d="M546 455c0 -87 -41 -160 -93 -235l-155 -220h-153l150 213c-8 -3 -32 -4 -44 -4c-133 4 -224 107 -224 246c0 137 107 249 261 249s258 -103 258 -249zM405 456c0 76 -53 127 -117 127c-68 0 -120 -51 -120 -127c0 -74 49 -129 120 -129c68 0 117 51 117 129z" />
    <glyph glyph-name="colon" unicode=":" horiz-adv-x="288" 
d="M63 320v153h163v-153h-163zM63 0v152h163v-152h-163z" />
    <glyph glyph-name="semicolon" unicode=";" horiz-adv-x="288" 
d="M63 0v152h163v-66c0 -103 -38 -176 -67 -221h-79c30 51 45 104 50 135h-67zM63 320v153h163v-153h-163z" />
    <glyph glyph-name="less" unicode="&#x3c;" horiz-adv-x="672" 
d="M586 -6l-500 227v88l500 227v-115l-357 -155v-2l357 -154v-116z" />
    <glyph glyph-name="equal" unicode="=" horiz-adv-x="672" 
d="M595 326h-518v102h518v-102zM595 101h-518v103h518v-103z" />
    <glyph glyph-name="greater" unicode="&#x3e;" horiz-adv-x="672" 
d="M586 220l-500 -226v115l356 155v2l-356 154v116l500 -227v-89z" />
    <glyph glyph-name="question" unicode="?" horiz-adv-x="467" 
d="M337 326c-34 -30 -48 -61 -48 -115h-120c0 73 8 115 50 162c53 58 81 83 81 137c0 41 -29 73 -72 73s-76 -32 -76 -89h-134c3 129 84 210 214 210s210 -81 210 -186c0 -78 -40 -135 -105 -192zM158 0v129h142v-129h-142z" />
    <glyph glyph-name="at" unicode="@" horiz-adv-x="935" 
d="M884 356c0 -156 -89 -266 -201 -266c-73 0 -122 32 -129 94h-4c-32 -65 -90 -94 -144 -94c-102 0 -153 81 -153 180c0 124 75 253 205 253c50 0 84 -28 104 -65h3l9 56h106l-36 -236c-3 -23 -6 -41 -6 -54c0 -26 13 -53 54 -53c58 0 97 75 97 180
c0 171 -100 272 -312 272c-213 0 -331 -159 -331 -335c0 -178 125 -298 325 -298c82 0 158 15 202 36l29 -67c-54 -32 -143 -50 -239 -50c-242 0 -412 148 -412 380s174 415 430 415c265 0 403 -155 403 -348zM547 348c0 53 -24 90 -71 90c-69 0 -112 -78 -112 -163
c0 -63 26 -100 67 -100c75 0 116 84 116 173z" />
    <glyph glyph-name="A" unicode="A" horiz-adv-x="664" 
d="M7 0l265 682h134l251 -682h-147l-53 155h-252l-54 -155h-144zM296 419l-57 -162h183l-56 163c-13 38 -23 70 -32 104h-5c-9 -35 -20 -70 -33 -105z" />
    <glyph glyph-name="B" unicode="B" horiz-adv-x="564" 
d="M68 0v682h189c141 0 236 -57 236 -172c0 -76 -55 -127 -122 -143v-2c104 -14 158 -88 158 -169c0 -126 -102 -196 -238 -196h-223zM385 208c0 57 -41 97 -114 97h-68v-197h74c70 0 108 37 108 100zM352 496c0 51 -38 79 -102 79h-47v-165h52c67 0 97 33 97 86z" />
    <glyph glyph-name="C" unicode="C" horiz-adv-x="765" 
d="M387 704c190 0 301 -126 325 -240h-154c-18 62 -80 118 -172 118c-121 0 -207 -98 -207 -240c0 -131 84 -242 209 -242c100 0 156 63 177 129h159c-43 -138 -153 -251 -340 -251c-211 0 -351 157 -351 365s149 361 354 361z" />
    <glyph glyph-name="D" unicode="D" horiz-adv-x="710" 
d="M68 682h234c246 0 375 -155 375 -341c0 -185 -137 -341 -377 -341h-232v682zM211 126h86c161 0 234 97 234 215c0 127 -79 215 -234 215h-86v-430z" />
    <glyph glyph-name="E" unicode="E" horiz-adv-x="544" 
d="M475 682v-124h-264v-147h255v-118h-255v-169h275v-124h-418v682h407z" />
    <glyph glyph-name="F" unicode="F" horiz-adv-x="517" 
d="M476 682v-124h-265v-164h255v-118h-255v-276h-143v682h408z" />
    <glyph glyph-name="G" unicode="G" horiz-adv-x="770" 
d="M353 380h384v-33c0 -176 -107 -367 -349 -367c-209 0 -355 159 -355 357c0 211 151 365 355 365c163 0 282 -81 328 -212h-155c-30 57 -92 90 -170 90c-117 0 -213 -90 -213 -239s92 -239 221 -239c101 0 175 72 186 160h-232v118z" />
    <glyph glyph-name="H" unicode="H" horiz-adv-x="696" 
d="M484 0v290h-273v-290h-143v682h143v-268h273v268h143v-682h-143z" />
    <glyph glyph-name="I" unicode="I" horiz-adv-x="278" 
d="M68 0v682h143v-682h-143z" />
    <glyph glyph-name="J" unicode="J" horiz-adv-x="386" 
d="M181 201v481h144v-474c0 -168 -71 -230 -210 -230c-36 0 -84 10 -107 20v120c20 -9 62 -18 87 -18c60 0 86 28 86 101z" />
    <glyph glyph-name="K" unicode="K" horiz-adv-x="651" 
d="M490 0l-237 292c-9 -10 -33 -34 -42 -44v-248h-143v682h143v-261l248 261h179l-287 -295l320 -387h-181z" />
    <glyph glyph-name="L" unicode="L" horiz-adv-x="494" 
d="M68 0v682h143v-558h275v-124h-418z" />
    <glyph glyph-name="M" unicode="M" horiz-adv-x="822" 
d="M704 682l84 -682h-138l-33 335c-5 45 -11 110 -14 150h-6c-12 -44 -27 -104 -41 -151l-99 -334h-100l-101 339c-13 43 -29 95 -39 146h-8c-2 -45 -7 -100 -11 -144l-35 -341h-129l81 682h158l100 -322c12 -38 27 -88 36 -125h4c9 37 25 89 36 125l98 322h157z" />
    <glyph glyph-name="N" unicode="N" horiz-adv-x="678" 
d="M191 468h-4c1 -32 4 -98 4 -129v-339h-123v682h123l190 -293c63 -96 87 -144 106 -180h3c-1 34 -3 93 -3 123v350h123v-682h-123l-174 267c-78 122 -102 166 -122 201z" />
    <glyph glyph-name="O" unicode="O" horiz-adv-x="789" 
d="M179 341c0 -134 93 -235 215 -235c123 0 216 101 216 235c0 131 -85 235 -215 235c-122 0 -216 -101 -216 -235zM33 341c0 194 152 363 363 363c225 0 360 -173 360 -363c0 -199 -154 -363 -361 -363c-250 0 -362 195 -362 363z" />
    <glyph glyph-name="P" unicode="P" horiz-adv-x="564" 
d="M400 461c0 57 -33 106 -117 106h-72v-211h69c96 0 120 52 120 105zM68 0v682h218c146 0 258 -69 258 -219c0 -137 -84 -222 -263 -222h-70v-241h-143z" />
    <glyph glyph-name="Q" unicode="Q" horiz-adv-x="789" 
d="M640 -110l-97 120c-45 -21 -96 -32 -149 -32c-251 0 -362 195 -362 363c0 194 152 363 363 363c225 0 360 -173 360 -363c0 -104 -43 -198 -112 -264l91 -112zM177 341c0 -134 94 -235 216 -235c23 0 44 4 65 12l-89 109l94 75l93 -116c33 41 53 94 53 155
c0 131 -85 235 -215 235c-122 0 -217 -101 -217 -235z" />
    <glyph glyph-name="R" unicode="R" horiz-adv-x="606" 
d="M400 288l211 -288h-170l-185 268h-45v-268h-143v682h212c192 0 259 -96 259 -208c0 -98 -62 -164 -139 -186zM392 468c0 62 -37 99 -105 99h-76v-194h77c65 0 104 38 104 95z" />
    <glyph glyph-name="S" unicode="S" horiz-adv-x="562" 
d="M501 504h-135c-4 50 -35 84 -85 84c-45 0 -78 -29 -78 -73c0 -51 47 -75 118 -98c140 -46 193 -124 193 -227c0 -99 -72 -212 -232 -212c-136 0 -229 80 -240 221h141c7 -63 38 -105 101 -105c56 0 90 40 90 88c0 57 -37 88 -123 116c-136 45 -186 122 -186 215
c0 116 96 191 217 191c130 0 214 -80 219 -200z" />
    <glyph glyph-name="T" unicode="T" horiz-adv-x="485" 
d="M170 0v558h-162v124h469v-124h-163v-558h-144z" />
    <glyph glyph-name="U" unicode="U" horiz-adv-x="635" 
d="M318 -22c-143 0 -260 77 -260 292v412h143v-423c0 -100 43 -159 116 -159c90 0 118 70 118 159v423h142v-410c0 -211 -108 -294 -259 -294z" />
    <glyph glyph-name="V" unicode="V" horiz-adv-x="627" 
d="M630 682l-254 -682h-129l-248 682h153l121 -364c13 -38 32 -102 42 -147h3c10 48 29 108 42 148l122 363h148z" />
    <glyph glyph-name="W" unicode="W" horiz-adv-x="871" 
d="M544 0l-82 359c-11 51 -18 96 -22 145h-4c-6 -49 -11 -91 -23 -142l-78 -362h-152l-175 682h142l85 -371c16 -66 19 -93 25 -129h4c7 43 17 93 27 138l81 362h135l87 -369c14 -57 18 -90 25 -131h4c6 47 14 91 22 130l79 370h139l-165 -682h-154z" />
    <glyph glyph-name="X" unicode="X" horiz-adv-x="615" 
d="M167 682l95 -148c19 -29 33 -54 48 -80h3c16 29 30 54 48 82l92 146h152l-222 -325l232 -357h-158l-97 157c-19 30 -37 63 -55 93h-2c-19 -31 -37 -64 -56 -95l-95 -155h-152l232 351l-224 331h159z" />
    <glyph glyph-name="Y" unicode="Y" horiz-adv-x="598" 
d="M228 0v272l-221 410h155l105 -203c15 -29 28 -58 36 -85h2c11 28 22 53 37 84l99 204h150l-220 -409v-273h-143z" />
    <glyph glyph-name="Z" unicode="Z" horiz-adv-x="619" 
d="M55 558v124h510v-117l-348 -441h364v-124h-543v116l347 442h-330z" />
    <glyph glyph-name="bracketleft" unicode="[" horiz-adv-x="373" 
d="M315 728v-108h-106v-713h106v-107h-228v928h228z" />
    <glyph glyph-name="backslash" unicode="\" horiz-adv-x="432" 
d="M445 -114h-116l-320 834h117z" />
    <glyph glyph-name="bracketright" unicode="]" horiz-adv-x="373" 
d="M58 620v108h228v-928h-228v107h106v713h-106z" />
    <glyph glyph-name="asciicircum" unicode="^" horiz-adv-x="666" 
d="M614 326h-120l-160 269h-3l-160 -269h-120l230 378h103z" />
    <glyph glyph-name="underscore" unicode="_" horiz-adv-x="550" 
d="M0 -238v96h550v-96h-550z" />
    <glyph glyph-name="grave" unicode="`" horiz-adv-x="322" 
d="M27 677l66 87l159 -137l-54 -72z" />
    <glyph glyph-name="a" unicode="a" horiz-adv-x="602" 
d="M538 479v-479h-130v60h-4c-31 -41 -78 -76 -156 -76c-93 0 -218 75 -218 256c0 154 106 252 228 252c75 0 120 -37 146 -75h4v62h130zM167 239c0 -70 39 -138 123 -138c64 0 120 56 120 137c0 84 -52 139 -119 139c-84 0 -124 -69 -124 -138z" />
    <glyph glyph-name="b" unicode="b" horiz-adv-x="602" 
d="M64 0v720h130v-298h4c30 33 77 70 158 70c93 0 216 -78 216 -255c0 -157 -111 -253 -226 -253c-70 0 -117 31 -146 69h-4v-53h-132zM435 237c0 72 -40 138 -124 138c-65 0 -119 -55 -119 -138c0 -82 54 -138 120 -138c82 0 123 70 123 138z" />
    <glyph glyph-name="c" unicode="c" horiz-adv-x="549" 
d="M285 495c137 0 211 -95 226 -175h-134c-12 37 -45 61 -93 61c-73 0 -117 -57 -117 -141c0 -79 44 -142 121 -142c52 0 82 31 95 66h137c-27 -98 -100 -181 -234 -181c-142 0 -256 101 -256 258c0 140 97 254 255 254z" />
    <glyph glyph-name="d" unicode="d" horiz-adv-x="602" 
d="M538 720v-720h-130v52h-4c-31 -34 -82 -69 -157 -69c-92 0 -217 76 -217 257c0 153 106 255 227 255c72 0 114 -30 145 -71h4v296h132zM167 239c0 -70 40 -139 123 -139c64 0 120 57 120 138c0 84 -52 142 -119 142c-83 0 -124 -72 -124 -141z" />
    <glyph glyph-name="e" unicode="e" horiz-adv-x="553" 
d="M276 495c158 0 244 -118 244 -252c0 -11 0 -23 -2 -36h-356c0 -66 56 -123 124 -123c44 0 75 19 96 50h131c-31 -81 -102 -151 -228 -151c-143 0 -255 104 -255 260c0 137 90 252 246 252zM275 401c-66 0 -107 -49 -112 -102h224c-6 56 -49 102 -112 102z" />
    <glyph glyph-name="f" unicode="f" horiz-adv-x="326" 
d="M15 365v114h68v73c0 113 60 174 172 174c31 0 61 -5 83 -11v-111c-19 5 -36 8 -54 8c-48 0 -65 -26 -65 -69v-64h104v-114h-104v-365h-136v365h-68z" />
    <glyph glyph-name="g" unicode="g" horiz-adv-x="602" 
d="M539 479v-464c0 -178 -80 -272 -257 -272c-134 0 -223 73 -241 192h135c10 -46 44 -82 114 -82c81 0 123 51 123 144v61h-3c-32 -38 -79 -69 -153 -69c-124 0 -226 97 -226 252c0 144 99 253 232 253c76 0 121 -39 145 -73h5v58h126zM168 242c0 -66 38 -135 122 -135
c67 0 122 55 122 134c0 82 -53 136 -121 136c-81 0 -123 -68 -123 -135z" />
    <glyph glyph-name="h" unicode="h" horiz-adv-x="579" 
d="M62 0v720h135v-301h4c33 53 87 75 141 75c107 0 182 -71 182 -219v-275h-135v267c0 71 -34 108 -90 108c-59 0 -102 -41 -102 -122v-253h-135z" />
    <glyph glyph-name="i" unicode="i" horiz-adv-x="259" 
d="M62 0v479h135v-479h-135zM59 579v129h142v-129h-142z" />
    <glyph glyph-name="j" unicode="j" horiz-adv-x="259" 
d="M197 479v-513c0 -152 -71 -217 -184 -217c-40 0 -71 6 -94 14v114c12 -4 41 -10 67 -10c49 0 76 24 76 97v515h135zM59 579v129h142v-129h-142z" />
    <glyph glyph-name="k" unicode="k" horiz-adv-x="536" 
d="M379 0l-151 197l-31 -30v-167h-135v720h135v-403l152 162h164l-192 -197l221 -282h-163z" />
    <glyph glyph-name="l" unicode="l" horiz-adv-x="259" 
d="M62 0v720h135v-720h-135z" />
    <glyph glyph-name="m" unicode="m" horiz-adv-x="870" 
d="M62 0v479h133v-60h2c30 43 78 75 139 75c72 0 123 -42 141 -86c24 43 83 86 155 86c110 0 181 -76 181 -219v-275h-135v271c0 55 -24 104 -81 104c-47 0 -92 -36 -92 -118v-257h-135v271c0 59 -31 104 -81 104c-56 0 -92 -43 -92 -118v-257h-135z" />
    <glyph glyph-name="n" unicode="n" horiz-adv-x="581" 
d="M62 0v479h133v-60h4c33 53 87 75 142 75c108 0 183 -72 183 -219v-275h-135v266c0 72 -34 109 -90 109c-59 0 -102 -42 -102 -122v-253h-135z" />
    <glyph glyph-name="o" unicode="o" horiz-adv-x="571" 
d="M30 240c0 148 110 255 256 255c151 0 256 -110 256 -255c0 -141 -106 -257 -256 -257c-147 0 -256 112 -256 257zM166 239c0 -79 52 -136 120 -136c73 0 119 59 119 136c0 74 -43 136 -119 136c-75 0 -120 -58 -120 -136z" />
    <glyph glyph-name="p" unicode="p" horiz-adv-x="602" 
d="M64 -235v714h130v-57h4c30 36 74 70 154 70c101 0 220 -84 220 -255c0 -153 -106 -253 -228 -253c-68 0 -115 31 -144 69h-4v-288h-132zM435 237c0 72 -40 138 -124 138c-65 0 -119 -55 -119 -138c0 -82 54 -138 120 -138c82 0 123 70 123 138z" />
    <glyph glyph-name="q" unicode="q" horiz-adv-x="602" 
d="M538 479v-714h-130v287h-4c-31 -36 -82 -69 -156 -69c-92 0 -218 76 -218 257c0 153 104 255 228 255c70 0 116 -34 144 -71h4v55h132zM167 239c0 -70 40 -139 123 -139c64 0 120 57 120 138c0 84 -52 142 -119 142c-83 0 -124 -72 -124 -141z" />
    <glyph glyph-name="r" unicode="r" horiz-adv-x="404" 
d="M381 489v-126c-17 3 -37 6 -64 6c-80 0 -120 -50 -120 -136v-233h-135v479h132v-74h3c26 47 76 88 140 88c19 0 31 -1 44 -4z" />
    <glyph glyph-name="s" unicode="s" horiz-adv-x="441" 
d="M395 350h-119c-3 34 -25 54 -55 54c-32 0 -49 -21 -49 -42c0 -27 15 -44 96 -72c101 -33 138 -84 138 -153c0 -88 -67 -154 -185 -154c-122 0 -180 64 -185 157h121c3 -38 23 -65 67 -65c34 0 55 23 55 51c0 33 -23 53 -95 77c-90 29 -137 74 -137 149
c0 86 70 143 173 143c106 0 165 -61 175 -145z" />
    <glyph glyph-name="t" unicode="t" horiz-adv-x="344" 
d="M11 365v114h58v153h136v-153h113v-114h-113v-186c0 -56 17 -71 60 -71c18 0 41 3 58 8v-110c-28 -8 -66 -13 -94 -13c-120 0 -160 68 -160 172v200h-58z" />
    <glyph glyph-name="u" unicode="u" horiz-adv-x="570" 
d="M508 479v-479h-134v60h-3c-39 -57 -88 -76 -140 -76c-78 0 -174 48 -174 211v284h135v-267c0 -70 33 -108 85 -108c59 0 96 41 96 121v254h135z" />
    <glyph glyph-name="v" unicode="v" horiz-adv-x="461" 
d="M467 479l-177 -479h-120l-177 479h140l66 -208c13 -42 25 -89 32 -128h4c9 46 18 86 32 128l68 208h132z" />
    <glyph glyph-name="w" unicode="w" horiz-adv-x="725" 
d="M429 0l-48 210c-6 30 -16 69 -19 104h-4c-4 -35 -12 -77 -23 -124l-44 -190h-156l-121 479h133l56 -241c9 -41 13 -63 18 -95h4c5 31 10 63 19 100l59 236h122l60 -240c9 -40 12 -66 16 -96h3c5 38 11 72 16 95l58 241h132l-125 -479h-156z" />
    <glyph glyph-name="x" unicode="x" horiz-adv-x="505" 
d="M5 0l174 242l-164 237h151l61 -98c10 -15 19 -37 26 -51h3c7 15 15 32 24 48l58 101h150l-164 -235l171 -244h-156l-63 103c-12 21 -20 39 -25 52h-4c-8 -18 -17 -35 -27 -53l-63 -102h-152z" />
    <glyph glyph-name="y" unicode="y" horiz-adv-x="467" 
d="M474 479l-262 -714h-128l88 239l-174 475h140l69 -208c11 -35 25 -79 32 -118h4c9 46 18 76 31 118l67 208h133z" />
    <glyph glyph-name="z" unicode="z" horiz-adv-x="486" 
d="M45 367v112h395v-108l-235 -259h247v-112h-419v108l236 259h-224z" />
    <glyph glyph-name="braceleft" unicode="{" horiz-adv-x="383" 
d="M330 742v-103c-54 -1 -75 -28 -75 -77v-169c0 -59 -28 -109 -85 -129v-2c50 -15 85 -63 85 -133v-165c0 -49 21 -75 75 -76v-103c-141 0 -198 64 -198 170v173c0 45 -29 82 -83 85v100c54 2 83 40 83 84v180c0 95 53 164 198 165z" />
    <glyph glyph-name="bar" unicode="|" horiz-adv-x="374" 
d="M237 -210h-102v1000h102v-1000z" />
    <glyph glyph-name="braceright" unicode="}" horiz-adv-x="383" 
d="M53 639v103c145 -1 198 -70 198 -165v-180c0 -44 29 -82 83 -84v-100c-54 -3 -83 -40 -83 -85v-173c0 -119 -74 -170 -198 -170v103c54 1 75 27 75 76v165c0 70 35 118 85 133v2c-57 20 -85 70 -85 129v169c0 49 -21 76 -75 77z" />
    <glyph glyph-name="asciitilde" unicode="~" horiz-adv-x="666" 
d="M631 294c-46 -80 -100 -125 -185 -125c-42 0 -88 14 -126 39c-41 28 -70 45 -103 45c-42 0 -68 -24 -101 -77l-82 52c44 85 101 126 181 126c49 0 89 -17 125 -40c47 -30 76 -45 109 -45c42 0 73 31 100 77z" />
    <glyph glyph-name="uni00A0" unicode="&#xa0;" horiz-adv-x="250" 
 />
    <glyph glyph-name="exclamdown" unicode="&#xa1;" horiz-adv-x="276" 
d="M209 682v-129h-142v129h142zM212 0h-148l14 470h120z" />
    <glyph glyph-name="cent" unicode="&#xa2;" horiz-adv-x="573" 
d="M243 0v94c-112 23 -200 115 -200 253c0 122 76 225 200 249v86h100v-85c109 -18 168 -100 182 -171h-133c-12 36 -47 61 -95 61c-71 0 -116 -58 -116 -141c0 -80 44 -143 120 -143c53 0 84 32 97 67h135c-24 -87 -86 -161 -190 -178v-92h-100z" />
    <glyph glyph-name="sterling" unicode="&#xa3;" horiz-adv-x="573" 
d="M414 404v-102h-152c5 -23 9 -47 9 -71c0 -42 -15 -72 -39 -93c22 0 50 -9 75 -17c29 -10 53 -20 75 -20c30 0 46 24 47 76h129c-3 -135 -63 -199 -166 -199c-41 0 -84 13 -129 28c-38 12 -74 24 -104 24c-39 0 -82 -15 -119 -37v118c71 18 101 70 101 113
c0 26 -5 55 -12 78h-89v102h61c-7 27 -15 65 -15 108c0 99 67 193 215 193c131 0 213 -83 218 -199h-136c-2 51 -36 84 -81 84c-52 0 -79 -38 -79 -92c0 -32 6 -65 13 -94h178z" />
    <glyph glyph-name="currency" unicode="&#xa4;" horiz-adv-x="612" 
d="M551 175l-62 -63l-68 68c-35 -23 -76 -34 -116 -34c-34 0 -77 9 -115 34l-69 -68l-61 63l69 66c-24 39 -34 79 -34 113s9 75 34 112c-23 23 -69 68 -69 68l61 62l69 -67c39 25 81 33 115 33c37 0 80 -10 115 -33l69 67l62 -62l-69 -68c26 -39 34 -81 34 -112
c0 -34 -9 -73 -34 -113zM428 355c0 70 -60 121 -122 121c-70 0 -123 -55 -123 -121c0 -67 55 -122 122 -122c68 0 123 55 123 122z" />
    <glyph glyph-name="yen" unicode="&#xa5;" horiz-adv-x="573" 
d="M49 274v97h128l-164 311h145l94 -190c15 -29 29 -58 37 -85h2c10 28 22 53 37 84l91 191h141l-164 -311h128v-97h-169v-69h169v-96h-169v-109h-136v109h-170v96h170v69h-170z" />
    <glyph glyph-name="brokenbar" unicode="&#xa6;" horiz-adv-x="374" 
d="M237 390h-102v300h102v-300zM237 -110h-102v300h102v-300z" />
    <glyph glyph-name="section" unicode="&#xa7;" horiz-adv-x="445" 
d="M399 331c0 -55 -27 -93 -70 -115c34 -26 59 -69 59 -119c0 -79 -53 -147 -170 -147c-106 0 -165 57 -173 150h111c2 -38 23 -63 65 -63c38 0 61 26 61 57c0 47 -46 69 -94 89c-74 33 -133 75 -133 156c0 54 28 93 71 112c-38 28 -61 66 -61 116c0 74 58 137 164 137
c92 0 152 -57 156 -139h-102c-2 26 -22 50 -57 50c-37 0 -55 -24 -55 -48c0 -39 28 -56 105 -88c72 -30 123 -71 123 -148zM296 323c0 37 -33 57 -92 78c-24 -5 -47 -24 -47 -53c0 -38 29 -57 94 -83c27 9 45 31 45 58z" />
    <glyph glyph-name="dieresis" unicode="&#xa8;" horiz-adv-x="322" 
d="M12 591v112h114v-112h-114zM196 591v112h114v-112h-114z" />
    <glyph glyph-name="copyright" unicode="&#xa9;" horiz-adv-x="820" 
d="M409 557c111 0 170 -80 185 -146h-101c-11 36 -43 57 -86 57c-67 0 -106 -50 -106 -122c0 -70 40 -123 109 -123c42 0 76 26 87 66h101c-23 -85 -91 -154 -189 -154c-123 0 -204 91 -204 213c0 120 88 209 204 209zM47 341c0 200 163 363 363 363
c201 0 363 -163 363 -363s-162 -363 -363 -363c-200 0 -363 163 -363 363zM111 341c0 -165 135 -298 299 -298c166 0 298 133 298 298c0 164 -132 298 -298 298c-164 0 -299 -134 -299 -298z" />
    <glyph glyph-name="ordfeminine" unicode="&#xaa;" horiz-adv-x="390" 
d="M367 407v-79c-8 -4 -24 -7 -41 -7c-36 0 -68 19 -74 54c-25 -37 -69 -57 -113 -57c-78 0 -114 48 -114 102c0 80 74 137 217 149v4c0 39 -17 57 -55 57c-37 0 -58 -13 -63 -39h-88c10 68 70 113 154 113c90 0 145 -46 145 -143v-117c0 -27 5 -39 19 -39c5 0 9 1 13 2z
M242 482v18c-86 -7 -121 -37 -121 -70c0 -22 15 -36 43 -36c44 0 78 35 78 88z" />
    <glyph glyph-name="guillemotleft" unicode="&#xab;" horiz-adv-x="502" 
d="M248 248l130 210l82 -44l-86 -166l86 -166l-82 -45zM46 248l130 210l82 -44l-86 -166l86 -166l-82 -45z" />
    <glyph glyph-name="logicalnot" unicode="&#xac;" horiz-adv-x="672" 
d="M595 98h-104v190h-415v102h519v-292z" />
    <glyph glyph-name="uni00AD" unicode="&#xad;" horiz-adv-x="465" 
d="M399 211h-322v105h322v-105z" />
    <glyph glyph-name="registered" unicode="&#xae;" horiz-adv-x="508" 
d="M33 482c0 123 101 222 222 222c122 0 220 -99 220 -222c0 -122 -98 -221 -220 -221c-121 0 -222 99 -222 221zM82 482c0 -96 78 -171 173 -171c96 0 171 75 171 171c0 95 -75 172 -171 172c-95 0 -173 -77 -173 -172zM309 455l63 -88h-74l-55 80h-13v-80h-66v236h103
c65 0 94 -36 94 -77c0 -35 -22 -62 -52 -71zM293 523c0 18 -10 31 -40 31h-23v-60h23c28 0 40 11 40 29z" />
    <glyph glyph-name="macron" unicode="&#xaf;" horiz-adv-x="322" 
d="M307 593h-293v90h293v-90z" />
    <glyph glyph-name="degree" unicode="&#xb0;" horiz-adv-x="375" 
d="M51 559c0 75 61 137 137 137s137 -62 137 -137s-61 -137 -137 -137s-137 62 -137 137zM113 559c0 -42 33 -75 75 -75c41 0 74 33 74 75s-33 75 -74 75c-42 0 -75 -33 -75 -75z" />
    <glyph glyph-name="plusminus" unicode="&#xb1;" horiz-adv-x="672" 
d="M594 0h-517v102h517v-102zM594 318h-207v-170h-103v170h-207v103h207v171h103v-171h207v-103z" />
    <glyph glyph-name="twosuperior" unicode="&#xb2;" 
d="M54 425v69l135 144c31 34 60 67 60 102c0 26 -19 45 -47 45c-35 0 -49 -24 -50 -58h-103c1 78 48 145 158 145c90 0 152 -56 152 -129c0 -55 -29 -93 -99 -166l-61 -63h166v-89h-311z" />
    <glyph glyph-name="threesuperior" unicode="&#xb3;" 
d="M149 740h-102c2 79 58 132 153 132c99 0 152 -48 152 -114c0 -48 -32 -84 -73 -93v-3c55 -14 87 -55 87 -111c0 -73 -55 -140 -168 -140c-107 0 -159 55 -164 143h102c3 -40 24 -61 63 -61c36 0 60 26 60 66c0 31 -21 58 -71 58h-31v79h30c38 0 57 20 57 49
c0 23 -16 45 -47 45c-33 0 -47 -25 -48 -50z" />
    <glyph glyph-name="acute" unicode="&#xb4;" horiz-adv-x="322" 
d="M69 627l159 137l66 -87l-170 -122z" />
    <glyph glyph-name="paragraph" unicode="&#xb6;" horiz-adv-x="554" 
d="M499 597h-59v-597h-96v597h-67v-597h-96v372c-90 3 -154 68 -154 157c0 99 77 153 164 153h308v-85z" />
    <glyph glyph-name="periodcentered" unicode="&#xb7;" horiz-adv-x="276" 
d="M59 275v152h162v-152h-162z" />
    <glyph glyph-name="cedilla" unicode="&#xb8;" horiz-adv-x="322" 
d="M127 0h75l-16 -39c58 -9 91 -52 91 -99c0 -64 -42 -111 -133 -111c-37 0 -83 10 -110 19l26 75c14 -6 51 -14 73 -14c32 0 49 9 49 30c0 25 -29 41 -93 41z" />
    <glyph glyph-name="onesuperior" unicode="&#xb9;" 
d="M158 425v346h-68v88h174v-434h-106z" />
    <glyph glyph-name="ordmasculine" unicode="&#xba;" horiz-adv-x="448" 
d="M28 512c0 118 88 192 196 192c114 0 196 -82 196 -192c0 -109 -82 -194 -196 -194c-108 0 -196 75 -196 194zM128 511c0 -58 41 -102 96 -102c56 0 96 42 96 102c0 58 -40 102 -96 102c-53 0 -96 -35 -96 -102z" />
    <glyph glyph-name="guillemotright" unicode="&#xbb;" horiz-adv-x="502" 
d="M255 248l-130 -211l-83 45l86 166l-86 165l83 45zM457 248l-130 -211l-83 45l86 166l-86 165l83 45z" />
    <glyph glyph-name="onequarter" unicode="&#xbc;" horiz-adv-x="945" 
d="M158 250v346h-68v88h174v-434h-106zM664 682h97l-468 -682h-97zM919 68h-62v-68h-102v68h-197v75l197 291h102v-289h62v-77zM718 258l-78 -113h115v125c0 25 1 31 2 49h-3c-8 -17 -25 -44 -36 -61z" />
    <glyph glyph-name="onehalf" unicode="&#xbd;" horiz-adv-x="982" 
d="M158 250v346h-68v88h174v-434h-106zM664 682h97l-468 -682h-97zM630 0v69l135 144c31 34 60 67 60 102c0 26 -19 45 -47 45c-35 0 -49 -24 -50 -58h-103c1 78 48 145 158 145c90 0 152 -56 152 -129c0 -55 -29 -93 -99 -166l-61 -63h166v-89h-311z" />
    <glyph glyph-name="threequarters" unicode="&#xbe;" horiz-adv-x="968" 
d="M149 565h-102c2 79 58 132 153 132c99 0 152 -48 152 -114c0 -48 -32 -84 -73 -93v-3c55 -14 87 -55 87 -111c0 -73 -55 -140 -168 -140c-107 0 -159 55 -164 143h102c3 -40 24 -61 63 -61c36 0 60 26 60 66c0 31 -21 58 -71 58h-31v79h30c38 0 57 20 57 49
c0 23 -16 45 -47 45c-33 0 -47 -25 -48 -50zM688 682h97l-468 -682h-97zM942 68h-62v-68h-102v68h-197v75l197 291h102v-289h62v-77zM741 258l-78 -113h115v125c0 25 1 31 2 49h-3c-8 -17 -25 -44 -36 -61z" />
    <glyph glyph-name="questiondown" unicode="&#xbf;" horiz-adv-x="467" 
d="M130 356c33 30 47 61 47 114h120c0 -73 -7 -115 -49 -161c-53 -58 -82 -83 -82 -137c0 -41 30 -73 73 -73s76 32 76 89h133c-3 -129 -83 -210 -213 -210s-210 81 -210 186c0 78 39 135 105 192zM308 682v-129h-141v129h141z" />
    <glyph glyph-name="Agrave" unicode="&#xc0;" horiz-adv-x="664" 
d="M9 0l265 682h134l251 -682h-147l-53 155h-252l-54 -155h-144zM298 419l-57 -162h183l-56 163c-13 38 -23 70 -32 104h-5c-9 -35 -20 -70 -33 -105zM200 810l44 100l189 -95l-37 -83z" />
    <glyph glyph-name="Aacute" unicode="&#xc1;" horiz-adv-x="664" 
d="M9 0l265 682h134l251 -682h-147l-53 155h-252l-54 -155h-144zM298 419l-57 -162h183l-56 163c-13 38 -23 70 -32 104h-5c-9 -35 -20 -70 -33 -105zM436 910l45 -100l-196 -78l-37 83z" />
    <glyph glyph-name="Acircumflex" unicode="&#xc2;" horiz-adv-x="664" 
d="M9 0l265 682h134l251 -682h-147l-53 155h-252l-54 -155h-144zM298 419l-57 -162h183l-56 163c-13 38 -23 70 -32 104h-5c-9 -35 -20 -70 -33 -105zM341 906l165 -103l-35 -71l-130 60l-131 -60l-35 71z" />
    <glyph glyph-name="Atilde" unicode="&#xc3;" horiz-adv-x="664" 
d="M9 0l265 682h134l251 -682h-147l-53 155h-252l-54 -155h-144zM298 419l-57 -162h183l-56 163c-13 38 -23 70 -32 104h-5c-9 -35 -20 -70 -33 -105zM245 767h-79c3 82 39 138 107 138c28 0 49 -9 75 -28c27 -20 44 -27 59 -27s29 8 30 45h79c-4 -93 -43 -137 -110 -137
c-30 0 -54 9 -79 28c-28 20 -40 27 -53 27c-16 0 -28 -15 -29 -46z" />
    <glyph glyph-name="Adieresis" unicode="&#xc4;" horiz-adv-x="664" 
d="M9 0l265 682h134l251 -682h-147l-53 155h-252l-54 -155h-144zM298 419l-57 -162h183l-56 163c-13 38 -23 70 -32 104h-5c-9 -35 -20 -70 -33 -105zM190 771v112h114v-112h-114zM374 771v112h114v-112h-114z" />
    <glyph glyph-name="Aring" unicode="&#xc5;" horiz-adv-x="664" 
d="M9 0l265 682h134l251 -682h-147l-53 155h-252l-54 -155h-144zM298 419l-57 -162h183l-56 163c-13 38 -23 70 -32 104h-5c-9 -35 -20 -70 -33 -105zM284 844c0 -31 26 -56 56 -56c31 0 56 25 56 56s-25 56 -56 56c-30 0 -56 -25 -56 -56zM211 844c0 72 56 129 129 129
c72 0 130 -57 130 -129s-58 -130 -130 -130c-73 0 -129 58 -129 130z" />
    <glyph glyph-name="AE" unicode="&#xc6;" horiz-adv-x="915" 
d="M847 682v-124h-257v-147h247v-118h-247v-169h267v-124h-407v155h-220l-79 -155h-158l372 682h482zM435 558l-157 -301h172v301h-15z" />
    <glyph glyph-name="Ccedilla" unicode="&#xc7;" horiz-adv-x="765" 
d="M387 704c190 0 301 -126 325 -240h-154c-18 62 -80 118 -172 118c-121 0 -207 -98 -207 -240c0 -131 84 -242 209 -242c100 0 156 63 177 129h159c-40 -130 -141 -237 -308 -249l-7 -19c58 -9 91 -52 91 -99c0 -64 -42 -111 -132 -111c-37 0 -84 10 -111 19l26 75
c14 -6 52 -14 74 -14c31 0 48 9 48 30c0 25 -29 41 -93 41l30 79c-187 18 -309 168 -309 362c0 208 149 361 354 361z" />
    <glyph glyph-name="Egrave" unicode="&#xc8;" horiz-adv-x="544" 
d="M477 682v-124h-264v-147h255v-118h-255v-169h275v-124h-418v682h407zM141 810l44 100l189 -95l-37 -83z" />
    <glyph glyph-name="Eacute" unicode="&#xc9;" horiz-adv-x="544" 
d="M477 682v-124h-264v-147h255v-118h-255v-169h275v-124h-418v682h407zM362 910l45 -100l-196 -78l-37 83z" />
    <glyph glyph-name="Ecircumflex" unicode="&#xca;" horiz-adv-x="544" 
d="M477 682v-124h-264v-147h255v-118h-255v-169h275v-124h-418v682h407zM275 906l165 -103l-35 -71l-130 60l-131 -60l-35 71z" />
    <glyph glyph-name="Edieresis" unicode="&#xcb;" horiz-adv-x="544" 
d="M477 682v-124h-264v-147h255v-118h-255v-169h275v-124h-418v682h407zM123 771v112h114v-112h-114zM307 771v112h114v-112h-114z" />
    <glyph glyph-name="Igrave" unicode="&#xcc;" horiz-adv-x="278" 
d="M70 0v682h143v-682h-143zM1 810l44 100l189 -95l-37 -83z" />
    <glyph glyph-name="Iacute" unicode="&#xcd;" horiz-adv-x="278" 
d="M70 0v682h143v-682h-143zM236 910l45 -100l-196 -78l-37 83z" />
    <glyph glyph-name="Icircumflex" unicode="&#xce;" horiz-adv-x="278" 
d="M70 0v682h143v-682h-143zM141 906l165 -103l-35 -71l-130 60l-131 -60l-35 71z" />
    <glyph glyph-name="Idieresis" unicode="&#xcf;" horiz-adv-x="278" 
d="M70 0v682h143v-682h-143zM-8 771v112h114v-112h-114zM176 771v112h114v-112h-114z" />
    <glyph glyph-name="Eth" unicode="&#xd0;" horiz-adv-x="735" 
d="M15 297v107h78v278h234c246 0 375 -155 375 -341c0 -185 -137 -341 -377 -341h-232v297h-78zM236 123h86c161 0 234 100 234 218c0 127 -79 218 -234 218h-86v-155h150v-107h-150v-174z" />
    <glyph glyph-name="Ntilde" unicode="&#xd1;" horiz-adv-x="678" 
d="M193 468h-4c1 -32 4 -98 4 -129v-339h-123v682h123l190 -293c63 -96 87 -144 106 -180h3c-1 34 -3 93 -3 123v350h123v-682h-123l-174 267c-78 122 -102 166 -122 201zM241 767h-79c3 82 39 138 107 138c28 0 49 -9 75 -28c27 -20 44 -27 59 -27s29 8 30 45h79
c-4 -93 -43 -137 -110 -137c-30 0 -54 9 -79 28c-28 20 -40 27 -53 27c-16 0 -28 -15 -29 -46z" />
    <glyph glyph-name="Ograve" unicode="&#xd2;" horiz-adv-x="789" 
d="M181 341c0 -134 93 -235 215 -235c123 0 216 101 216 235c0 131 -85 235 -215 235c-122 0 -216 -101 -216 -235zM35 341c0 194 152 363 363 363c225 0 360 -173 360 -363c0 -199 -154 -363 -361 -363c-250 0 -362 195 -362 363zM273 810l44 100l189 -95l-37 -83z" />
    <glyph glyph-name="Oacute" unicode="&#xd3;" horiz-adv-x="789" 
d="M181 341c0 -134 93 -235 215 -235c123 0 216 101 216 235c0 131 -85 235 -215 235c-122 0 -216 -101 -216 -235zM35 341c0 194 152 363 363 363c225 0 360 -173 360 -363c0 -199 -154 -363 -361 -363c-250 0 -362 195 -362 363zM484 910l45 -100l-196 -78l-37 83z" />
    <glyph glyph-name="Ocircumflex" unicode="&#xd4;" horiz-adv-x="789" 
d="M181 341c0 -134 93 -235 215 -235c123 0 216 101 216 235c0 131 -85 235 -215 235c-122 0 -216 -101 -216 -235zM35 341c0 194 152 363 363 363c225 0 360 -173 360 -363c0 -199 -154 -363 -361 -363c-250 0 -362 195 -362 363zM401 906l165 -103l-35 -71l-130 60
l-131 -60l-35 71z" />
    <glyph glyph-name="Otilde" unicode="&#xd5;" horiz-adv-x="789" 
d="M181 341c0 -134 93 -235 215 -235c123 0 216 101 216 235c0 131 -85 235 -215 235c-122 0 -216 -101 -216 -235zM35 341c0 194 152 363 363 363c225 0 360 -173 360 -363c0 -199 -154 -363 -361 -363c-250 0 -362 195 -362 363zM305 767h-79c3 82 39 138 107 138
c28 0 49 -9 75 -28c27 -20 44 -27 59 -27s29 8 30 45h79c-4 -93 -43 -137 -110 -137c-30 0 -54 9 -79 28c-28 20 -40 27 -53 27c-16 0 -28 -15 -29 -46z" />
    <glyph glyph-name="Odieresis" unicode="&#xd6;" horiz-adv-x="789" 
d="M181 341c0 -134 93 -235 215 -235c123 0 216 101 216 235c0 131 -85 235 -215 235c-122 0 -216 -101 -216 -235zM35 341c0 194 152 363 363 363c225 0 360 -173 360 -363c0 -199 -154 -363 -361 -363c-250 0 -362 195 -362 363zM252 771v112h114v-112h-114zM436 771v112
h114v-112h-114z" />
    <glyph glyph-name="multiply" unicode="&#xd7;" horiz-adv-x="672" 
d="M588 81l-73 -73l-179 181l-183 -183l-73 72l183 183l-180 181l72 73l180 -181l182 182l73 -72l-182 -183z" />
    <glyph glyph-name="Oslash" unicode="&#xd8;" horiz-adv-x="789" 
d="M33 341c0 194 152 363 363 363c82 0 152 -24 208 -62l90 97l75 -67l-92 -99c51 -65 79 -147 79 -232c0 -199 -154 -363 -361 -363c-87 0 -156 23 -210 60l-90 -98l-76 67l92 99c-53 69 -78 155 -78 235zM173 341c0 -50 12 -94 35 -130l308 334c-34 23 -75 37 -121 37
c-125 0 -222 -103 -222 -241zM616 341c0 48 -12 92 -34 129l-307 -334c34 -23 74 -36 119 -36c127 0 222 104 222 241z" />
    <glyph glyph-name="Ugrave" unicode="&#xd9;" horiz-adv-x="635" 
d="M318 -22c-143 0 -260 77 -260 292v412h143v-423c0 -100 43 -159 116 -159c90 0 118 70 118 159v423h142v-410c0 -211 -108 -294 -259 -294zM181 810l44 100l189 -95l-37 -83z" />
    <glyph glyph-name="Uacute" unicode="&#xda;" horiz-adv-x="635" 
d="M318 -22c-143 0 -260 77 -260 292v412h143v-423c0 -100 43 -159 116 -159c90 0 118 70 118 159v423h142v-410c0 -211 -108 -294 -259 -294zM409 910l45 -100l-196 -78l-37 83z" />
    <glyph glyph-name="Ucircumflex" unicode="&#xdb;" horiz-adv-x="635" 
d="M318 -22c-143 0 -260 77 -260 292v412h143v-423c0 -100 43 -159 116 -159c90 0 118 70 118 159v423h142v-410c0 -211 -108 -294 -259 -294zM317 906l165 -103l-35 -71l-130 60l-131 -60l-35 71z" />
    <glyph glyph-name="Udieresis" unicode="&#xdc;" horiz-adv-x="635" 
d="M318 -22c-143 0 -260 77 -260 292v412h143v-423c0 -100 43 -159 116 -159c90 0 118 70 118 159v423h142v-410c0 -211 -108 -294 -259 -294zM168 771v112h114v-112h-114zM352 771v112h114v-112h-114z" />
    <glyph glyph-name="Yacute" unicode="&#xdd;" horiz-adv-x="598" 
d="M230 0v272l-221 410h155l105 -203c15 -29 28 -58 36 -85h2c11 28 22 53 37 84l99 204h150l-220 -409v-273h-143zM398 910l45 -100l-196 -78l-37 83z" />
    <glyph glyph-name="Thorn" unicode="&#xde;" horiz-adv-x="561" 
d="M68 0v682h143v-119h71c140 0 247 -66 247 -209c0 -135 -84 -214 -252 -214h-66v-140h-143zM384 352c0 56 -34 96 -105 96h-68v-193h66c81 0 107 43 107 97z" />
    <glyph glyph-name="germandbls" unicode="&#xdf;" horiz-adv-x="634" 
d="M521 554c0 -55 -26 -96 -85 -128c-49 -27 -64 -41 -64 -61c0 -25 15 -39 92 -69c113 -43 139 -95 139 -158c0 -82 -59 -155 -186 -155c-122 0 -180 65 -184 157h121c3 -42 24 -65 66 -65c36 0 56 23 56 51c0 35 -23 54 -93 81c-104 39 -135 84 -135 149
c0 51 24 92 79 122c43 23 61 41 61 72c0 29 -21 68 -90 68c-70 0 -101 -41 -101 -120v-498h-135v502c0 150 95 223 240 223c128 0 219 -70 219 -171z" />
    <glyph glyph-name="agrave" unicode="&#xe0;" horiz-adv-x="602" 
d="M540 479v-479h-130v60h-4c-31 -41 -78 -76 -156 -76c-93 0 -218 75 -218 256c0 154 106 252 228 252c75 0 120 -37 146 -75h4v62h130zM169 239c0 -70 39 -138 123 -138c64 0 120 56 120 137c0 84 -52 139 -119 139c-84 0 -124 -69 -124 -138zM157 677l66 87l159 -137
l-54 -72z" />
    <glyph glyph-name="aacute" unicode="&#xe1;" horiz-adv-x="602" 
d="M540 479v-479h-130v60h-4c-31 -41 -78 -76 -156 -76c-93 0 -218 75 -218 256c0 154 106 252 228 252c75 0 120 -37 146 -75h4v62h130zM169 239c0 -70 39 -138 123 -138c64 0 120 56 120 137c0 84 -52 139 -119 139c-84 0 -124 -69 -124 -138zM199 627l159 137l66 -87
l-170 -122z" />
    <glyph glyph-name="acircumflex" unicode="&#xe2;" horiz-adv-x="602" 
d="M540 479v-479h-130v60h-4c-31 -41 -78 -76 -156 -76c-93 0 -218 75 -218 256c0 154 106 252 228 252c75 0 120 -37 146 -75h4v62h130zM169 239c0 -70 39 -138 123 -138c64 0 120 56 120 137c0 84 -52 139 -119 139c-84 0 -124 -69 -124 -138zM291 747l164 -127l-48 -68
l-116 77l-116 -77l-49 68z" />
    <glyph glyph-name="atilde" unicode="&#xe3;" horiz-adv-x="602" 
d="M540 479v-479h-130v60h-4c-31 -41 -78 -76 -156 -76c-93 0 -218 75 -218 256c0 154 106 252 228 252c75 0 120 -37 146 -75h4v62h130zM169 239c0 -70 39 -138 123 -138c64 0 120 56 120 137c0 84 -52 139 -119 139c-84 0 -124 -69 -124 -138zM199 587h-79
c3 82 39 138 107 138c28 0 49 -9 75 -28c27 -20 44 -27 59 -27s29 8 30 45h79c-4 -93 -43 -137 -110 -137c-30 0 -54 9 -79 28c-28 20 -40 27 -53 27c-16 0 -28 -15 -29 -46z" />
    <glyph glyph-name="adieresis" unicode="&#xe4;" horiz-adv-x="602" 
d="M540 479v-479h-130v60h-4c-31 -41 -78 -76 -156 -76c-93 0 -218 75 -218 256c0 154 106 252 228 252c75 0 120 -37 146 -75h4v62h130zM169 239c0 -70 39 -138 123 -138c64 0 120 56 120 137c0 84 -52 139 -119 139c-84 0 -124 -69 -124 -138zM142 591v112h114v-112h-114z
M326 591v112h114v-112h-114z" />
    <glyph glyph-name="aring" unicode="&#xe5;" horiz-adv-x="602" 
d="M540 479v-479h-130v60h-4c-31 -41 -78 -76 -156 -76c-93 0 -218 75 -218 256c0 154 106 252 228 252c75 0 120 -37 146 -75h4v62h130zM169 239c0 -70 39 -138 123 -138c64 0 120 56 120 137c0 84 -52 139 -119 139c-84 0 -124 -69 -124 -138zM236 659
c0 -31 26 -56 56 -56c31 0 56 25 56 56s-25 56 -56 56c-30 0 -56 -25 -56 -56zM163 659c0 72 56 129 129 129c72 0 130 -57 130 -129s-58 -130 -130 -130c-73 0 -129 58 -129 130z" />
    <glyph glyph-name="ae" unicode="&#xe6;" horiz-adv-x="858" 
d="M589 495c163 -1 236 -127 236 -252c0 -17 -1 -27 -2 -33h-346c0 -66 43 -126 118 -126c44 0 72 19 89 50h132c-35 -89 -104 -151 -222 -151c-93 0 -156 37 -195 97c-44 -58 -101 -97 -191 -97c-125 0 -178 71 -178 153c0 113 93 162 251 162h72v21c0 52 -37 83 -92 83
c-60 0 -89 -26 -93 -57h-120c6 74 70 149 208 149c92 0 142 -30 166 -71c37 44 94 72 167 72zM587 401c-65 0 -105 -49 -109 -103h214c-5 55 -40 103 -105 103zM353 210h-71c-94 0 -123 -28 -123 -71c0 -42 28 -62 64 -62c74 0 124 59 130 133z" />
    <glyph glyph-name="ccedilla" unicode="&#xe7;" horiz-adv-x="549" 
d="M285 495c137 0 211 -95 226 -175h-134c-12 37 -45 61 -93 61c-73 0 -117 -57 -117 -141c0 -79 44 -142 121 -142c52 0 82 31 95 66h137c-26 -91 -90 -168 -204 -179l-10 -24c58 -9 91 -52 91 -99c0 -64 -42 -111 -133 -111c-37 0 -83 10 -110 19l26 75
c14 -6 51 -14 73 -14c32 0 49 9 49 30c0 25 -29 41 -93 41l32 84c-118 17 -211 112 -211 255c0 140 97 254 255 254z" />
    <glyph glyph-name="egrave" unicode="&#xe8;" horiz-adv-x="553" 
d="M278 495c158 0 244 -118 244 -252c0 -11 0 -23 -2 -36h-356c0 -66 56 -123 124 -123c44 0 75 19 96 50h131c-31 -81 -102 -151 -228 -151c-143 0 -255 104 -255 260c0 137 90 252 246 252zM277 401c-66 0 -107 -49 -112 -102h224c-6 56 -49 102 -112 102zM142 677l66 87
l159 -137l-54 -72z" />
    <glyph glyph-name="eacute" unicode="&#xe9;" horiz-adv-x="553" 
d="M278 495c158 0 244 -118 244 -252c0 -11 0 -23 -2 -36h-356c0 -66 56 -123 124 -123c44 0 75 19 96 50h131c-31 -81 -102 -151 -228 -151c-143 0 -255 104 -255 260c0 137 90 252 246 252zM277 401c-66 0 -107 -49 -112 -102h224c-6 56 -49 102 -112 102zM184 627
l159 137l66 -87l-170 -122z" />
    <glyph glyph-name="ecircumflex" unicode="&#xea;" horiz-adv-x="553" 
d="M278 495c158 0 244 -118 244 -252c0 -11 0 -23 -2 -36h-356c0 -66 56 -123 124 -123c44 0 75 19 96 50h131c-31 -81 -102 -151 -228 -151c-143 0 -255 104 -255 260c0 137 90 252 246 252zM277 401c-66 0 -107 -49 -112 -102h224c-6 56 -49 102 -112 102zM276 747
l164 -127l-48 -68l-116 77l-116 -77l-49 68z" />
    <glyph glyph-name="edieresis" unicode="&#xeb;" horiz-adv-x="553" 
d="M278 495c158 0 244 -118 244 -252c0 -11 0 -23 -2 -36h-356c0 -66 56 -123 124 -123c44 0 75 19 96 50h131c-31 -81 -102 -151 -228 -151c-143 0 -255 104 -255 260c0 137 90 252 246 252zM277 401c-66 0 -107 -49 -112 -102h224c-6 56 -49 102 -112 102zM127 591v112
h114v-112h-114zM311 591v112h114v-112h-114z" />
    <glyph glyph-name="igrave" unicode="&#xec;" horiz-adv-x="259" 
d="M64 0v479h135v-479h-135zM-2 677l66 87l159 -137l-54 -72z" />
    <glyph glyph-name="iacute" unicode="&#xed;" horiz-adv-x="259" 
d="M64 0v479h135v-479h-135zM40 627l159 137l66 -87l-170 -122z" />
    <glyph glyph-name="icircumflex" unicode="&#xee;" horiz-adv-x="259" 
d="M64 0v479h135v-479h-135zM132 747l164 -127l-48 -68l-116 77l-116 -77l-49 68z" />
    <glyph glyph-name="idieresis" unicode="&#xef;" horiz-adv-x="259" 
d="M64 0v479h135v-479h-135zM-17 591v112h114v-112h-114zM167 591v112h114v-112h-114z" />
    <glyph glyph-name="eth" unicode="&#xf0;" horiz-adv-x="571" 
d="M176 508l-45 78l81 47c-33 32 -67 61 -100 87h149c15 -9 33 -22 52 -37l83 50l45 -79l-59 -35c97 -102 160 -213 160 -368c0 -151 -106 -268 -256 -268c-147 0 -256 112 -256 257c0 148 113 251 259 251c20 0 42 -5 57 -14l2 3c-18 26 -50 64 -73 86zM165 239
c0 -79 53 -136 121 -136c73 0 120 59 120 136c0 74 -44 136 -120 136c-75 0 -121 -58 -121 -136z" />
    <glyph glyph-name="ntilde" unicode="&#xf1;" horiz-adv-x="581" 
d="M64 0v479h133v-60h4c33 53 87 75 142 75c108 0 183 -72 183 -219v-275h-135v266c0 72 -34 109 -90 109c-59 0 -102 -42 -102 -122v-253h-135zM200 587h-79c3 82 39 138 107 138c28 0 49 -9 75 -28c27 -20 44 -27 59 -27s29 8 30 45h79c-4 -93 -43 -137 -110 -137
c-30 0 -54 9 -79 28c-28 20 -40 27 -53 27c-16 0 -28 -15 -29 -46z" />
    <glyph glyph-name="ograve" unicode="&#xf2;" horiz-adv-x="571" 
d="M32 240c0 148 110 255 256 255c151 0 256 -110 256 -255c0 -141 -106 -257 -256 -257c-147 0 -256 112 -256 257zM168 239c0 -79 52 -136 120 -136c73 0 119 59 119 136c0 74 -43 136 -119 136c-75 0 -120 -58 -120 -136zM164 677l66 87l159 -137l-54 -72z" />
    <glyph glyph-name="oacute" unicode="&#xf3;" horiz-adv-x="571" 
d="M32 240c0 148 110 255 256 255c151 0 256 -110 256 -255c0 -141 -106 -257 -256 -257c-147 0 -256 112 -256 257zM168 239c0 -79 52 -136 120 -136c73 0 119 59 119 136c0 74 -43 136 -119 136c-75 0 -120 -58 -120 -136zM185 627l159 137l66 -87l-170 -122z" />
    <glyph glyph-name="ocircumflex" unicode="&#xf4;" horiz-adv-x="571" 
d="M32 240c0 148 110 255 256 255c151 0 256 -110 256 -255c0 -141 -106 -257 -256 -257c-147 0 -256 112 -256 257zM168 239c0 -79 52 -136 120 -136c73 0 119 59 119 136c0 74 -43 136 -119 136c-75 0 -120 -58 -120 -136zM288 747l164 -127l-48 -68l-116 77l-116 -77
l-49 68z" />
    <glyph glyph-name="otilde" unicode="&#xf5;" horiz-adv-x="571" 
d="M32 240c0 148 110 255 256 255c151 0 256 -110 256 -255c0 -141 -106 -257 -256 -257c-147 0 -256 112 -256 257zM168 239c0 -79 52 -136 120 -136c73 0 119 59 119 136c0 74 -43 136 -119 136c-75 0 -120 -58 -120 -136zM191 587h-79c3 82 39 138 107 138
c28 0 49 -9 75 -28c27 -20 44 -27 59 -27s29 8 30 45h79c-4 -93 -43 -137 -110 -137c-30 0 -54 9 -79 28c-28 20 -40 27 -53 27c-16 0 -28 -15 -29 -46z" />
    <glyph glyph-name="odieresis" unicode="&#xf6;" horiz-adv-x="571" 
d="M32 240c0 148 110 255 256 255c151 0 256 -110 256 -255c0 -141 -106 -257 -256 -257c-147 0 -256 112 -256 257zM168 239c0 -79 52 -136 120 -136c73 0 119 59 119 136c0 74 -43 136 -119 136c-75 0 -120 -58 -120 -136zM139 591v112h114v-112h-114zM323 591v112h114
v-112h-114z" />
    <glyph glyph-name="divide" unicode="&#xf7;" horiz-adv-x="672" 
d="M594 213h-517v102h517v-102zM409 456c0 -45 -35 -73 -72 -73c-40 0 -73 34 -73 71c0 41 30 74 73 74c42 0 72 -32 72 -72zM409 73c0 -44 -35 -75 -72 -75c-40 0 -73 35 -73 74c0 38 30 72 73 72c42 0 72 -32 72 -71z" />
    <glyph glyph-name="oslash" unicode="&#xf8;" horiz-adv-x="571" 
d="M30 240c0 148 110 255 256 255c50 0 96 -13 134 -35l63 71l66 -59l-62 -70c35 -44 55 -100 55 -162c0 -141 -106 -257 -256 -257c-50 0 -96 13 -134 35l-62 -70l-68 58l63 71c-35 44 -55 100 -55 163zM159 239c0 -26 7 -51 18 -72l173 197c-18 11 -40 17 -64 17
c-79 0 -127 -60 -127 -142zM412 239c0 26 -6 51 -17 72l-173 -196c19 -12 40 -18 64 -18c77 0 126 61 126 142z" />
    <glyph glyph-name="ugrave" unicode="&#xf9;" horiz-adv-x="570" 
d="M510 479v-479h-134v60h-3c-39 -57 -88 -76 -140 -76c-78 0 -174 48 -174 211v284h135v-267c0 -70 33 -108 85 -108c59 0 96 41 96 121v254h135zM150 677l66 87l159 -137l-54 -72z" />
    <glyph glyph-name="uacute" unicode="&#xfa;" horiz-adv-x="570" 
d="M510 479v-479h-134v60h-3c-39 -57 -88 -76 -140 -76c-78 0 -174 48 -174 211v284h135v-267c0 -70 33 -108 85 -108c59 0 96 41 96 121v254h135zM192 627l159 137l66 -87l-170 -122z" />
    <glyph glyph-name="ucircumflex" unicode="&#xfb;" horiz-adv-x="570" 
d="M510 479v-479h-134v60h-3c-39 -57 -88 -76 -140 -76c-78 0 -174 48 -174 211v284h135v-267c0 -70 33 -108 85 -108c59 0 96 41 96 121v254h135zM284 747l164 -127l-48 -68l-116 77l-116 -77l-49 68z" />
    <glyph glyph-name="udieresis" unicode="&#xfc;" horiz-adv-x="570" 
d="M510 479v-479h-134v60h-3c-39 -57 -88 -76 -140 -76c-78 0 -174 48 -174 211v284h135v-267c0 -70 33 -108 85 -108c59 0 96 41 96 121v254h135zM135 591v112h114v-112h-114zM319 591v112h114v-112h-114z" />
    <glyph glyph-name="yacute" unicode="&#xfd;" horiz-adv-x="467" 
d="M476 479l-262 -714h-128l88 239l-174 475h140l69 -208c11 -35 25 -79 32 -118h4c9 46 18 76 31 118l67 208h133zM151 627l159 137l66 -87l-170 -122z" />
    <glyph glyph-name="thorn" unicode="&#xfe;" horiz-adv-x="602" 
d="M63 -235v955h132v-298h4c29 36 73 70 153 70c100 0 219 -84 219 -255c0 -153 -107 -253 -228 -253c-69 0 -116 31 -144 69h-4v-288h-132zM433 237c0 72 -39 138 -123 138c-66 0 -120 -55 -120 -138c0 -82 55 -138 121 -138c82 0 122 70 122 138z" />
    <glyph glyph-name="ydieresis" unicode="&#xff;" horiz-adv-x="467" 
d="M476 479l-262 -714h-128l88 239l-174 475h140l69 -208c11 -35 25 -79 32 -118h4c9 46 18 76 31 118l67 208h133zM94 591v112h114v-112h-114zM278 591v112h114v-112h-114z" />
    <glyph glyph-name="Amacron" unicode="&#x100;" horiz-adv-x="664" 
d="M7 0l265 682h134l251 -682h-147l-53 155h-252l-54 -155h-144zM296 419l-57 -162h183l-56 163c-13 38 -23 70 -32 104h-5c-9 -35 -20 -70 -33 -105zM492 773h-293v90h293v-90z" />
    <glyph glyph-name="amacron" unicode="&#x101;" horiz-adv-x="602" 
d="M538 479v-479h-130v60h-4c-31 -41 -78 -76 -156 -76c-93 0 -218 75 -218 256c0 154 106 252 228 252c75 0 120 -37 146 -75h4v62h130zM167 239c0 -70 39 -138 123 -138c64 0 120 56 120 137c0 84 -52 139 -119 139c-84 0 -124 -69 -124 -138zM435 593h-293v90h293v-90z
" />
    <glyph glyph-name="Abreve" unicode="&#x102;" horiz-adv-x="664" 
d="M7 0l265 682h134l251 -682h-147l-53 155h-252l-54 -155h-144zM296 419l-57 -162h183l-56 163c-13 38 -23 70 -32 104h-5c-9 -35 -20 -70 -33 -105zM415 891h90c-5 -90 -76 -144 -167 -144c-105 0 -163 59 -167 144h89c3 -32 32 -53 78 -53c48 0 75 22 77 53z" />
    <glyph glyph-name="abreve" unicode="&#x103;" horiz-adv-x="602" 
d="M538 479v-479h-130v60h-4c-31 -41 -78 -76 -156 -76c-93 0 -218 75 -218 256c0 154 106 252 228 252c75 0 120 -37 146 -75h4v62h130zM167 239c0 -70 39 -138 123 -138c64 0 120 56 120 137c0 84 -52 139 -119 139c-84 0 -124 -69 -124 -138zM360 726h90
c-5 -99 -77 -159 -167 -159c-98 0 -162 60 -167 159h89c4 -39 32 -65 78 -65c45 0 75 27 77 65z" />
    <glyph glyph-name="Aogonek" unicode="&#x104;" horiz-adv-x="664" 
d="M651 -129v-92c-14 -4 -43 -7 -63 -7c-84 0 -121 53 -121 113c0 49 32 92 76 115h-33l-53 155h-252l-54 -155h-144l265 682h134l251 -682h-7c-41 0 -83 -39 -83 -90c0 -31 21 -43 48 -43c11 0 25 1 36 4zM296 419l-57 -162h183l-51 148c-16 49 -27 83 -37 119h-5
c-9 -35 -20 -70 -33 -105z" />
    <glyph glyph-name="aogonek" unicode="&#x105;" horiz-adv-x="602" 
d="M546 -129v-92c-15 -4 -44 -7 -64 -7c-84 0 -120 53 -120 113c0 45 30 91 75 115h-29v60h-4c-27 -35 -67 -66 -125 -73c-14 -2 -28 -3 -45 -2c-87 6 -204 80 -204 255c0 149 99 244 212 251c16 1 31 0 45 -2c58 -7 94 -40 117 -72h4v62h130v-479c-38 0 -76 -40 -76 -90
c0 -31 20 -43 47 -43c12 0 25 1 37 4zM167 239c0 -70 39 -138 123 -138c64 0 120 56 120 137c0 84 -52 139 -119 139c-84 0 -124 -69 -124 -138z" />
    <glyph glyph-name="Cacute" unicode="&#x106;" horiz-adv-x="765" 
d="M387 704c190 0 301 -126 325 -240h-154c-18 62 -80 118 -172 118c-121 0 -207 -98 -207 -240c0 -131 84 -242 209 -242c100 0 156 63 177 129h159c-43 -138 -153 -251 -340 -251c-211 0 -351 157 -351 365s149 361 354 361zM488 910l45 -100l-196 -78l-37 83z" />
    <glyph glyph-name="cacute" unicode="&#x107;" horiz-adv-x="549" 
d="M285 495c137 0 211 -95 226 -175h-134c-12 37 -45 61 -93 61c-73 0 -117 -57 -117 -141c0 -79 44 -142 121 -142c52 0 82 31 95 66h137c-27 -98 -100 -181 -234 -181c-142 0 -256 101 -256 258c0 140 97 254 255 254zM183 627l159 137l66 -87l-170 -122z" />
    <glyph glyph-name="Ccircumflex" unicode="&#x108;" horiz-adv-x="765" 
d="M387 704c190 0 301 -126 325 -240h-154c-18 62 -80 118 -172 118c-121 0 -207 -98 -207 -240c0 -131 84 -242 209 -242c100 0 156 63 177 129h159c-43 -138 -153 -251 -340 -251c-211 0 -351 157 -351 365s149 361 354 361zM388 906l165 -103l-35 -71l-130 60l-131 -60
l-35 71z" />
    <glyph glyph-name="ccircumflex" unicode="&#x109;" horiz-adv-x="549" 
d="M285 495c137 0 211 -95 226 -175h-134c-12 37 -45 61 -93 61c-73 0 -117 -57 -117 -141c0 -79 44 -142 121 -142c52 0 82 31 95 66h137c-27 -98 -100 -181 -234 -181c-142 0 -256 101 -256 258c0 140 97 254 255 254zM283 747l164 -127l-48 -68l-116 77l-116 -77l-49 68z
" />
    <glyph glyph-name="Cdotaccent" unicode="&#x10a;" horiz-adv-x="765" 
d="M387 704c190 0 301 -126 325 -240h-154c-18 62 -80 118 -172 118c-121 0 -207 -98 -207 -240c0 -131 84 -242 209 -242c100 0 156 63 177 129h159c-43 -138 -153 -251 -340 -251c-211 0 -351 157 -351 365s149 361 354 361zM328 772v114h119v-114h-119z" />
    <glyph glyph-name="cdotaccent" unicode="&#x10b;" horiz-adv-x="549" 
d="M285 495c137 0 211 -95 226 -175h-134c-12 37 -45 61 -93 61c-73 0 -117 -57 -117 -141c0 -79 44 -142 121 -142c52 0 82 31 95 66h137c-27 -98 -100 -181 -234 -181c-142 0 -256 101 -256 258c0 140 97 254 255 254zM223 588v114h119v-114h-119z" />
    <glyph glyph-name="Ccaron" unicode="&#x10c;" horiz-adv-x="765" 
d="M387 704c190 0 301 -126 325 -240h-154c-18 62 -80 118 -172 118c-121 0 -207 -98 -207 -240c0 -131 84 -242 209 -242c100 0 156 63 177 129h159c-43 -138 -153 -251 -340 -251c-211 0 -351 157 -351 365s149 361 354 361zM390 732l-166 103l35 71l131 -60l131 60
l34 -71z" />
    <glyph glyph-name="ccaron" unicode="&#x10d;" horiz-adv-x="549" 
d="M285 495c137 0 211 -95 226 -175h-134c-12 37 -45 61 -93 61c-73 0 -117 -57 -117 -141c0 -79 44 -142 121 -142c52 0 82 31 95 66h137c-27 -98 -100 -181 -234 -181c-142 0 -256 101 -256 258c0 140 97 254 255 254zM283 552l-165 127l49 68l116 -77l116 77l48 -68z" />
    <glyph glyph-name="Dcaron" unicode="&#x10e;" horiz-adv-x="710" 
d="M68 682h234c246 0 375 -155 375 -341c0 -185 -137 -341 -377 -341h-232v682zM211 126h86c161 0 234 97 234 215c0 127 -79 215 -234 215h-86v-430zM307 732l-166 103l35 71l131 -60l131 60l34 -71z" />
    <glyph glyph-name="dcaron" unicode="&#x10f;" horiz-adv-x="723" 
d="M538 720v-720h-130v52h-4c-31 -34 -82 -69 -157 -69c-92 0 -217 76 -217 257c0 153 106 255 227 255c72 0 114 -30 145 -71h4v296h132zM167 239c0 -70 40 -139 123 -139c64 0 120 57 120 138c0 84 -52 142 -119 142c-83 0 -124 -72 -124 -141zM603 624v96h116v-60
c0 -46 -12 -93 -36 -127h-63c16 25 27 58 27 91h-44z" />
    <glyph glyph-name="Dcroat" unicode="&#x110;" horiz-adv-x="735" 
d="M15 297v107h78v278h234c246 0 375 -155 375 -341c0 -185 -137 -341 -377 -341h-232v297h-78zM236 123h86c161 0 234 100 234 218c0 127 -79 218 -234 218h-86v-155h150v-107h-150v-174z" />
    <glyph glyph-name="dcroat" unicode="&#x111;" horiz-adv-x="602" 
d="M602 557h-64v-557h-130v52h-4c-31 -34 -82 -69 -157 -69c-92 0 -217 76 -217 257c0 153 106 255 227 255c72 0 114 -30 145 -71h4v133h-158v90h158v73h132v-73h64v-90zM167 239c0 -70 40 -139 123 -139c64 0 120 57 120 138c0 84 -52 142 -119 142
c-83 0 -124 -72 -124 -141z" />
    <glyph glyph-name="Emacron" unicode="&#x112;" horiz-adv-x="544" 
d="M475 682v-124h-264v-147h255v-118h-255v-169h275v-124h-418v682h407zM421 773h-293v90h293v-90z" />
    <glyph glyph-name="emacron" unicode="&#x113;" horiz-adv-x="553" 
d="M276 495c158 0 244 -118 244 -252c0 -11 0 -23 -2 -36h-356c0 -66 56 -123 124 -123c44 0 75 19 96 50h131c-31 -81 -102 -151 -228 -151c-143 0 -255 104 -255 260c0 137 90 252 246 252zM275 401c-66 0 -107 -49 -112 -102h224c-6 56 -49 102 -112 102zM420 593h-293
v90h293v-90z" />
    <glyph glyph-name="Ebreve" unicode="&#x114;" horiz-adv-x="544" 
d="M475 682v-124h-264v-147h255v-118h-255v-169h275v-124h-418v682h407zM344 891h90c-5 -90 -76 -144 -167 -144c-105 0 -163 59 -167 144h89c3 -32 32 -53 78 -53c48 0 75 22 77 53z" />
    <glyph glyph-name="ebreve" unicode="&#x115;" horiz-adv-x="553" 
d="M276 495c158 0 244 -118 244 -252c0 -11 0 -23 -2 -36h-356c0 -66 56 -123 124 -123c44 0 75 19 96 50h131c-31 -81 -102 -151 -228 -151c-143 0 -255 104 -255 260c0 137 90 252 246 252zM275 401c-66 0 -107 -49 -112 -102h224c-6 56 -49 102 -112 102zM352 726h90
c-5 -99 -77 -159 -167 -159c-98 0 -162 60 -167 159h89c4 -39 32 -65 78 -65c45 0 75 27 77 65z" />
    <glyph glyph-name="Edotaccent" unicode="&#x116;" horiz-adv-x="544" 
d="M475 682v-124h-264v-147h255v-118h-255v-169h275v-124h-418v682h407zM210 772v114h119v-114h-119z" />
    <glyph glyph-name="edotaccent" unicode="&#x117;" horiz-adv-x="553" 
d="M276 495c158 0 244 -118 244 -252c0 -11 0 -23 -2 -36h-356c0 -66 56 -123 124 -123c44 0 75 19 96 50h131c-31 -81 -102 -151 -228 -151c-143 0 -255 104 -255 260c0 137 90 252 246 252zM275 401c-66 0 -107 -49 -112 -102h224c-6 56 -49 102 -112 102zM215 588v114
h119v-114h-119z" />
    <glyph glyph-name="Eogonek" unicode="&#x118;" horiz-adv-x="544" 
d="M466 -129v-92c-15 -4 -44 -7 -64 -7c-84 0 -120 53 -120 113c0 45 30 91 75 115h-289v682h407v-124h-264v-147h255v-118h-255v-169h275v-124h-20c-39 0 -84 -37 -84 -90c0 -31 20 -43 47 -43c11 0 25 1 37 4z" />
    <glyph glyph-name="eogonek" unicode="&#x119;" horiz-adv-x="553" 
d="M430 -129v-92c-15 -4 -43 -7 -63 -7c-85 0 -121 53 -121 113c0 37 19 74 50 98h-11c-143 0 -255 104 -255 260c0 137 90 252 246 252c158 0 244 -118 244 -252c0 -11 0 -23 -2 -36h-356c0 -66 56 -123 124 -123c44 0 75 19 96 50h131c-16 -41 -44 -83 -98 -121
s-69 -71 -69 -103c0 -31 21 -43 48 -43c11 0 24 1 36 4zM275 401c-66 0 -107 -49 -112 -102h224c-6 56 -49 102 -112 102z" />
    <glyph glyph-name="Ecaron" unicode="&#x11a;" horiz-adv-x="544" 
d="M475 682v-124h-264v-147h255v-118h-255v-169h275v-124h-418v682h407zM270 732l-166 103l35 71l131 -60l131 60l34 -71z" />
    <glyph glyph-name="ecaron" unicode="&#x11b;" horiz-adv-x="553" 
d="M276 495c158 0 244 -118 244 -252c0 -11 0 -23 -2 -36h-356c0 -66 56 -123 124 -123c44 0 75 19 96 50h131c-31 -81 -102 -151 -228 -151c-143 0 -255 104 -255 260c0 137 90 252 246 252zM275 401c-66 0 -107 -49 -112 -102h224c-6 56 -49 102 -112 102zM275 552
l-165 127l49 68l116 -77l116 77l48 -68z" />
    <glyph glyph-name="Gcircumflex" unicode="&#x11c;" horiz-adv-x="770" 
d="M353 380h384v-33c0 -176 -107 -367 -349 -367c-209 0 -355 159 -355 357c0 211 151 365 355 365c163 0 282 -81 328 -212h-155c-30 57 -92 90 -170 90c-117 0 -213 -90 -213 -239s92 -239 221 -239c101 0 175 72 186 160h-232v118zM392 906l165 -103l-35 -71l-130 60
l-131 -60l-35 71z" />
    <glyph glyph-name="gcircumflex" unicode="&#x11d;" horiz-adv-x="602" 
d="M539 479v-464c0 -178 -80 -272 -257 -272c-134 0 -223 73 -241 192h135c10 -46 44 -82 114 -82c81 0 123 51 123 144v61h-3c-32 -38 -79 -69 -153 -69c-124 0 -226 97 -226 252c0 144 99 253 232 253c76 0 121 -39 145 -73h5v58h126zM168 242c0 -66 38 -135 122 -135
c67 0 122 55 122 134c0 82 -53 136 -121 136c-81 0 -123 -68 -123 -135zM287 747l164 -127l-48 -68l-116 77l-116 -77l-49 68z" />
    <glyph glyph-name="Gbreve" unicode="&#x11e;" horiz-adv-x="770" 
d="M353 380h384v-33c0 -176 -107 -367 -349 -367c-209 0 -355 159 -355 357c0 211 151 365 355 365c163 0 282 -81 328 -212h-155c-30 57 -92 90 -170 90c-117 0 -213 -90 -213 -239s92 -239 221 -239c101 0 175 72 186 160h-232v118zM467 891h90c-5 -90 -76 -144 -167 -144
c-105 0 -163 59 -167 144h89c3 -32 32 -53 78 -53c48 0 75 22 77 53z" />
    <glyph glyph-name="gbreve" unicode="&#x11f;" horiz-adv-x="602" 
d="M539 479v-464c0 -178 -80 -272 -257 -272c-134 0 -223 73 -241 192h135c10 -46 44 -82 114 -82c81 0 123 51 123 144v61h-3c-32 -38 -79 -69 -153 -69c-124 0 -226 97 -226 252c0 144 99 253 232 253c76 0 121 -39 145 -73h5v58h126zM168 242c0 -66 38 -135 122 -135
c67 0 122 55 122 134c0 82 -53 136 -121 136c-81 0 -123 -68 -123 -135zM358 726h90c-5 -99 -77 -159 -167 -159c-98 0 -162 60 -167 159h89c4 -39 32 -65 78 -65c45 0 75 27 77 65z" />
    <glyph glyph-name="Gdotaccent" unicode="&#x120;" horiz-adv-x="770" 
d="M353 380h384v-33c0 -176 -107 -367 -349 -367c-209 0 -355 159 -355 357c0 211 151 365 355 365c163 0 282 -81 328 -212h-155c-30 57 -92 90 -170 90c-117 0 -213 -90 -213 -239s92 -239 221 -239c101 0 175 72 186 160h-232v118zM330 772v114h119v-114h-119z" />
    <glyph glyph-name="gdotaccent" unicode="&#x121;" horiz-adv-x="602" 
d="M539 479v-464c0 -178 -80 -272 -257 -272c-134 0 -223 73 -241 192h135c10 -46 44 -82 114 -82c81 0 123 51 123 144v61h-3c-32 -38 -79 -69 -153 -69c-124 0 -226 97 -226 252c0 144 99 253 232 253c76 0 121 -39 145 -73h5v58h126zM168 242c0 -66 38 -135 122 -135
c67 0 122 55 122 134c0 82 -53 136 -121 136c-81 0 -123 -68 -123 -135zM221 588v114h119v-114h-119z" />
    <glyph glyph-name="Gcommaaccent" unicode="&#x122;" horiz-adv-x="770" 
d="M353 380h384v-33c0 -176 -107 -367 -349 -367c-209 0 -355 159 -355 357c0 211 151 365 355 365c163 0 282 -81 328 -212h-155c-30 57 -92 90 -170 90c-117 0 -213 -90 -213 -239s92 -239 221 -239c101 0 175 72 186 160h-232v118zM329 -154v96h116v-60
c0 -46 -12 -93 -36 -127h-63c16 25 27 58 27 91h-44z" />
    <glyph glyph-name="gcommaaccent" unicode="&#x123;" horiz-adv-x="602" 
d="M539 479v-464c0 -178 -80 -272 -257 -272c-134 0 -223 73 -241 192h135c10 -46 44 -82 114 -82c81 0 123 51 123 144v61h-3c-32 -38 -79 -69 -153 -69c-124 0 -226 97 -226 252c0 144 99 253 232 253c76 0 121 -39 145 -73h5v58h126zM168 242c0 -66 38 -135 122 -135
c67 0 122 55 122 134c0 82 -53 136 -121 136c-81 0 -123 -68 -123 -135zM346 647v-96h-116v60c0 46 12 93 36 127h63c-16 -25 -27 -58 -27 -91h44z" />
    <glyph glyph-name="Hcircumflex" unicode="&#x124;" horiz-adv-x="696" 
d="M484 0v290h-273v-290h-143v682h143v-268h273v268h143v-682h-143zM348 906l165 -103l-35 -71l-130 60l-131 -60l-35 71z" />
    <glyph glyph-name="hcircumflex" unicode="&#x125;" horiz-adv-x="579" 
d="M62 0v720h135v-301h4c33 53 87 75 141 75c107 0 182 -71 182 -219v-275h-135v267c0 71 -34 108 -90 108c-59 0 -102 -41 -102 -122v-253h-135zM132 962l164 -127l-48 -68l-116 77l-116 -77l-49 68z" />
    <glyph glyph-name="Hbar" unicode="&#x126;" horiz-adv-x="696" 
d="M689 511h-62v-511h-142v284h-274v-284h-143v511h-61v90h61v81h143v-81h274v81h142v-81h62v-90zM211 402h274v109h-274v-109z" />
    <glyph glyph-name="hbar" unicode="&#x127;" horiz-adv-x="579" 
d="M342 557h-145v-138h4c33 53 87 75 141 75c107 0 182 -71 182 -219v-275h-135v267c0 71 -34 108 -90 108c-59 0 -102 -41 -102 -122v-253h-135v557h-62v90h62v73h135v-73h145v-90z" />
    <glyph glyph-name="Itilde" unicode="&#x128;" horiz-adv-x="278" 
d="M68 0v682h143v-682h-143zM45 767h-79c3 82 39 138 107 138c28 0 49 -9 75 -28c27 -20 44 -27 59 -27s29 8 30 45h79c-4 -93 -43 -137 -110 -137c-30 0 -54 9 -79 28c-28 20 -40 27 -53 27c-16 0 -28 -15 -29 -46z" />
    <glyph glyph-name="itilde" unicode="&#x129;" horiz-adv-x="259" 
d="M62 0v479h135v-479h-135zM34 587h-79c3 82 39 138 107 138c28 0 49 -9 75 -28c27 -20 44 -27 59 -27s29 8 30 45h79c-4 -93 -43 -137 -110 -137c-30 0 -54 9 -79 28c-28 20 -40 27 -53 27c-16 0 -28 -15 -29 -46z" />
    <glyph glyph-name="Imacron" unicode="&#x12a;" horiz-adv-x="278" 
d="M68 0v682h143v-682h-143zM288 773h-293v90h293v-90z" />
    <glyph glyph-name="imacron" unicode="&#x12b;" horiz-adv-x="259" 
d="M62 0v479h135v-479h-135zM276 593h-293v90h293v-90z" />
    <glyph glyph-name="Ibreve" unicode="&#x12c;" horiz-adv-x="278" 
d="M68 0v682h143v-682h-143zM216 891h90c-5 -90 -76 -144 -167 -144c-105 0 -163 59 -167 144h89c3 -32 32 -53 78 -53c48 0 75 22 77 53z" />
    <glyph glyph-name="ibreve" unicode="&#x12d;" horiz-adv-x="259" 
d="M62 0v479h135v-479h-135zM207 726h90c-5 -99 -77 -159 -167 -159c-98 0 -162 60 -167 159h89c4 -39 32 -65 78 -65c45 0 75 27 77 65z" />
    <glyph glyph-name="Iogonek" unicode="&#x12e;" horiz-adv-x="278" 
d="M68 0v682h143v-682c-33 -5 -73 -42 -73 -90c0 -31 20 -43 47 -43c11 0 25 1 37 4v-92c-15 -4 -44 -7 -64 -7c-84 0 -121 53 -121 113c0 45 31 91 76 115h-45z" />
    <glyph glyph-name="iogonek" unicode="&#x12f;" horiz-adv-x="259" 
d="M62 0v479h135v-479c-36 -5 -75 -39 -75 -90c0 -31 21 -43 48 -43c11 0 25 1 36 4v-92c-14 -4 -43 -7 -63 -7c-84 0 -121 53 -121 113c0 45 31 91 76 115h-36zM59 579v129h142v-129h-142z" />
    <glyph glyph-name="Idotaccent" unicode="&#x130;" horiz-adv-x="278" 
d="M68 0v682h143v-682h-143zM78 772v114h119v-114h-119z" />
    <glyph glyph-name="dotlessi" unicode="&#x131;" horiz-adv-x="259" 
d="M62 0v479h135v-479h-135z" />
    <glyph glyph-name="Jcircumflex" unicode="&#x134;" horiz-adv-x="386" 
d="M181 201v481h144v-474c0 -168 -71 -230 -210 -230c-36 0 -84 10 -107 20v120c20 -9 62 -18 87 -18c60 0 86 28 86 101zM251 906l165 -103l-35 -71l-130 60l-131 -60l-35 71z" />
    <glyph glyph-name="jcircumflex" unicode="&#x135;" horiz-adv-x="259" 
d="M197 479v-519c0 -149 -71 -211 -184 -211c-40 0 -71 6 -94 14v114c12 -4 41 -10 67 -10c53 0 76 31 76 97v515h135zM130 747l165 -127l-49 -69l-116 77l-116 -77l-48 69z" />
    <glyph glyph-name="Kcommaaccent" unicode="&#x136;" horiz-adv-x="651" 
d="M490 0l-237 292c-9 -10 -33 -34 -42 -44v-248h-143v682h143v-261l248 261h179l-287 -295l320 -387h-181zM280 -154v96h116v-60c0 -46 -12 -93 -36 -127h-63c16 25 27 58 27 91h-44z" />
    <glyph glyph-name="kcommaaccent" unicode="&#x137;" horiz-adv-x="536" 
d="M379 0l-151 197l-31 -30v-167h-135v720h135v-403l152 162h164l-192 -197l221 -282h-163zM221 -154v96h116v-60c0 -46 -12 -93 -36 -127h-63c16 25 27 58 27 91h-44z" />
    <glyph glyph-name="kgreenlandic" unicode="&#x138;" horiz-adv-x="536" 
d="M379 0l-151 197l-31 -30v-167h-135v479h135v-162l152 162h164l-192 -197l221 -282h-163z" />
    <glyph glyph-name="Lacute" unicode="&#x139;" horiz-adv-x="494" 
d="M68 0v682h143v-558h275v-124h-418zM226 910l45 -100l-196 -78l-37 83z" />
    <glyph glyph-name="lacute" unicode="&#x13a;" horiz-adv-x="259" 
d="M62 0v720h135v-720h-135zM29 842l159 137l66 -87l-170 -122z" />
    <glyph glyph-name="Lcommaaccent" unicode="&#x13b;" horiz-adv-x="494" 
d="M68 0v682h143v-558h275v-124h-418zM210 -154v96h116v-60c0 -46 -12 -93 -36 -127h-63c16 25 27 58 27 91h-44z" />
    <glyph glyph-name="lcommaaccent" unicode="&#x13c;" horiz-adv-x="259" 
d="M62 0v720h135v-720h-135zM70 -154v96h116v-60c0 -46 -12 -93 -36 -127h-63c16 25 27 58 27 91h-44z" />
    <glyph glyph-name="Lcaron" unicode="&#x13d;" horiz-adv-x="494" 
d="M68 0v682h143v-558h275v-124h-418zM324 586v96h116v-60c0 -46 -12 -93 -36 -127h-63c16 25 27 58 27 91h-44z" />
    <glyph glyph-name="lcaron" unicode="&#x13e;" horiz-adv-x="381" 
d="M62 0v720h135v-720h-135zM261 624v96h116v-60c0 -46 -12 -93 -36 -127h-63c16 25 27 58 27 91h-44z" />
    <glyph glyph-name="Ldot" unicode="&#x13f;" horiz-adv-x="525" 
d="M68 0v682h143v-558h275v-124h-418zM342 307v114h119v-114h-119z" />
    <glyph glyph-name="ldot" unicode="&#x140;" horiz-adv-x="401" 
d="M62 0v720h135v-720h-135zM270 313v114h119v-114h-119z" />
    <glyph glyph-name="Lslash" unicode="&#x141;" horiz-adv-x="501" 
d="M9 159v113l66 45v365h143v-277l132 91v-114l-132 -90v-168h275v-124h-418v204z" />
    <glyph glyph-name="lslash" unicode="&#x142;" horiz-adv-x="281" 
d="M2 217v113l71 55v335h135v-239l71 56v-113l-71 -55v-369h-135v272z" />
    <glyph glyph-name="Nacute" unicode="&#x143;" horiz-adv-x="678" 
d="M191 468h-4c1 -32 4 -98 4 -129v-339h-123v682h123l190 -293c63 -96 87 -144 106 -180h3c-1 34 -3 93 -3 123v350h123v-682h-123l-174 267c-78 122 -102 166 -122 201zM427 910l45 -100l-196 -78l-37 83z" />
    <glyph glyph-name="nacute" unicode="&#x144;" horiz-adv-x="581" 
d="M62 0v479h133v-60h4c33 53 87 75 142 75c108 0 183 -72 183 -219v-275h-135v266c0 72 -34 109 -90 109c-59 0 -102 -42 -102 -122v-253h-135zM199 627l159 137l66 -87l-170 -122z" />
    <glyph glyph-name="Ncommaaccent" unicode="&#x145;" horiz-adv-x="678" 
d="M191 468h-4c1 -32 4 -98 4 -129v-339h-123v682h123l190 -293c63 -96 87 -144 106 -180h3c-1 34 -3 93 -3 123v350h123v-682h-123l-174 267c-78 122 -102 166 -122 201zM276 -154v96h116v-60c0 -46 -12 -93 -36 -127h-63c16 25 27 58 27 91h-44z" />
    <glyph glyph-name="ncommaaccent" unicode="&#x146;" horiz-adv-x="581" 
d="M62 0v479h133v-60h4c33 53 87 75 142 75c108 0 183 -72 183 -219v-275h-135v266c0 72 -34 109 -90 109c-59 0 -102 -42 -102 -122v-253h-135zM232 -154v96h116v-60c0 -46 -12 -93 -36 -127h-63c16 25 27 58 27 91h-44z" />
    <glyph glyph-name="Ncaron" unicode="&#x147;" horiz-adv-x="678" 
d="M191 468h-4c1 -32 4 -98 4 -129v-339h-123v682h123l190 -293c63 -96 87 -144 106 -180h3c-1 34 -3 93 -3 123v350h123v-682h-123l-174 267c-78 122 -102 166 -122 201zM338 732l-166 103l35 71l131 -60l131 60l34 -71z" />
    <glyph glyph-name="ncaron" unicode="&#x148;" horiz-adv-x="581" 
d="M62 0v479h133v-60h4c33 53 87 75 142 75c108 0 183 -72 183 -219v-275h-135v266c0 72 -34 109 -90 109c-59 0 -102 -42 -102 -122v-253h-135zM295 552l-165 127l49 68l116 -77l116 77l48 -68z" />
    <glyph glyph-name="Eng" unicode="&#x14a;" horiz-adv-x="678" 
d="M191 468h-4c1 -32 4 -98 4 -129v-339h-123v682h123l190 -293c63 -96 87 -144 106 -180h3c-1 34 -3 93 -3 123v350h123v-692c0 -149 -71 -211 -183 -211c-41 0 -70 6 -92 14v108c11 -4 45 -10 70 -10c57 0 82 34 82 87v22l-174 267c-78 122 -102 166 -122 201z" />
    <glyph glyph-name="eng" unicode="&#x14b;" horiz-adv-x="581" 
d="M62 0v479h133v-60h4c33 53 87 75 142 75c108 0 183 -72 183 -219v-309c0 -149 -66 -217 -179 -217c-35 0 -63 5 -89 14v107c15 -5 39 -9 62 -9c51 0 71 31 71 97v308c0 72 -34 109 -90 109c-59 0 -102 -42 -102 -122v-253h-135z" />
    <glyph glyph-name="Omacron" unicode="&#x14c;" horiz-adv-x="789" 
d="M179 341c0 -134 93 -235 215 -235c123 0 216 101 216 235c0 131 -85 235 -215 235c-122 0 -216 -101 -216 -235zM33 341c0 194 152 363 363 363c225 0 360 -173 360 -363c0 -199 -154 -363 -361 -363c-250 0 -362 195 -362 363zM546 773h-293v90h293v-90z" />
    <glyph glyph-name="omacron" unicode="&#x14d;" horiz-adv-x="571" 
d="M30 240c0 148 110 255 256 255c151 0 256 -110 256 -255c0 -141 -106 -257 -256 -257c-147 0 -256 112 -256 257zM166 239c0 -79 52 -136 120 -136c73 0 119 59 119 136c0 74 -43 136 -119 136c-75 0 -120 -58 -120 -136zM432 593h-293v90h293v-90z" />
    <glyph glyph-name="Obreve" unicode="&#x14e;" horiz-adv-x="789" 
d="M179 341c0 -134 93 -235 215 -235c123 0 216 101 216 235c0 131 -85 235 -215 235c-122 0 -216 -101 -216 -235zM33 341c0 194 152 363 363 363c225 0 360 -173 360 -363c0 -199 -154 -363 -361 -363c-250 0 -362 195 -362 363zM473 891h90c-5 -90 -76 -144 -167 -144
c-105 0 -163 59 -167 144h89c3 -32 32 -53 78 -53c48 0 75 22 77 53z" />
    <glyph glyph-name="obreve" unicode="&#x14f;" horiz-adv-x="571" 
d="M30 240c0 148 110 255 256 255c151 0 256 -110 256 -255c0 -141 -106 -257 -256 -257c-147 0 -256 112 -256 257zM166 239c0 -79 52 -136 120 -136c73 0 119 59 119 136c0 74 -43 136 -119 136c-75 0 -120 -58 -120 -136zM363 726h90c-5 -99 -77 -159 -167 -159
c-98 0 -162 60 -167 159h89c4 -39 32 -65 78 -65c45 0 75 27 77 65z" />
    <glyph glyph-name="Ohungarumlaut" unicode="&#x150;" horiz-adv-x="789" 
d="M179 341c0 -134 93 -235 215 -235c123 0 216 101 216 235c0 131 -85 235 -215 235c-122 0 -216 -101 -216 -235zM33 341c0 194 152 363 363 363c225 0 360 -173 360 -363c0 -199 -154 -363 -361 -363c-250 0 -362 195 -362 363zM390 916l66 -83l-158 -108l-55 70z
M594 916l66 -84l-159 -107l-55 70z" />
    <glyph glyph-name="ohungarumlaut" unicode="&#x151;" horiz-adv-x="571" 
d="M30 240c0 148 110 255 256 255c151 0 256 -110 256 -255c0 -141 -106 -257 -256 -257c-147 0 -256 112 -256 257zM166 239c0 -79 52 -136 120 -136c73 0 119 59 119 136c0 74 -43 136 -119 136c-75 0 -120 -58 -120 -136zM223 753l91 -55l-111 -156l-75 47zM402 753
l91 -55l-112 -156l-75 47z" />
    <glyph glyph-name="OE" unicode="&#x152;" horiz-adv-x="1064" 
d="M996 682v-124h-265v-147h255v-118h-255v-169h275v-124h-406v81c-57 -65 -135 -103 -221 -103c-241 0 -346 195 -346 363c0 194 146 363 348 363c90 0 163 -37 219 -99v77h396zM179 341c0 -134 91 -235 215 -235c121 0 214 101 214 235c0 131 -85 235 -213 235
c-124 0 -216 -101 -216 -235z" />
    <glyph glyph-name="oe" unicode="&#x153;" horiz-adv-x="910" 
d="M30 240c0 148 106 255 246 255c79 0 144 -34 186 -89c38 54 100 89 182 89c141 0 234 -112 234 -252c0 -11 -1 -22 -2 -35h-346c0 -66 50 -124 118 -124c42 0 69 19 89 50h132c-31 -81 -101 -151 -225 -151c-79 0 -142 34 -182 91c-42 -56 -108 -91 -186 -91
c-141 0 -246 112 -246 257zM165 239c0 -79 51 -136 117 -136c71 0 116 59 116 136c0 74 -42 136 -116 136c-72 0 -117 -58 -117 -136zM640 401c-64 0 -104 -50 -109 -104h214c-5 57 -46 104 -105 104z" />
    <glyph glyph-name="Racute" unicode="&#x154;" horiz-adv-x="606" 
d="M400 288l211 -288h-170l-185 268h-45v-268h-143v682h212c192 0 259 -96 259 -208c0 -98 -62 -164 -139 -186zM392 468c0 62 -37 99 -105 99h-76v-194h77c65 0 104 38 104 95zM359 910l45 -100l-196 -78l-37 83z" />
    <glyph glyph-name="racute" unicode="&#x155;" horiz-adv-x="404" 
d="M381 489v-126c-17 3 -37 6 -64 6c-80 0 -120 -50 -120 -136v-233h-135v479h132v-74h3c26 47 76 88 140 88c19 0 31 -1 44 -4zM118 627l159 137l66 -87l-170 -122z" />
    <glyph glyph-name="Rcommaaccent" unicode="&#x156;" horiz-adv-x="606" 
d="M400 288l211 -288h-170l-185 268h-45v-268h-143v682h212c192 0 259 -96 259 -208c0 -98 -62 -164 -139 -186zM392 468c0 62 -37 99 -105 99h-76v-194h77c65 0 104 38 104 95zM257 -154v96h116v-60c0 -46 -12 -93 -36 -127h-63c16 25 27 58 27 91h-44z" />
    <glyph glyph-name="rcommaaccent" unicode="&#x157;" horiz-adv-x="404" 
d="M381 489v-126c-17 3 -37 6 -64 6c-80 0 -120 -50 -120 -136v-233h-135v479h132v-74h3c26 47 76 88 140 88c19 0 31 -1 44 -4zM70 -154v96h116v-60c0 -46 -12 -93 -36 -127h-63c16 25 27 58 27 91h-44z" />
    <glyph glyph-name="Rcaron" unicode="&#x158;" horiz-adv-x="606" 
d="M400 288l211 -288h-170l-185 268h-45v-268h-143v682h212c192 0 259 -96 259 -208c0 -98 -62 -164 -139 -186zM392 468c0 62 -37 99 -105 99h-76v-194h77c65 0 104 38 104 95zM265 732l-166 103l35 71l131 -60l131 60l34 -71z" />
    <glyph glyph-name="rcaron" unicode="&#x159;" horiz-adv-x="404" 
d="M381 489v-126c-17 3 -37 6 -64 6c-80 0 -120 -50 -120 -136v-233h-135v479h132v-74h3c26 47 76 88 140 88c19 0 31 -1 44 -4zM223 552l-165 127l49 68l116 -77l116 77l48 -68z" />
    <glyph glyph-name="Sacute" unicode="&#x15a;" horiz-adv-x="562" 
d="M501 504h-135c-4 50 -35 84 -85 84c-45 0 -78 -29 -78 -73c0 -51 47 -75 118 -98c140 -46 193 -124 193 -227c0 -99 -72 -212 -232 -212c-136 0 -229 80 -240 221h141c7 -63 38 -105 101 -105c56 0 90 40 90 88c0 57 -37 88 -123 116c-136 45 -186 122 -186 215
c0 116 96 191 217 191c130 0 214 -80 219 -200zM371 910l45 -100l-196 -78l-37 83z" />
    <glyph glyph-name="sacute" unicode="&#x15b;" horiz-adv-x="441" 
d="M399 350h-119c-3 34 -25 54 -55 54c-32 0 -49 -21 -49 -42c0 -27 15 -44 96 -72c101 -33 138 -84 138 -153c0 -88 -67 -154 -185 -154c-122 0 -180 64 -185 157h121c3 -38 23 -65 67 -65c34 0 55 23 55 51c0 33 -23 53 -95 77c-90 29 -137 74 -137 149
c0 86 70 143 173 143c106 0 165 -61 175 -145zM129 627l159 137l66 -87l-170 -122z" />
    <glyph glyph-name="Scircumflex" unicode="&#x15c;" horiz-adv-x="562" 
d="M501 504h-135c-4 50 -35 84 -85 84c-45 0 -78 -29 -78 -73c0 -51 47 -75 118 -98c140 -46 193 -124 193 -227c0 -99 -72 -212 -232 -212c-136 0 -229 80 -240 221h141c7 -63 38 -105 101 -105c56 0 90 40 90 88c0 57 -37 88 -123 116c-136 45 -186 122 -186 215
c0 116 96 191 217 191c130 0 214 -80 219 -200zM280 906l165 -103l-35 -71l-130 60l-131 -60l-35 71z" />
    <glyph glyph-name="scircumflex" unicode="&#x15d;" horiz-adv-x="441" 
d="M399 350h-119c-3 34 -25 54 -55 54c-32 0 -49 -21 -49 -42c0 -27 15 -44 96 -72c101 -33 138 -84 138 -153c0 -88 -67 -154 -185 -154c-122 0 -180 64 -185 157h121c3 -38 23 -65 67 -65c34 0 55 23 55 51c0 33 -23 53 -95 77c-90 29 -137 74 -137 149
c0 86 70 143 173 143c106 0 165 -61 175 -145zM225 747l164 -127l-48 -68l-116 77l-116 -77l-49 68z" />
    <glyph glyph-name="Scedilla" unicode="&#x15e;" horiz-adv-x="562" 
d="M501 504h-135c-4 50 -35 84 -85 84c-45 0 -78 -29 -78 -73c0 -48 41 -69 118 -98c139 -52 193 -124 193 -227c0 -92 -65 -194 -201 -210l-8 -19c58 -9 91 -52 91 -99c0 -64 -41 -111 -132 -111c-37 0 -84 10 -111 19l26 75c14 -6 52 -14 74 -14c31 0 49 9 49 30
c0 25 -30 41 -94 41l31 78c-114 14 -187 91 -197 219h141c7 -63 38 -105 101 -105c56 0 90 40 90 87c0 58 -42 87 -125 118c-133 51 -184 121 -184 216c0 117 101 189 217 189c130 0 214 -80 219 -200z" />
    <glyph glyph-name="scedilla" unicode="&#x15f;" horiz-adv-x="441" 
d="M395 350h-119c-3 34 -25 54 -55 54c-32 0 -49 -21 -49 -40c0 -29 14 -44 96 -74c101 -35 138 -84 138 -154c0 -79 -55 -140 -156 -151l-9 -24c58 -9 91 -52 91 -99c0 -64 -41 -111 -132 -111c-37 0 -84 10 -111 19l27 75c14 -6 51 -14 73 -14c31 0 49 9 49 30
c0 25 -30 41 -94 41l33 85c-93 12 -137 72 -141 153h121c3 -38 22 -65 66 -65c33 0 56 21 56 51c0 31 -23 51 -95 77c-91 31 -137 75 -137 149c0 86 70 143 173 143c106 0 165 -61 175 -145z" />
    <glyph glyph-name="Scaron" unicode="&#x160;" horiz-adv-x="562" 
d="M503 504h-135c-4 50 -35 84 -85 84c-45 0 -78 -29 -78 -73c0 -51 47 -75 118 -98c140 -46 193 -124 193 -227c0 -99 -72 -212 -232 -212c-136 0 -229 80 -240 221h141c7 -63 38 -105 101 -105c56 0 90 40 90 88c0 57 -37 88 -123 116c-136 45 -186 122 -186 215
c0 116 96 191 217 191c130 0 214 -80 219 -200zM274 732l-166 103l35 71l131 -60l131 60l34 -71z" />
    <glyph glyph-name="scaron" unicode="&#x161;" horiz-adv-x="441" 
d="M401 350h-119c-3 34 -25 54 -55 54c-32 0 -49 -21 -49 -42c0 -27 15 -44 96 -72c101 -33 138 -84 138 -153c0 -88 -67 -154 -185 -154c-122 0 -180 64 -185 157h121c3 -38 23 -65 67 -65c34 0 55 23 55 51c0 33 -23 53 -95 77c-90 29 -137 74 -137 149
c0 86 70 143 173 143c106 0 165 -61 175 -145zM223 552l-165 127l49 68l116 -77l116 77l48 -68z" />
    <glyph glyph-name="uni0162" unicode="&#x162;" horiz-adv-x="485" 
d="M170 0v558h-162v124h469v-124h-163v-558h-144zM182 -154v96h116v-60c0 -46 -12 -93 -36 -127h-63c16 25 27 58 27 91h-44z" />
    <glyph glyph-name="uni0163" unicode="&#x163;" horiz-adv-x="344" 
d="M11 365v114h58v153h136v-153h113v-114h-113v-186c0 -56 17 -71 60 -71c18 0 41 3 58 8v-110c-28 -8 -66 -13 -94 -13c-120 0 -160 68 -160 172v200h-58zM142 -151v96h116v-60c0 -46 -12 -93 -36 -127h-63c16 25 27 58 27 91h-44z" />
    <glyph glyph-name="uni021A" unicode="&#x21a;" horiz-adv-x="485" 
d="M170 0v558h-162v124h469v-124h-163v-558h-144zM182 -154v96h116v-60c0 -46 -12 -93 -36 -127h-63c16 25 27 58 27 91h-44z" />
    <glyph glyph-name="uni021B" unicode="&#x21b;" horiz-adv-x="344" 
d="M11 365v114h58v153h136v-153h113v-114h-113v-186c0 -56 17 -71 60 -71c18 0 41 3 58 8v-110c-28 -8 -66 -13 -94 -13c-120 0 -160 68 -160 172v200h-58zM142 -151v96h116v-60c0 -46 -12 -93 -36 -127h-63c16 25 27 58 27 91h-44z" />
    <glyph glyph-name="Tcaron" unicode="&#x164;" horiz-adv-x="485" 
d="M170 0v558h-162v124h469v-124h-163v-558h-144zM242 732l-166 103l35 71l131 -60l131 60l34 -71z" />
    <glyph glyph-name="tcaron" unicode="&#x165;" horiz-adv-x="369" 
d="M11 365v114h58v153h136v-153h113v-114h-113v-186c0 -56 17 -71 60 -71c18 0 41 3 58 8v-110c-28 -8 -66 -13 -94 -13c-120 0 -160 68 -160 172v200h-58zM256 624v96h116v-60c0 -46 -12 -93 -36 -127h-63c16 25 27 58 27 91h-44z" />
    <glyph glyph-name="Tbar" unicode="&#x166;" horiz-adv-x="485" 
d="M420 292h-106v-292h-144v292h-106v107h106v159h-162v124h469v-124h-163v-159h106v-107z" />
    <glyph glyph-name="tbar" unicode="&#x167;" horiz-adv-x="344" 
d="M308 202l-103 1c0 -76 9 -95 60 -95c18 0 41 3 58 8v-110c-28 -8 -66 -13 -94 -13c-120 0 -160 68 -160 172v38h-50v83h50v79h-58v114h58v153h136v-153h113v-114h-113v-79h103v-84z" />
    <glyph glyph-name="Utilde" unicode="&#x168;" horiz-adv-x="635" 
d="M318 -22c-143 0 -260 77 -260 292v412h143v-423c0 -100 43 -159 116 -159c90 0 118 70 118 159v423h142v-410c0 -211 -108 -294 -259 -294zM221 767h-79c3 82 39 138 107 138c28 0 49 -9 75 -28c27 -20 44 -27 59 -27s29 8 30 45h79c-4 -93 -43 -137 -110 -137
c-30 0 -54 9 -79 28c-28 20 -40 27 -53 27c-16 0 -28 -15 -29 -46z" />
    <glyph glyph-name="utilde" unicode="&#x169;" horiz-adv-x="570" 
d="M508 479v-479h-134v60h-3c-39 -57 -88 -76 -140 -76c-78 0 -174 48 -174 211v284h135v-267c0 -70 33 -108 85 -108c59 0 96 41 96 121v254h135zM187 587h-79c3 82 39 138 107 138c28 0 49 -9 75 -28c27 -20 44 -27 59 -27s29 8 30 45h79c-4 -93 -43 -137 -110 -137
c-30 0 -54 9 -79 28c-28 20 -40 27 -53 27c-16 0 -28 -15 -29 -46z" />
    <glyph glyph-name="Umacron" unicode="&#x16a;" horiz-adv-x="635" 
d="M318 -22c-143 0 -260 77 -260 292v412h143v-423c0 -100 43 -159 116 -159c90 0 118 70 118 159v423h142v-410c0 -211 -108 -294 -259 -294zM469 773h-293v90h293v-90z" />
    <glyph glyph-name="umacron" unicode="&#x16b;" horiz-adv-x="570" 
d="M508 479v-479h-134v60h-3c-39 -57 -88 -76 -140 -76c-78 0 -174 48 -174 211v284h135v-267c0 -70 33 -108 85 -108c59 0 96 41 96 121v254h135zM430 593h-293v90h293v-90z" />
    <glyph glyph-name="Ubreve" unicode="&#x16c;" horiz-adv-x="635" 
d="M318 -22c-143 0 -260 77 -260 292v412h143v-423c0 -100 43 -159 116 -159c90 0 118 70 118 159v423h142v-410c0 -211 -108 -294 -259 -294zM394 891h90c-5 -90 -76 -144 -167 -144c-105 0 -163 59 -167 144h89c3 -32 32 -53 78 -53c48 0 75 22 77 53z" />
    <glyph glyph-name="ubreve" unicode="&#x16d;" horiz-adv-x="570" 
d="M508 479v-479h-134v60h-3c-39 -57 -88 -76 -140 -76c-78 0 -174 48 -174 211v284h135v-267c0 -70 33 -108 85 -108c59 0 96 41 96 121v254h135zM361 726h90c-5 -99 -77 -159 -167 -159c-98 0 -162 60 -167 159h89c4 -39 32 -65 78 -65c45 0 75 27 77 65z" />
    <glyph glyph-name="Uring" unicode="&#x16e;" horiz-adv-x="635" 
d="M318 -22c-143 0 -260 77 -260 292v412h143v-423c0 -100 43 -159 116 -159c90 0 118 70 118 159v423h142v-410c0 -211 -108 -294 -259 -294zM261 844c0 -31 26 -56 56 -56c31 0 56 25 56 56s-25 56 -56 56c-30 0 -56 -25 -56 -56zM188 844c0 72 56 129 129 129
c72 0 130 -57 130 -129s-58 -130 -130 -130c-73 0 -129 58 -129 130z" />
    <glyph glyph-name="uring" unicode="&#x16f;" horiz-adv-x="570" 
d="M508 479v-479h-134v60h-3c-39 -57 -88 -76 -140 -76c-78 0 -174 48 -174 211v284h135v-267c0 -70 33 -108 85 -108c59 0 96 41 96 121v254h135zM228 659c0 -31 26 -56 56 -56c31 0 56 25 56 56s-25 56 -56 56c-30 0 -56 -25 -56 -56zM155 659c0 72 56 129 129 129
c72 0 130 -57 130 -129s-58 -130 -130 -130c-73 0 -129 58 -129 130z" />
    <glyph glyph-name="Uhungarumlaut" unicode="&#x170;" horiz-adv-x="635" 
d="M318 -22c-143 0 -260 77 -260 292v412h143v-423c0 -100 43 -159 116 -159c90 0 118 70 118 159v423h142v-410c0 -211 -108 -294 -259 -294zM300 916l66 -83l-158 -108l-55 70zM504 916l66 -84l-159 -107l-55 70z" />
    <glyph glyph-name="uhungarumlaut" unicode="&#x171;" horiz-adv-x="570" 
d="M508 479v-479h-134v60h-3c-39 -57 -88 -76 -140 -76c-78 0 -174 48 -174 211v284h135v-267c0 -70 33 -108 85 -108c59 0 96 41 96 121v254h135zM220 753l91 -55l-111 -156l-75 47zM399 753l91 -55l-112 -156l-75 47z" />
    <glyph glyph-name="Uogonek" unicode="&#x172;" horiz-adv-x="635" 
d="M318 -22c-143 0 -260 77 -260 292v412h143v-423c0 -100 43 -159 116 -159c90 0 118 70 118 159v423h142v-410c0 -128 -39 -210 -104 -252c-30 -21 -47 -30 -63 -50s-24 -42 -24 -60c0 -31 21 -43 48 -43c11 0 24 1 36 4v-92c-15 -4 -43 -7 -63 -7c-85 0 -121 53 -121 113
c0 33 15 68 41 93h-9z" />
    <glyph glyph-name="uogonek" unicode="&#x173;" horiz-adv-x="570" 
d="M516 -129v-92c-15 -4 -43 -7 -63 -7c-85 0 -121 53 -121 113c0 45 30 91 76 115h-34v60h-3c-39 -57 -88 -76 -140 -76c-78 0 -174 48 -174 211v284h135v-267c0 -70 33 -108 85 -108c59 0 96 41 96 121v254h135v-479c-31 -1 -76 -35 -76 -90c0 -31 21 -43 48 -43
c11 0 24 1 36 4z" />
    <glyph glyph-name="Wcircumflex" unicode="&#x174;" horiz-adv-x="871" 
d="M544 0l-82 359c-11 51 -18 96 -22 145h-4c-6 -49 -11 -91 -23 -142l-78 -362h-152l-175 682h142l85 -371c16 -66 19 -93 25 -129h4c7 43 17 93 27 138l81 362h135l87 -369c14 -57 18 -90 25 -131h4c6 47 14 91 22 130l79 370h139l-165 -682h-154zM437 906l165 -103
l-35 -71l-130 60l-131 -60l-35 71z" />
    <glyph glyph-name="wcircumflex" unicode="&#x175;" horiz-adv-x="725" 
d="M429 0l-48 210c-6 30 -16 69 -19 104h-4c-4 -35 -12 -77 -23 -124l-44 -190h-156l-121 479h133l56 -241c9 -41 13 -63 18 -95h4c5 31 10 63 19 100l59 236h122l60 -240c9 -40 12 -66 16 -96h3c5 38 11 72 16 95l58 241h132l-125 -479h-156zM365 747l164 -127l-48 -68
l-116 77l-116 -77l-49 68z" />
    <glyph glyph-name="Ycircumflex" unicode="&#x176;" horiz-adv-x="598" 
d="M228 0v272l-221 410h155l105 -203c15 -29 28 -58 36 -85h2c11 28 22 53 37 84l99 204h150l-220 -409v-273h-143zM303 906l165 -103l-35 -71l-130 60l-131 -60l-35 71z" />
    <glyph glyph-name="ycircumflex" unicode="&#x177;" horiz-adv-x="467" 
d="M474 479l-262 -714h-128l88 239l-174 475h140l69 -208c11 -35 25 -79 32 -118h4c9 46 18 76 31 118l67 208h133zM242 747l164 -127l-48 -68l-116 77l-116 -77l-49 68z" />
    <glyph glyph-name="Ydieresis" unicode="&#x178;" horiz-adv-x="598" 
d="M230 0v272l-221 410h155l105 -203c15 -29 28 -58 36 -85h2c11 28 22 53 37 84l99 204h150l-220 -409v-273h-143zM156 771v112h114v-112h-114zM340 771v112h114v-112h-114z" />
    <glyph glyph-name="Zacute" unicode="&#x179;" horiz-adv-x="619" 
d="M55 558v124h510v-117l-348 -441h364v-124h-543v116l347 442h-330zM389 910l45 -100l-196 -78l-37 83z" />
    <glyph glyph-name="zacute" unicode="&#x17a;" horiz-adv-x="486" 
d="M45 367v112h395v-108l-235 -259h247v-112h-419v108l236 259h-224zM145 627l159 137l66 -87l-170 -122z" />
    <glyph glyph-name="Zdotaccent" unicode="&#x17b;" horiz-adv-x="619" 
d="M55 558v124h510v-117l-348 -441h364v-124h-543v116l347 442h-330zM234 772v114h119v-114h-119z" />
    <glyph glyph-name="zdotaccent" unicode="&#x17c;" horiz-adv-x="486" 
d="M45 367v112h395v-108l-235 -259h247v-112h-419v108l236 259h-224zM177 588v114h119v-114h-119z" />
    <glyph glyph-name="Zcaron" unicode="&#x17d;" horiz-adv-x="619" 
d="M57 558v124h510v-117l-348 -441h364v-124h-543v116l347 442h-330zM299 732l-166 103l35 71l131 -60l131 60l34 -71z" />
    <glyph glyph-name="zcaron" unicode="&#x17e;" horiz-adv-x="486" 
d="M47 367v112h395v-108l-235 -259h247v-112h-419v108l236 259h-224zM239 552l-165 127l49 68l116 -77l116 77l48 -68z" />
    <glyph glyph-name="florin" unicode="&#x192;" horiz-adv-x="573" 
d="M139 -69l71 437h-74v114h90l7 50c19 115 71 172 176 172c30 0 59 -4 77 -8v-111c-16 4 -34 5 -49 5c-41 0 -62 -23 -70 -69l-6 -39h86v-114h-102l-71 -445c-19 -119 -73 -181 -175 -181c-34 0 -60 4 -79 8v112c14 -4 35 -6 51 -6c39 0 60 21 68 75z" />
    <glyph glyph-name="Scommaaccent" unicode="&#x218;" horiz-adv-x="562" 
d="M501 504h-135c-4 50 -35 84 -85 84c-45 0 -78 -29 -78 -73c0 -51 47 -75 118 -98c140 -46 193 -124 193 -227c0 -99 -72 -212 -232 -212c-136 0 -229 80 -240 221h141c7 -63 38 -105 101 -105c56 0 90 40 90 88c0 57 -37 88 -123 116c-136 45 -186 122 -186 215
c0 116 96 191 217 191c130 0 214 -80 219 -200zM219 -154v96h116v-60c0 -46 -12 -93 -36 -127h-63c16 25 27 58 27 91h-44z" />
    <glyph glyph-name="scommaaccent" unicode="&#x219;" horiz-adv-x="441" 
d="M395 350h-119c-3 34 -25 54 -55 54c-32 0 -49 -21 -49 -42c0 -27 15 -44 96 -72c101 -33 138 -84 138 -153c0 -88 -67 -154 -185 -154c-122 0 -180 64 -185 157h121c3 -38 23 -65 67 -65c34 0 55 23 55 51c0 33 -23 53 -95 77c-90 29 -137 74 -137 149
c0 86 70 143 173 143c106 0 165 -61 175 -145zM157 -154v96h116v-60c0 -46 -12 -93 -36 -127h-63c16 25 27 58 27 91h-44z" />
    <glyph glyph-name="dotlessj" unicode="&#x237;" horiz-adv-x="259" 
d="M197 479v-513c0 -152 -71 -217 -184 -217c-40 0 -71 6 -94 14v114c12 -4 41 -10 67 -10c49 0 76 24 76 97v515h135z" />
    <glyph glyph-name="circumflex" unicode="&#x2c6;" horiz-adv-x="322" 
d="M161 747l164 -127l-48 -68l-116 77l-116 -77l-49 68z" />
    <glyph glyph-name="caron" unicode="&#x2c7;" horiz-adv-x="322" 
d="M161 552l-165 127l49 68l116 -77l116 77l48 -68z" />
    <glyph glyph-name="uni02C9" unicode="&#x2c9;" horiz-adv-x="322" 
d="M307 593h-293v90h293v-90z" />
    <glyph glyph-name="breve" unicode="&#x2d8;" horiz-adv-x="322" 
d="M238 726h90c-5 -99 -77 -159 -167 -159c-98 0 -162 60 -167 159h89c4 -39 32 -65 78 -65c45 0 75 27 77 65z" />
    <glyph glyph-name="dotaccent" unicode="&#x2d9;" horiz-adv-x="322" 
d="M101 588v114h119v-114h-119z" />
    <glyph glyph-name="ring" unicode="&#x2da;" horiz-adv-x="322" 
d="M106 659c0 -31 26 -56 56 -56c31 0 56 25 56 56s-25 56 -56 56c-30 0 -56 -25 -56 -56zM33 659c0 72 56 129 129 129c72 0 130 -57 130 -129s-58 -130 -130 -130c-73 0 -129 58 -129 130z" />
    <glyph glyph-name="ogonek" unicode="&#x2db;" horiz-adv-x="322" 
d="M241 -129v-92c-15 -4 -44 -7 -64 -7c-84 0 -120 53 -120 113c0 45 30 91 75 115h79c-38 -34 -54 -63 -54 -90c0 -31 20 -43 47 -43c12 0 25 1 37 4z" />
    <glyph glyph-name="tilde" unicode="&#x2dc;" horiz-adv-x="322" 
d="M65 587h-79c3 82 39 138 107 138c28 0 49 -9 75 -28c27 -20 44 -27 59 -27s29 8 30 45h79c-4 -93 -43 -137 -110 -137c-30 0 -54 9 -79 28c-28 20 -40 27 -53 27c-16 0 -28 -15 -29 -46z" />
    <glyph glyph-name="hungarumlaut" unicode="&#x2dd;" horiz-adv-x="322" 
d="M98 753l91 -55l-111 -156l-75 47zM277 753l91 -55l-112 -156l-75 47z" />
    <glyph glyph-name="commaaccent" horiz-adv-x="322" 
d="M102 -154v96h116v-60c0 -46 -12 -93 -36 -127h-63c16 25 27 58 27 91h-44z" />
    <glyph glyph-name="Wgrave" unicode="&#x1e80;" horiz-adv-x="871" 
d="M544 0l-82 359c-11 51 -18 96 -22 145h-4c-6 -49 -11 -91 -23 -142l-78 -362h-152l-175 682h142l85 -371c16 -66 19 -93 25 -129h4c7 43 17 93 27 138l81 362h135l87 -369c14 -57 18 -90 25 -131h4c6 47 14 91 22 130l79 370h139l-165 -682h-154zM309 810l44 100l189 -95
l-37 -83z" />
    <glyph glyph-name="wgrave" unicode="&#x1e81;" horiz-adv-x="725" 
d="M429 0l-48 210c-6 30 -16 69 -19 104h-4c-4 -35 -12 -77 -23 -124l-44 -190h-156l-121 479h133l56 -241c9 -41 13 -63 18 -95h4c5 31 10 63 19 100l59 236h122l60 -240c9 -40 12 -66 16 -96h3c5 38 11 72 16 95l58 241h132l-125 -479h-156zM233 677l66 87l159 -137
l-54 -72z" />
    <glyph glyph-name="Wacute" unicode="&#x1e82;" horiz-adv-x="871" 
d="M544 0l-82 359c-11 51 -18 96 -22 145h-4c-6 -49 -11 -91 -23 -142l-78 -362h-152l-175 682h142l85 -371c16 -66 19 -93 25 -129h4c7 43 17 93 27 138l81 362h135l87 -369c14 -57 18 -90 25 -131h4c6 47 14 91 22 130l79 370h139l-165 -682h-154zM520 910l45 -100
l-196 -78l-37 83z" />
    <glyph glyph-name="wacute" unicode="&#x1e83;" horiz-adv-x="725" 
d="M429 0l-48 210c-6 30 -16 69 -19 104h-4c-4 -35 -12 -77 -23 -124l-44 -190h-156l-121 479h133l56 -241c9 -41 13 -63 18 -95h4c5 31 10 63 19 100l59 236h122l60 -240c9 -40 12 -66 16 -96h3c5 38 11 72 16 95l58 241h132l-125 -479h-156zM265 627l159 137l66 -87
l-170 -122z" />
    <glyph glyph-name="Wdieresis" unicode="&#x1e84;" horiz-adv-x="871" 
d="M544 0l-82 359c-11 51 -18 96 -22 145h-4c-6 -49 -11 -91 -23 -142l-78 -362h-152l-175 682h142l85 -371c16 -66 19 -93 25 -129h4c7 43 17 93 27 138l81 362h135l87 -369c14 -57 18 -90 25 -131h4c6 47 14 91 22 130l79 370h139l-165 -682h-154zM291 771v112h114v-112
h-114zM475 771v112h114v-112h-114z" />
    <glyph glyph-name="wdieresis" unicode="&#x1e85;" horiz-adv-x="725" 
d="M429 0l-48 210c-6 30 -16 69 -19 104h-4c-4 -35 -12 -77 -23 -124l-44 -190h-156l-121 479h133l56 -241c9 -41 13 -63 18 -95h4c5 31 10 63 19 100l59 236h122l60 -240c9 -40 12 -66 16 -96h3c5 38 11 72 16 95l58 241h132l-125 -479h-156zM215 591v112h114v-112h-114z
M399 591v112h114v-112h-114z" />
    <glyph glyph-name="Ygrave" unicode="&#x1ef2;" horiz-adv-x="598" 
d="M228 0v272l-221 410h155l105 -203c15 -29 28 -58 36 -85h2c11 28 22 53 37 84l99 204h150l-220 -409v-273h-143zM144 810l44 100l189 -95l-37 -83z" />
    <glyph glyph-name="ygrave" unicode="&#x1ef3;" horiz-adv-x="467" 
d="M474 479l-262 -714h-128l88 239l-174 475h140l69 -208c11 -35 25 -79 32 -118h4c9 46 18 76 31 118l67 208h133zM105 677l66 87l159 -137l-54 -72z" />
    <glyph glyph-name="endash" unicode="&#x2013;" horiz-adv-x="554" 
d="M479 211h-404v105h404v-105z" />
    <glyph glyph-name="emdash" unicode="&#x2014;" horiz-adv-x="1104" 
d="M1029 211h-954v105h954v-105z" />
    <glyph glyph-name="quoteleft" unicode="&#x2018;" horiz-adv-x="276" 
d="M214 596v-142h-152v68c0 81 22 144 57 198h75c-22 -33 -37 -80 -41 -124h61z" />
    <glyph glyph-name="quoteright" unicode="&#x2019;" horiz-adv-x="276" 
d="M61 578v142h153v-68c0 -81 -22 -144 -57 -198h-75c22 33 37 80 41 124h-62z" />
    <glyph glyph-name="quotesinglbase" unicode="&#x201a;" horiz-adv-x="276" 
d="M61 0v142h153v-68c0 -81 -22 -144 -57 -198h-75c22 33 37 80 41 124h-62z" />
    <glyph glyph-name="quotedblleft" unicode="&#x201c;" horiz-adv-x="484" 
d="M214 596v-142h-152v68c0 81 22 144 57 198h75c-22 -33 -37 -80 -41 -124h61zM423 596v-142h-153v68c0 81 23 144 57 198h75c-21 -33 -37 -80 -41 -124h62z" />
    <glyph glyph-name="quotedblright" unicode="&#x201d;" horiz-adv-x="484" 
d="M270 578v142h152v-68c0 -81 -22 -144 -56 -198h-75c21 33 37 80 41 124h-62zM61 578v142h153v-68c0 -81 -22 -144 -57 -198h-75c22 33 37 80 41 124h-62z" />
    <glyph glyph-name="quotedblbase" unicode="&#x201e;" horiz-adv-x="484" 
d="M270 0v142h152v-68c0 -81 -22 -144 -56 -198h-75c21 33 37 80 41 124h-62zM61 0v142h153v-68c0 -81 -22 -144 -57 -198h-75c22 33 37 80 41 124h-62z" />
    <glyph glyph-name="dagger" unicode="&#x2020;" horiz-adv-x="466" 
d="M422 412l-142 18l17 -96l-17 -334h-95l-17 334l17 96l-141 -18v129l141 -17l-17 158h129l-17 -158l142 17v-129z" />
    <glyph glyph-name="daggerdbl" unicode="&#x2021;" horiz-adv-x="466" 
d="M291 138l-14 -138h-89l-14 138l14 75l-144 -14v117l144 -14l-14 75l14 75l-144 -15v117l144 -14l-14 142h117l-14 -142l145 14v-117l-145 15l14 -75l-14 -75l145 14v-117l-145 14z" />
    <glyph glyph-name="bullet" unicode="&#x2022;" horiz-adv-x="429" 
d="M65 304c0 82 66 150 148 150s151 -68 151 -150c0 -83 -69 -150 -151 -150s-148 67 -148 150z" />
    <glyph glyph-name="ellipsis" unicode="&#x2026;" horiz-adv-x="1004" 
d="M88 0v152h162v-152h-162zM421 0v152h162v-152h-162zM754 0v152h162v-152h-162z" />
    <glyph glyph-name="perthousand" unicode="&#x2030;" horiz-adv-x="1188" 
d="M593 682h99l-466 -682h-99zM37 513c0 134 90 190 167 190c72 0 161 -49 161 -188c0 -153 -100 -196 -164 -196c-73 0 -164 50 -164 194zM266 512c0 69 -24 107 -65 107c-36 0 -66 -32 -66 -106c0 -75 26 -109 67 -109c34 0 64 32 64 108zM453 172c0 133 89 190 167 190
c72 0 161 -50 161 -188c0 -154 -100 -195 -164 -195c-74 0 -164 48 -164 193zM682 171c0 69 -24 106 -66 106c-35 0 -65 -31 -65 -105c0 -75 26 -109 66 -109c34 0 65 32 65 108zM823 172c0 133 90 190 167 190c73 0 161 -50 161 -188c0 -154 -100 -195 -164 -195
c-73 0 -164 48 -164 193zM1053 171c0 69 -24 106 -66 106c-36 0 -66 -31 -66 -105c0 -75 27 -109 67 -109c34 0 65 32 65 108z" />
    <glyph glyph-name="guilsinglleft" unicode="&#x2039;" horiz-adv-x="300" 
d="M46 248l130 210l82 -44l-86 -166l86 -166l-82 -45z" />
    <glyph glyph-name="guilsinglright" unicode="&#x203a;" horiz-adv-x="300" 
d="M255 248l-130 -211l-83 45l86 166l-86 165l83 45z" />
    <glyph glyph-name="fraction" unicode="&#x2044;" horiz-adv-x="194" 
d="M282 682h97l-468 -682h-97z" />
    <glyph glyph-name="Euro" unicode="&#x20ac;" horiz-adv-x="573" 
d="M553 114v-118c-36 -11 -77 -18 -121 -18c-183 0 -283 94 -321 236h-94l27 96h52c0 10 -1 22 -1 32c0 13 1 29 2 42h-68l27 96h59c44 134 151 224 310 224c41 0 93 -7 129 -19l-32 -113c-26 8 -61 15 -95 15c-70 0 -133 -32 -166 -107h237l-27 -96h-234
c-1 -13 -2 -28 -2 -41c0 -11 0 -23 1 -33h217l-27 -96h-169c31 -77 94 -118 184 -118c40 0 83 9 112 18z" />
    <glyph glyph-name="afii61289" unicode="&#x2113;" horiz-adv-x="573" 
d="M430 120l48 -70c-38 -35 -96 -67 -154 -67c-107 0 -148 73 -148 169v50l-51 -46l-45 51l96 91v194c0 138 62 212 158 212c89 0 120 -72 120 -129c0 -94 -50 -167 -119 -246c-11 -11 -26 -28 -33 -36v-117c0 -72 26 -92 59 -92c27 0 52 19 69 36zM378 562
c0 23 -9 45 -32 45c-27 0 -44 -29 -44 -89v-122c4 5 11 11 15 18c37 47 61 102 61 148z" />
    <glyph glyph-name="trademark" unicode="&#x2122;" horiz-adv-x="619" 
d="M536 682l17 -231h-72l-7 105c-1 22 -1 28 -1 39h-3c-3 -11 -5 -23 -10 -39l-35 -105h-51l-30 98c-7 21 -10 33 -13 46h-2c0 -11 0 -19 -1 -42l-7 -102h-74l19 231h98l27 -84c7 -21 9 -28 10 -35h1c3 10 5 18 11 36l25 83h98zM41 617v65h193v-65h-61v-166h-72v166h-60z
" />
    <glyph glyph-name="estimated" unicode="&#x212e;" horiz-adv-x="664" 
d="M628 298h-460v-205c45 -44 99 -67 163 -67c106 0 171 54 221 136c12 -8 24 -15 37 -23c-61 -91 -132 -151 -258 -151c-177 0 -290 140 -290 310c0 172 110 311 292 311c184 0 290 -139 295 -311zM497 336v167c-43 42 -102 68 -165 68c-64 0 -120 -22 -164 -66v-169h329z
" />
    <glyph glyph-name="partialdiff" unicode="&#x2202;" horiz-adv-x="642" 
d="M591 460c0 -63 -7 -125 -25 -187c-45 -160 -147 -285 -301 -285c-126 0 -211 85 -211 205c0 198 141 298 264 298c71 0 122 -32 144 -69h2c2 16 3 31 3 51c0 96 -48 159 -139 159c-35 0 -75 -11 -105 -30c-10 29 -19 56 -28 84c31 22 91 42 157 42
c154 0 239 -107 239 -268zM447 328c-13 41 -46 75 -102 75c-88 0 -163 -96 -163 -215c0 -61 35 -102 89 -102c87 0 150 108 176 242z" />
    <glyph glyph-name="product" unicode="&#x220f;" horiz-adv-x="761" 
d="M683 -235h-140v793h-326v-793h-140v917h606v-917z" />
    <glyph glyph-name="summation" unicode="&#x2211;" horiz-adv-x="666" 
d="M627 -235h-604v99l290 366l-267 348v104h555v-123h-371l250 -327l-272 -344h419v-123z" />
    <glyph glyph-name="minus" unicode="&#x2212;" horiz-adv-x="672" 
d="M594 213h-517v102h517v-102z" />
    <glyph glyph-name="uni2215" unicode="&#x2215;" horiz-adv-x="194" 
d="M282 682h97l-468 -682h-97z" />
    <glyph glyph-name="uni2219" unicode="&#x2219;" horiz-adv-x="276" 
d="M59 275v152h162v-152h-162z" />
    <glyph glyph-name="radical" unicode="&#x221a;" horiz-adv-x="602" 
d="M597 720c-75 -246 -150 -486 -225 -732h-90c-48 105 -96 210 -143 315c-20 -12 -41 -24 -61 -37c-11 21 -24 42 -35 63c49 30 98 61 147 92c46 -102 91 -203 136 -304c61 202 123 400 184 603h87z" />
    <glyph glyph-name="infinity" unicode="&#x221e;" horiz-adv-x="883" 
d="M826 293c0 -106 -76 -184 -187 -184c-81 0 -153 45 -199 112h-2c-44 -61 -115 -112 -198 -112c-111 0 -189 72 -189 180c0 111 81 183 187 183c86 0 154 -48 199 -114h3c36 52 104 114 196 114c111 0 190 -73 190 -179zM728 291c0 50 -30 94 -99 94
c-57 0 -103 -38 -141 -95c36 -57 86 -95 143 -95c66 0 97 46 97 96zM389 291c-36 54 -88 94 -144 94c-61 0 -96 -43 -96 -96c0 -54 40 -94 98 -94c56 0 107 42 142 96z" />
    <glyph glyph-name="integral" unicode="&#x222b;" horiz-adv-x="516" 
d="M471 723l-25 -114c-11 5 -33 11 -52 11c-50 0 -69 -28 -69 -80v-561c0 -139 -66 -209 -176 -209c-41 0 -84 9 -108 18l26 114c12 -4 34 -11 54 -11c44 0 66 26 66 77v570c0 131 57 203 180 203c43 0 79 -9 104 -18z" />
    <glyph glyph-name="approxequal" unicode="&#x2248;" horiz-adv-x="672" 
d="M621 390c-45 -59 -97 -96 -172 -96c-38 0 -82 11 -123 34c-38 21 -69 35 -102 35c-42 0 -74 -30 -99 -62l-74 71c41 52 90 95 169 95c47 0 89 -14 123 -33c42 -23 72 -35 104 -35c40 0 72 26 99 62zM621 156c-45 -58 -97 -95 -172 -95c-38 0 -82 11 -123 33
c-40 22 -68 35 -102 35c-42 0 -73 -27 -99 -61l-74 71c41 52 90 95 169 95c48 0 86 -14 123 -33c33 -19 69 -35 104 -35c39 0 72 25 99 62z" />
    <glyph glyph-name="notequal" unicode="&#x2260;" horiz-adv-x="672" 
d="M424 547h116l-66 -120h121v-101h-168l-65 -121h233v-102h-282l-64 -117h-117l64 117h-119v102h168l65 121h-233v101h280z" />
    <glyph glyph-name="lessequal" unicode="&#x2264;" horiz-adv-x="672" 
d="M594 0h-517v102h517v-102zM594 138l-517 201v89l517 201v-112l-351 -132v-2l351 -132v-113z" />
    <glyph glyph-name="greaterequal" unicode="&#x2265;" horiz-adv-x="672" 
d="M595 0h-517v102h517v-102zM595 339l-517 -201v113l351 132v2l-351 132v112l517 -201v-89z" />
    <glyph glyph-name="lozenge" unicode="&#x25ca;" horiz-adv-x="597" 
d="M314 682l231 -341l-231 -341h-44l-231 340l231 342h44zM292 116l150 225l-150 225l-149 -225z" />
    <glyph glyph-name="uniF8FF" unicode="&#xf8ff;" horiz-adv-x="500" 
d="M12 0v665h475v-665h-475zM88 618l162 -243l161 243h-323zM60 575v-484c0 -1 161 242 161 242zM440 575l-162 -242l162 -243v485zM411 48l-161 242l-162 -242h323z" />
    <glyph glyph-name="zero.superior" unicode="&#x2070;" 
d="M26 644c0 167 93 228 182 228c80 0 172 -53 172 -227c0 -190 -107 -235 -177 -235c-82 0 -177 52 -177 234zM272 643c0 99 -28 142 -69 142c-33 0 -68 -34 -68 -139c0 -109 31 -147 69 -147c33 0 68 34 68 144z" />
    <glyph glyph-name="four.superior" unicode="&#x2074;" 
d="M380 493h-62v-68h-102v68h-197v75l197 291h102v-289h62v-77zM179 684l-78 -114h115v126c0 25 1 30 2 48h-3c-8 -17 -25 -44 -36 -60z" />
    <glyph glyph-name="five.superior" unicode="&#x2075;" 
d="M180 770l-7 -60c5 1 20 2 28 2c98 0 157 -60 157 -148c0 -80 -59 -153 -160 -153c-106 0 -154 63 -158 133h106c2 -26 17 -43 50 -43c29 0 51 23 51 59c0 41 -24 65 -80 65c-32 0 -66 -2 -101 -9l24 243h234v-89h-144z" />
    <glyph glyph-name="six.superior" unicode="&#x2076;" 
d="M28 569c0 59 24 107 65 160l105 130h110l-104 -133c5 1 20 1 26 1c89 -4 148 -69 148 -158c0 -84 -65 -158 -176 -158c-109 0 -174 68 -174 158zM132 569c0 -44 32 -72 71 -72c40 0 71 29 71 72c0 44 -30 75 -71 75s-71 -31 -71 -75z" />
    <glyph glyph-name="seven.superior" unicode="&#x2077;" 
d="M354 859v-79l-163 -355h-117l169 345h-193v89h304z" />
    <glyph glyph-name="eight.superior" unicode="&#x2078;" 
d="M147 742c0 -34 26 -56 56 -56c33 0 56 24 56 56c0 33 -25 54 -56 54c-32 0 -56 -21 -56 -54zM139 554c0 -39 26 -65 65 -65c38 0 65 25 65 65c0 39 -27 66 -65 66c-37 0 -65 -26 -65 -66zM367 547c0 -70 -51 -136 -163 -136c-113 0 -165 61 -165 133c0 56 29 96 77 115v1
c-41 17 -64 50 -64 91c0 68 54 121 152 121c95 0 149 -53 149 -114c0 -48 -26 -84 -65 -98v-1c53 -19 79 -59 79 -112z" />
    <glyph glyph-name="nine.superior" unicode="&#x2079;" 
d="M378 714c0 -58 -27 -109 -66 -159l-104 -130h-110l105 133c-6 -2 -21 -2 -26 -2c-92 5 -149 68 -149 158c0 87 70 158 176 158s174 -64 174 -158zM275 714c0 46 -33 73 -71 73c-41 0 -72 -27 -72 -73c0 -44 30 -73 72 -73c40 0 71 25 71 73z" />
    <glyph glyph-name="zero.denominator" 
d="M26 219c0 167 93 228 182 228c80 0 172 -53 172 -227c0 -190 -107 -235 -177 -235c-82 0 -177 52 -177 234zM272 218c0 99 -28 142 -69 142c-33 0 -68 -34 -68 -139c0 -109 31 -147 69 -147c33 0 68 34 68 144z" />
    <glyph glyph-name="one.denominator" 
d="M158 0v346h-68v88h174v-434h-106z" />
    <glyph glyph-name="two.denominator" 
d="M54 0v69l135 144c31 34 60 67 60 102c0 26 -19 45 -47 45c-35 0 -49 -24 -50 -58h-103c1 78 48 145 158 145c90 0 152 -56 152 -129c0 -55 -29 -93 -99 -166l-61 -63h166v-89h-311z" />
    <glyph glyph-name="three.denominator" 
d="M149 315h-102c2 79 58 132 153 132c99 0 152 -48 152 -114c0 -48 -32 -84 -73 -93v-3c55 -14 87 -55 87 -111c0 -73 -55 -140 -168 -140c-107 0 -159 55 -164 143h102c3 -40 24 -61 63 -61c36 0 60 26 60 66c0 31 -21 58 -71 58h-31v79h30c38 0 57 20 57 49
c0 23 -16 45 -47 45c-33 0 -47 -25 -48 -50z" />
    <glyph glyph-name="four.denominator" 
d="M380 68h-62v-68h-102v68h-197v75l197 291h102v-289h62v-77zM179 258l-78 -113h115v125c0 25 1 31 2 49h-3c-8 -17 -25 -44 -36 -61z" />
    <glyph glyph-name="five.denominator" 
d="M180 345l-7 -60c5 1 20 2 28 2c98 0 157 -60 157 -148c0 -80 -59 -153 -160 -153c-106 0 -154 63 -158 133h106c2 -26 17 -43 50 -43c29 0 51 23 51 59c0 41 -24 65 -80 65c-32 0 -66 -2 -101 -9l24 243h234v-89h-144z" />
    <glyph glyph-name="six.denominator" 
d="M28 144c0 59 24 107 65 160l105 130h110l-104 -133c5 1 20 1 26 1c89 -4 148 -69 148 -158c0 -84 -65 -158 -176 -158c-109 0 -174 68 -174 158zM132 144c0 -44 32 -72 71 -72c40 0 71 29 71 72c0 44 -30 75 -71 75s-71 -31 -71 -75z" />
    <glyph glyph-name="seven.denominator" 
d="M354 434v-79l-163 -355h-117l169 345h-193v89h304z" />
    <glyph glyph-name="eight.denominator" 
d="M147 317c0 -34 26 -56 56 -56c33 0 56 24 56 56c0 33 -25 54 -56 54c-32 0 -56 -21 -56 -54zM139 129c0 -39 26 -65 65 -65c38 0 65 25 65 65c0 39 -27 66 -65 66c-37 0 -65 -26 -65 -66zM367 122c0 -70 -51 -136 -163 -136c-113 0 -165 61 -165 133c0 56 29 96 77 115v1
c-41 17 -64 50 -64 91c0 68 54 121 152 121c95 0 149 -53 149 -114c0 -48 -26 -84 -65 -98v-1c53 -19 79 -59 79 -112z" />
    <glyph glyph-name="nine.denominator" 
d="M378 289c0 -58 -27 -109 -66 -159l-104 -130h-110l105 133c-6 -2 -21 -2 -26 -2c-92 5 -149 68 -149 158c0 87 70 158 176 158s174 -64 174 -158zM275 289c0 46 -33 73 -71 73c-41 0 -72 -27 -72 -73c0 -44 30 -73 72 -73c40 0 71 25 71 73z" />
    <glyph glyph-name="zero.numerator" 
d="M26 469c0 167 93 228 182 228c80 0 172 -53 172 -227c0 -190 -107 -235 -177 -235c-82 0 -177 52 -177 234zM272 468c0 99 -28 142 -69 142c-33 0 -68 -34 -68 -139c0 -109 31 -147 69 -147c33 0 68 34 68 144z" />
    <glyph glyph-name="one.numerator" 
d="M158 250v346h-68v88h174v-434h-106z" />
    <glyph glyph-name="two.numerator" 
d="M54 250v69l135 144c31 34 60 67 60 102c0 26 -19 45 -47 45c-35 0 -49 -24 -50 -58h-103c1 78 48 145 158 145c90 0 152 -56 152 -129c0 -55 -29 -93 -99 -166l-61 -63h166v-89h-311z" />
    <glyph glyph-name="three.numerator" 
d="M149 565h-102c2 79 58 132 153 132c99 0 152 -48 152 -114c0 -48 -32 -84 -73 -93v-3c55 -14 87 -55 87 -111c0 -73 -55 -140 -168 -140c-107 0 -159 55 -164 143h102c3 -40 24 -61 63 -61c36 0 60 26 60 66c0 31 -21 58 -71 58h-31v79h30c38 0 57 20 57 49
c0 23 -16 45 -47 45c-33 0 -47 -25 -48 -50z" />
    <glyph glyph-name="four.numerator" 
d="M380 318h-62v-68h-102v68h-197v75l197 291h102v-289h62v-77zM179 509l-78 -114h115v126c0 25 1 30 2 48h-3c-8 -17 -25 -44 -36 -60z" />
    <glyph glyph-name="five.numerator" 
d="M180 595l-7 -60c5 1 20 2 28 2c98 0 157 -60 157 -148c0 -80 -59 -153 -160 -153c-106 0 -154 63 -158 133h106c2 -26 17 -43 50 -43c29 0 51 23 51 59c0 41 -24 65 -80 65c-32 0 -66 -2 -101 -9l24 243h234v-89h-144z" />
    <glyph glyph-name="six.numerator" 
d="M28 394c0 59 24 107 65 160l105 130h110l-104 -133c5 1 20 1 26 1c89 -4 148 -69 148 -158c0 -84 -65 -158 -176 -158c-109 0 -174 68 -174 158zM132 394c0 -44 32 -72 71 -72c40 0 71 29 71 72c0 44 -30 75 -71 75s-71 -31 -71 -75z" />
    <glyph glyph-name="seven.numerator" 
d="M354 684v-79l-163 -355h-117l169 345h-193v89h304z" />
    <glyph glyph-name="eight.numerator" 
d="M147 567c0 -34 26 -56 56 -56c33 0 56 24 56 56c0 33 -25 54 -56 54c-32 0 -56 -21 -56 -54zM139 379c0 -39 26 -65 65 -65c38 0 65 25 65 65c0 39 -27 66 -65 66c-37 0 -65 -26 -65 -66zM367 372c0 -70 -51 -136 -163 -136c-113 0 -165 61 -165 133c0 56 29 96 77 115v1
c-41 17 -64 50 -64 91c0 68 54 121 152 121c95 0 149 -53 149 -114c0 -48 -26 -84 -65 -98v-1c53 -19 79 -59 79 -112z" />
    <glyph glyph-name="nine.numerator" 
d="M378 539c0 -58 -27 -109 -66 -159l-104 -130h-110l105 133c-6 -2 -21 -2 -26 -2c-92 5 -149 68 -149 158c0 87 70 158 176 158s174 -64 174 -158zM275 539c0 46 -33 73 -71 73c-41 0 -72 -27 -72 -73c0 -44 30 -73 72 -73c40 0 71 25 71 73z" />
    <glyph glyph-name="zero.inferior" unicode="&#x2080;" 
d="M26 44c0 167 93 228 182 228c80 0 172 -53 172 -227c0 -190 -107 -235 -177 -235c-82 0 -177 52 -177 234zM272 43c0 99 -28 142 -69 142c-33 0 -68 -34 -68 -139c0 -109 31 -147 69 -147c33 0 68 34 68 144z" />
    <glyph glyph-name="one.inferior" unicode="&#x2081;" 
d="M158 -175v346h-68v88h174v-434h-106z" />
    <glyph glyph-name="two.inferior" unicode="&#x2082;" 
d="M54 -175v69l135 144c31 34 60 67 60 102c0 26 -19 45 -47 45c-35 0 -49 -24 -50 -58h-103c1 78 48 145 158 145c90 0 152 -56 152 -129c0 -55 -29 -93 -99 -166l-61 -63h166v-89h-311z" />
    <glyph glyph-name="three.inferior" unicode="&#x2083;" 
d="M149 140h-102c2 79 58 132 153 132c99 0 152 -48 152 -114c0 -48 -32 -84 -73 -93v-3c55 -14 87 -55 87 -111c0 -73 -55 -140 -168 -140c-107 0 -159 55 -164 143h102c3 -40 24 -61 63 -61c36 0 60 26 60 66c0 31 -21 58 -71 58h-31v79h30c38 0 57 20 57 49
c0 23 -16 45 -47 45c-33 0 -47 -25 -48 -50z" />
    <glyph glyph-name="four.inferior" unicode="&#x2084;" 
d="M380 -107h-62v-68h-102v68h-197v75l197 291h102v-289h62v-77zM179 83l-78 -113h115v125c0 25 1 31 2 49h-3c-8 -17 -25 -44 -36 -61z" />
    <glyph glyph-name="five.inferior" unicode="&#x2085;" 
d="M180 170l-7 -60c5 1 20 2 28 2c98 0 157 -60 157 -148c0 -80 -59 -153 -160 -153c-106 0 -154 63 -158 133h106c2 -26 17 -43 50 -43c29 0 51 23 51 59c0 41 -24 65 -80 65c-32 0 -66 -2 -101 -9l24 243h234v-89h-144z" />
    <glyph glyph-name="six.inferior" unicode="&#x2086;" 
d="M28 -31c0 59 24 107 65 160l105 130h110l-104 -133c5 1 20 1 26 1c89 -4 148 -69 148 -158c0 -84 -65 -158 -176 -158c-109 0 -174 68 -174 158zM132 -31c0 -44 32 -72 71 -72c40 0 71 29 71 72c0 44 -30 75 -71 75s-71 -31 -71 -75z" />
    <glyph glyph-name="seven.inferior" unicode="&#x2087;" 
d="M354 259v-79l-163 -355h-117l169 345h-193v89h304z" />
    <glyph glyph-name="eight.inferior" unicode="&#x2088;" 
d="M147 142c0 -34 26 -56 56 -56c33 0 56 24 56 56c0 33 -25 54 -56 54c-32 0 -56 -21 -56 -54zM139 -46c0 -39 26 -65 65 -65c38 0 65 25 65 65c0 39 -27 66 -65 66c-37 0 -65 -26 -65 -66zM367 -53c0 -70 -51 -136 -163 -136c-113 0 -165 61 -165 133c0 56 29 96 77 115v1
c-41 17 -64 50 -64 91c0 68 54 121 152 121c95 0 149 -53 149 -114c0 -48 -26 -84 -65 -98v-1c53 -19 79 -59 79 -112z" />
    <glyph glyph-name="nine.inferior" unicode="&#x2089;" 
d="M378 114c0 -58 -27 -109 -66 -159l-104 -130h-110l105 133c-6 -2 -21 -2 -26 -2c-92 5 -149 68 -149 158c0 87 70 158 176 158s174 -64 174 -158zM275 114c0 46 -33 73 -71 73c-41 0 -72 -27 -72 -73c0 -44 30 -73 72 -73c40 0 71 25 71 73z" />
    <glyph glyph-name="acute.cap" horiz-adv-x="322" 
d="M244 910l45 -100l-196 -78l-37 83z" />
    <glyph glyph-name="breve.cap" horiz-adv-x="322" 
d="M238 891h90c-5 -90 -76 -144 -167 -144c-105 0 -163 59 -167 144h89c3 -32 32 -53 78 -53c48 0 75 22 77 53z" />
    <glyph glyph-name="caron.alt" horiz-adv-x="322" 
d="M102 624v96h116v-60c0 -46 -12 -93 -36 -127h-63c16 25 27 58 27 91h-44z" />
    <glyph glyph-name="caron.cap" horiz-adv-x="322" 
d="M161 732l-166 103l35 71l131 -60l131 60l34 -71z" />
    <glyph glyph-name="circumflex.cap" horiz-adv-x="322" 
d="M161 906l165 -103l-35 -71l-130 60l-131 -60l-35 71z" />
    <glyph glyph-name="commaaccent.alt" horiz-adv-x="322" 
d="M224 647v-96h-116v60c0 46 12 93 36 127h63c-16 -25 -27 -58 -27 -91h44z" />
    <glyph glyph-name="dieresis.cap" horiz-adv-x="322" 
d="M12 771v112h114v-112h-114zM196 771v112h114v-112h-114z" />
    <glyph glyph-name="dotaccent.cap" horiz-adv-x="322" 
d="M101 772v114h119v-114h-119z" />
    <glyph glyph-name="grave.cap" horiz-adv-x="322" 
d="M33 810l44 100l189 -95l-37 -83z" />
    <glyph glyph-name="hungarumlaut.cap" horiz-adv-x="322" 
d="M159 916l66 -83l-158 -108l-55 70zM363 916l66 -84l-159 -107l-55 70z" />
    <glyph glyph-name="macron.cap" horiz-adv-x="322" 
d="M307 773h-293v90h293v-90z" />
    <glyph glyph-name="ring.cap" horiz-adv-x="322" 
d="M106 844c0 -31 26 -56 56 -56c31 0 56 25 56 56s-25 56 -56 56c-30 0 -56 -25 -56 -56zM33 844c0 72 56 129 129 129c72 0 130 -57 130 -129s-58 -130 -130 -130c-73 0 -129 58 -129 130z" />
    <glyph glyph-name="tilde.cap" horiz-adv-x="322" 
d="M65 767h-79c3 82 39 138 107 138c28 0 49 -9 75 -28c27 -20 44 -27 59 -27s29 8 30 45h79c-4 -93 -43 -137 -110 -137c-30 0 -54 9 -79 28c-28 20 -40 27 -53 27c-16 0 -28 -15 -29 -46z" />
    <glyph glyph-name="dollar.oldstyle" horiz-adv-x="518" 
d="M208 627h106v-71c83 -16 133 -70 139 -145h-119c-2 41 -33 61 -76 61c-47 0 -68 -26 -68 -53c0 -35 17 -50 114 -82c112 -38 163 -92 163 -173c0 -78 -53 -142 -153 -160v-76h-106v75c-103 14 -154 73 -156 161h120c2 -47 30 -75 90 -75c45 0 77 22 77 67
c0 43 -32 63 -107 88c-113 38 -168 87 -168 167c0 79 58 131 144 146v70z" />
    <glyph glyph-name="zero.oldstyle" horiz-adv-x="634" 
d="M30 257c0 160 124 277 286 277c169 0 288 -121 288 -277c0 -155 -120 -280 -288 -280c-163 0 -286 121 -286 280zM171 255c0 -92 63 -158 146 -158c90 0 146 68 146 158c0 87 -53 158 -146 158c-91 0 -146 -67 -146 -158z" />
    <glyph glyph-name="one.oldstyle" horiz-adv-x="396" 
d="M151 0v390h-115v122h253v-512h-138z" />
    <glyph glyph-name="two.oldstyle" horiz-adv-x="572" 
d="M54 0v100l199 125c76 49 99 75 99 118c0 41 -26 70 -70 70c-48 0 -76 -29 -78 -76h-139c3 112 72 197 220 197c134 0 210 -81 210 -173c0 -77 -32 -130 -123 -188l-91 -57h243v-116h-470z" />
    <glyph glyph-name="three.oldstyle" horiz-adv-x="564" 
d="M200 337h-135c2 123 88 195 213 195c137 0 215 -76 215 -180c0 -70 -45 -121 -102 -139v-3c87 -25 133 -90 133 -183c0 -129 -107 -225 -247 -225c-149 0 -236 85 -243 215h134c4 -61 48 -101 107 -101c57 0 108 41 108 114c0 70 -48 116 -126 116h-40v109h43
c56 0 92 33 92 85c0 44 -28 78 -76 78s-74 -37 -76 -81z" />
    <glyph glyph-name="four.oldstyle" horiz-adv-x="608" 
d="M571 14h-92v-188h-133v188h-312v110l317 388h128v-382h92v-116zM289 276l-120 -146h177v154c0 40 1 52 2 78h-3c-12 -26 -37 -61 -56 -86z" />
    <glyph glyph-name="five.oldstyle" horiz-adv-x="540" 
d="M238 153c-60 0 -119 -11 -169 -25l38 383h363v-121h-241l-15 -128c11 3 37 6 59 6c155 0 245 -90 245 -226c0 -130 -100 -238 -241 -238c-151 0 -230 93 -237 219h135c3 -59 37 -105 100 -105c53 0 102 44 102 118c0 72 -53 117 -139 117z" />
    <glyph glyph-name="six.oldstyle" horiz-adv-x="597" 
d="M39 227c0 87 41 160 93 235l155 220h153l-150 -213c8 3 29 4 41 4c113 0 227 -94 227 -246c0 -137 -107 -249 -261 -249s-258 103 -258 249zM180 226c0 -76 53 -127 117 -127c68 0 120 51 120 127c0 73 -49 129 -120 129c-68 0 -117 -51 -117 -129z" />
    <glyph glyph-name="seven.oldstyle" horiz-adv-x="532" 
d="M483 512v-113l-265 -573h-152l274 564h-304v122h447z" />
    <glyph glyph-name="eight.oldstyle" horiz-adv-x="597" 
d="M78 521c0 108 87 183 220 183c134 0 221 -75 221 -183c0 -60 -36 -112 -83 -135v-2c70 -27 119 -98 119 -180c0 -138 -96 -227 -257 -227c-160 0 -256 89 -256 227c0 82 49 151 118 180v2c-46 23 -82 74 -82 135zM184 210c0 -80 59 -119 114 -119c59 0 114 40 114 119
c0 67 -48 116 -114 116c-67 0 -114 -52 -114 -116zM215 510c0 -49 34 -80 83 -80c51 0 84 34 84 81s-36 80 -84 80c-46 0 -83 -33 -83 -81z" />
    <glyph glyph-name="nine.oldstyle" horiz-adv-x="597" 
d="M558 285c0 -87 -43 -166 -107 -253l-148 -206h-153l157 217c-9 -3 -32 -4 -45 -4c-133 4 -223 107 -223 246c0 137 106 249 261 249c154 0 258 -103 258 -249zM417 286c0 76 -53 127 -118 127c-67 0 -119 -51 -119 -127c0 -74 49 -129 119 -129c68 0 118 51 118 129z" />
    <glyph glyph-name="cent.oldstyle" horiz-adv-x="535" 
d="M323 -72h-99v100c-104 20 -182 102 -182 229c0 110 66 203 182 224v86h99v-85c95 -17 153 -87 168 -170h-125c-12 44 -45 68 -92 68c-67 0 -102 -51 -102 -124c0 -70 33 -125 102 -125c49 0 84 26 94 75h125c-19 -86 -77 -158 -170 -177v-101z" />
    <glyph glyph-name="oneeighth" unicode="&#x215b;" horiz-adv-x="982" 
d="M158 250v346h-68v88h174v-434h-106zM664 682h97l-468 -682h-97zM723 317c0 -34 26 -56 56 -56c33 0 56 24 56 56c0 33 -25 54 -56 54c-32 0 -56 -21 -56 -54zM715 129c0 -39 26 -65 65 -65c38 0 65 25 65 65c0 39 -27 66 -65 66c-37 0 -65 -26 -65 -66zM943 122
c0 -70 -51 -136 -163 -136c-113 0 -165 61 -165 133c0 56 29 96 77 115v1c-41 17 -64 50 -64 91c0 68 54 121 152 121c95 0 149 -53 149 -114c0 -48 -26 -84 -65 -98v-1c53 -19 79 -59 79 -112z" />
    <glyph glyph-name="threeeighths" unicode="&#x215c;" horiz-adv-x="1006" 
d="M149 565h-102c2 79 58 132 153 132c99 0 152 -48 152 -114c0 -48 -32 -84 -73 -93v-3c55 -14 87 -55 87 -111c0 -73 -55 -140 -168 -140c-107 0 -159 55 -164 143h102c3 -40 24 -61 63 -61c36 0 60 26 60 66c0 31 -21 58 -71 58h-31v79h30c38 0 57 20 57 49
c0 23 -16 45 -47 45c-33 0 -47 -25 -48 -50zM688 682h97l-468 -682h-97zM747 317c0 -34 26 -56 56 -56c33 0 56 24 56 56c0 33 -25 54 -56 54c-32 0 -56 -21 -56 -54zM739 129c0 -39 26 -65 65 -65c38 0 65 25 65 65c0 39 -27 66 -65 66c-37 0 -65 -26 -65 -66zM967 122
c0 -70 -51 -136 -163 -136c-113 0 -165 61 -165 133c0 56 29 96 77 115v1c-41 17 -64 50 -64 91c0 68 54 121 152 121c95 0 149 -53 149 -114c0 -48 -26 -84 -65 -98v-1c53 -19 79 -59 79 -112z" />
    <glyph glyph-name="fiveeighths" unicode="&#x215d;" horiz-adv-x="1006" 
d="M180 595l-7 -60c5 1 20 2 28 2c98 0 157 -60 157 -148c0 -80 -59 -153 -160 -153c-106 0 -154 63 -158 133h106c2 -26 17 -43 50 -43c29 0 51 23 51 59c0 41 -24 65 -80 65c-32 0 -66 -2 -101 -9l24 243h234v-89h-144zM688 682h97l-468 -682h-97zM747 317
c0 -34 26 -56 56 -56c33 0 56 24 56 56c0 33 -25 54 -56 54c-32 0 -56 -21 -56 -54zM739 129c0 -39 26 -65 65 -65c38 0 65 25 65 65c0 39 -27 66 -65 66c-37 0 -65 -26 -65 -66zM967 122c0 -70 -51 -136 -163 -136c-113 0 -165 61 -165 133c0 56 29 96 77 115v1
c-41 17 -64 50 -64 91c0 68 54 121 152 121c95 0 149 -53 149 -114c0 -48 -26 -84 -65 -98v-1c53 -19 79 -59 79 -112z" />
    <glyph glyph-name="seveneighths" unicode="&#x215e;" horiz-adv-x="971" 
d="M354 684v-79l-163 -355h-117l169 345h-193v89h304zM647 682h97l-468 -682h-97zM712 317c0 -34 26 -56 56 -56c33 0 56 24 56 56c0 33 -25 54 -56 54c-32 0 -56 -21 -56 -54zM704 129c0 -39 26 -65 65 -65c38 0 65 25 65 65c0 39 -27 66 -65 66c-37 0 -65 -26 -65 -66z
M932 122c0 -70 -51 -136 -163 -136c-113 0 -165 61 -165 133c0 56 29 96 77 115v1c-41 17 -64 50 -64 91c0 68 54 121 152 121c95 0 149 -53 149 -114c0 -48 -26 -84 -65 -98v-1c53 -19 79 -59 79 -112z" />
    <glyph glyph-name="onethird" unicode="&#x2153;" horiz-adv-x="982" 
d="M158 250v346h-68v88h174v-434h-106zM664 682h97l-468 -682h-97zM725 315h-102c2 79 58 132 153 132c99 0 152 -48 152 -114c0 -48 -32 -84 -73 -93v-3c55 -14 87 -55 87 -111c0 -73 -55 -140 -168 -140c-107 0 -159 55 -164 143h102c3 -40 24 -61 63 -61
c36 0 60 26 60 66c0 31 -21 58 -71 58h-31v79h30c38 0 57 20 57 49c0 23 -16 45 -47 45c-33 0 -47 -25 -48 -50z" />
    <glyph glyph-name="twothirds" unicode="&#x2154;" horiz-adv-x="1018" 
d="M54 250v69l135 144c31 34 60 67 60 102c0 26 -19 45 -47 45c-35 0 -49 -24 -50 -58h-103c1 78 48 145 158 145c90 0 152 -56 152 -129c0 -55 -29 -93 -99 -166l-61 -63h166v-89h-311zM701 682h97l-468 -682h-97zM761 315h-102c2 79 58 132 153 132c99 0 152 -48 152 -114
c0 -48 -32 -84 -73 -93v-3c55 -14 87 -55 87 -111c0 -73 -55 -140 -168 -140c-107 0 -159 55 -164 143h102c3 -40 24 -61 63 -61c36 0 60 26 60 66c0 31 -21 58 -71 58h-31v79h30c38 0 57 20 57 49c0 23 -16 45 -47 45c-33 0 -47 -25 -48 -50z" />
    <glyph glyph-name="longs" unicode="&#x17f;" horiz-adv-x="276" 
d="M66 0v552c0 113 61 174 172 174c31 0 61 -5 83 -11v-111c-19 5 -36 8 -54 8c-48 0 -65 -26 -65 -69v-543h-136z" />
    <glyph glyph-name="underscoredbl" unicode="&#x2017;" horiz-adv-x="550" 
d="M0 -235v67h550v-67h-550zM0 -123v68h550v-68h-550z" />
    <glyph glyph-name="quotereversed" unicode="&#x201b;" horiz-adv-x="276" 
d="M214 720v-142h-61c4 -44 19 -91 41 -124h-75c-35 54 -57 117 -57 198v68h152z" />
    <glyph glyph-name="minute" unicode="&#x2032;" horiz-adv-x="242" 
d="M115 698l85 -28l-92 -253l-66 19z" />
    <glyph glyph-name="second" unicode="&#x2033;" horiz-adv-x="441" 
d="M115 698l85 -28l-92 -253l-66 19zM314 698l85 -28l-92 -253l-66 19z" />
    <glyph glyph-name="exclamdbl" unicode="&#x203c;" horiz-adv-x="552" 
d="M67 0v129h142v-129h-142zM64 682h148l-14 -471h-120zM343 0v129h142v-129h-142zM340 682h148l-14 -471h-120z" />
    <glyph glyph-name="franc" unicode="&#x20a3;" horiz-adv-x="573" 
d="M372 104h-127v-104h-137v104h-81v101h81v477h408v-124h-271v-147h261v-118h-261v-88h127v-101z" />
    <glyph glyph-name="lira" unicode="&#x20a4;" horiz-adv-x="573" 
d="M379 244h-109c1 -4 1 -9 1 -13c0 -42 -15 -72 -39 -93c22 0 50 -9 75 -17c29 -10 53 -20 75 -20c30 0 46 22 47 64h129c-3 -125 -63 -187 -166 -187c-41 0 -84 13 -129 28c-38 12 -74 24 -104 24c-39 0 -82 -15 -119 -37v118c71 18 101 70 101 113c0 7 -1 13 -1 20h-104
v81h86l-15 57h-71v82h53c-2 14 -3 30 -3 48c0 99 67 193 215 193c131 0 213 -78 218 -187h-136c-2 44 -36 72 -77 72c-56 0 -83 -38 -83 -92c0 -12 0 -24 1 -34h155v-82h-138l14 -57h124v-81z" />
    <glyph glyph-name="peseta" unicode="&#x20a7;" horiz-adv-x="1285" 
d="M68 0v682h204c140 0 250 -64 258 -203h61v153h135v-153h114v-114h-114v-186c0 -56 18 -71 61 -71c18 0 41 3 57 8v-110c-27 -8 -65 -13 -93 -13c-120 0 -160 68 -160 172v200h-81c-32 -78 -111 -124 -243 -124h-56v-241h-143zM1243 350h-120c-3 34 -25 54 -55 54
c-32 0 -49 -21 -49 -42c0 -27 15 -44 97 -72c100 -33 137 -84 137 -153c0 -88 -66 -154 -184 -154c-123 0 -180 64 -186 157h121c4 -38 24 -65 67 -65c35 0 55 23 55 51c0 33 -22 53 -94 77c-90 29 -137 74 -137 149c0 86 69 143 173 143c105 0 165 -61 175 -145zM386 461
c0 57 -32 106 -117 106h-58v-211h56c96 0 119 52 119 105z" />
    <glyph glyph-name="zero.fitted" horiz-adv-x="584" 
d="M36 344c0 263 138 360 262 360c114 0 250 -84 250 -356c0 -302 -157 -371 -255 -371c-116 0 -257 81 -257 367zM407 344c0 162 -46 239 -114 239c-59 0 -115 -64 -115 -236c0 -179 51 -249 117 -249c55 0 112 65 112 246z" />
    <glyph glyph-name="one.fitted" horiz-adv-x="419" 
d="M160 0v560h-104v122h241v-682h-137z" />
    <glyph glyph-name="two.fitted" horiz-adv-x="557" 
d="M64 0v104l204 229c50 56 97 115 97 172c0 45 -30 78 -80 78c-54 0 -85 -43 -85 -100h-140c2 122 73 221 228 221c138 0 220 -83 220 -193c0 -90 -49 -160 -149 -264l-118 -125h277v-122h-454z" />
    <glyph glyph-name="three.fitted" horiz-adv-x="569" 
d="M194 504h-135c3 114 83 200 221 200c140 0 220 -77 220 -180c0 -77 -56 -132 -111 -148v-3c81 -20 133 -84 133 -176c0 -114 -81 -218 -243 -218c-156 0 -234 87 -240 214h135c5 -60 42 -100 106 -100c62 0 102 45 102 111c0 62 -43 105 -125 105h-42v110h45
c62 0 99 36 99 92c0 39 -27 78 -82 78c-57 0 -81 -41 -83 -85z" />
    <glyph glyph-name="four.fitted" horiz-adv-x="584" 
d="M551 126h-87v-126h-134v126h-294v111l294 445h134v-440h87v-116zM277 419l-118 -177h171v183c0 40 0 55 1 83h-3c-12 -26 -29 -55 -51 -89z" />
    <glyph glyph-name="five.fitted" horiz-adv-x="560" 
d="M235 560l-13 -121c12 3 32 4 48 4c146 0 242 -87 242 -227c0 -122 -90 -238 -241 -238s-228 96 -235 204h144c6 -44 34 -80 93 -80c50 0 93 40 93 105c0 72 -46 116 -136 116c-48 0 -100 -7 -153 -18l35 377h353v-122h-230z" />
    <glyph glyph-name="six.fitted" horiz-adv-x="590" 
d="M35 227c0 87 41 160 93 235l155 220h154l-152 -213c9 3 27 4 39 4c130 0 230 -106 230 -246c0 -137 -106 -249 -261 -249c-154 0 -258 103 -258 249zM176 226c0 -76 53 -127 118 -127c67 0 119 51 119 127c0 73 -49 129 -119 129c-68 0 -118 -51 -118 -129z" />
    <glyph glyph-name="seven.fitted" horiz-adv-x="502" 
d="M474 682v-114l-258 -568h-153l268 560h-304v122h447z" />
    <glyph glyph-name="eight.fitted" horiz-adv-x="580" 
d="M201 502c0 -55 43 -93 88 -93c54 0 90 40 90 93c0 54 -38 89 -89 89c-48 0 -89 -35 -89 -89zM186 199c0 -61 43 -107 106 -107c61 0 105 40 105 107c0 65 -44 109 -104 109c-62 0 -107 -44 -107 -109zM536 192c0 -109 -79 -214 -245 -214c-165 0 -247 98 -247 208
c0 90 46 150 120 180v2c-65 28 -99 80 -99 146c0 103 84 190 226 190c139 0 224 -86 224 -182c0 -77 -41 -133 -100 -154v-2c81 -29 121 -91 121 -174z" />
    <glyph glyph-name="nine.fitted" horiz-adv-x="590" 
d="M554 455c0 -87 -41 -160 -93 -235l-155 -220h-153l150 213c-8 -3 -32 -4 -44 -4c-133 4 -224 107 -224 246c0 137 107 249 261 249s258 -103 258 -249zM413 456c0 76 -53 127 -118 127c-67 0 -119 -51 -119 -127c0 -74 49 -129 119 -129c69 0 118 51 118 129z" />
    <glyph glyph-name="percent.oldstyle" horiz-adv-x="868" 
d="M589 566h96l-407 -566h-96zM34 419c0 100 77 167 172 167c93 0 170 -67 170 -167c0 -101 -77 -168 -170 -168c-95 0 -172 67 -172 168zM133 420c0 -53 32 -83 72 -83s72 30 72 83c0 52 -32 82 -72 82s-72 -30 -72 -82zM492 148c0 100 77 167 171 167s171 -67 171 -167
c0 -101 -77 -168 -171 -168s-171 67 -171 168zM592 149c0 -54 31 -83 71 -83s72 29 72 83c0 52 -32 82 -72 82s-71 -30 -71 -82z" />
    <glyph glyph-name="perthousand.oldstyle" horiz-adv-x="1264" 
d="M589 566h96l-407 -566h-96zM34 419c0 100 77 167 172 167c93 0 170 -67 170 -167c0 -101 -77 -168 -170 -168c-95 0 -172 67 -172 168zM133 420c0 -53 32 -83 72 -83s72 30 72 83c0 52 -32 82 -72 82s-72 -30 -72 -82zM492 148c0 100 77 167 171 167s171 -67 171 -167
c0 -101 -77 -168 -171 -168s-171 67 -171 168zM592 149c0 -54 31 -83 71 -83s72 29 72 83c0 52 -32 82 -72 82s-71 -30 -71 -82zM887 148c0 100 77 167 172 167c94 0 171 -67 171 -167c0 -101 -77 -168 -171 -168c-95 0 -172 67 -172 168zM987 149c0 -54 32 -83 72 -83
s72 29 72 83c0 52 -32 82 -72 82s-72 -30 -72 -82z" />
    <glyph glyph-name="zero.taboldstyle" horiz-adv-x="573" 
d="M29 257c0 166 110 277 258 277c152 0 257 -113 257 -277c0 -161 -106 -280 -257 -280c-149 0 -258 115 -258 280zM170 255c0 -94 50 -158 117 -158c73 0 116 67 116 158c0 88 -41 158 -116 158c-74 0 -117 -66 -117 -158z" />
    <glyph glyph-name="one.taboldstyle" horiz-adv-x="573" 
d="M235 0v390h-116v122h253v-512h-137z" />
    <glyph glyph-name="two.taboldstyle" horiz-adv-x="573" 
d="M63 0v100l191 125c74 49 95 76 95 118c0 40 -23 70 -64 70c-44 0 -70 -28 -72 -73h-139c3 111 70 194 214 194c130 0 204 -77 204 -171c0 -80 -36 -134 -123 -190l-90 -57h242v-116h-458z" />
    <glyph glyph-name="three.taboldstyle" horiz-adv-x="573" 
d="M207 337h-135c2 123 87 195 213 195c136 0 214 -76 214 -180c0 -70 -45 -121 -101 -139v-3c87 -25 132 -90 132 -183c0 -129 -106 -225 -247 -225c-148 0 -235 85 -243 215h134c5 -61 48 -101 108 -101c57 0 107 41 107 114c0 70 -49 116 -126 116h-40v109h44
c56 0 91 33 91 85c0 44 -28 78 -76 78c-47 0 -74 -37 -75 -81z" />
    <glyph glyph-name="four.taboldstyle" horiz-adv-x="573" 
d="M552 14h-82v-188h-134v188h-304v110l313 388h125v-382h82v-116zM280 272l-115 -142h171v154c0 40 1 52 3 78h-3c-13 -26 -36 -65 -56 -90z" />
    <glyph glyph-name="five.taboldstyle" horiz-adv-x="573" 
d="M247 153c-61 0 -119 -11 -169 -25l38 383h363v-121h-241l-15 -128c11 3 37 6 59 6c155 0 244 -90 244 -226c0 -130 -99 -238 -241 -238c-150 0 -229 93 -236 219h134c4 -59 38 -105 101 -105c53 0 101 44 101 118c0 72 -52 117 -138 117z" />
    <glyph glyph-name="six.taboldstyle" horiz-adv-x="573" 
d="M27 227c0 87 42 160 94 235l154 220h153l-150 -213c8 3 25 4 38 4c129 0 230 -104 230 -246c0 -137 -106 -249 -261 -249c-154 0 -258 103 -258 249zM168 226c0 -76 53 -127 118 -127c67 0 119 51 119 127c0 73 -49 129 -119 129c-68 0 -118 -51 -118 -129z" />
    <glyph glyph-name="seven.taboldstyle" horiz-adv-x="573" 
d="M503 512v-113l-257 -572h-153l267 563h-300v122h443z" />
    <glyph glyph-name="eight.taboldstyle" horiz-adv-x="573" 
d="M66 521c0 108 87 183 220 183c134 0 221 -75 221 -183c0 -60 -35 -112 -83 -135v-2c71 -27 119 -98 119 -180c0 -138 -96 -227 -257 -227c-160 0 -256 89 -256 227c0 82 49 151 118 180v2c-46 23 -82 74 -82 135zM172 210c0 -80 59 -119 114 -119c59 0 115 40 115 119
c0 67 -49 116 -115 116c-67 0 -114 -52 -114 -116zM203 510c0 -49 34 -80 83 -80c51 0 84 34 84 81s-36 80 -84 80c-46 0 -83 -33 -83 -81z" />
    <glyph glyph-name="nine.taboldstyle" horiz-adv-x="573" 
d="M546 285c0 -87 -43 -166 -107 -253l-148 -206h-153l157 217c-9 -3 -32 -4 -45 -4c-133 4 -223 107 -223 246c0 137 106 249 261 249c154 0 258 -103 258 -249zM405 286c0 76 -53 127 -118 127c-67 0 -119 -51 -119 -127c0 -74 49 -129 119 -129c68 0 118 51 118 129z" />
    <glyph glyph-name="parenleft.cap" horiz-adv-x="361" 
d="M344 -161h-129c-104 136 -151 320 -151 478c0 161 47 342 151 480h129c-107 -138 -148 -319 -148 -480c0 -158 41 -342 148 -478z" />
    <glyph glyph-name="parenright.cap" horiz-adv-x="361" 
d="M146 -161h-129c106 136 147 319 147 478c0 161 -41 342 -147 480h129c103 -138 150 -319 150 -480c0 -159 -47 -342 -150 -478z" />
    <glyph glyph-name="bracketleft.cap" horiz-adv-x="373" 
d="M315 782v-108h-106v-713h106v-107h-228v928h228z" />
    <glyph glyph-name="bracketright.cap" horiz-adv-x="373" 
d="M58 674v108h228v-928h-228v107h106v713h-106z" />
    <glyph glyph-name="braceleft.cap" horiz-adv-x="383" 
d="M330 796v-103c-54 -1 -75 -28 -75 -77v-169c0 -59 -28 -109 -85 -129v-2c50 -15 85 -63 85 -133v-165c0 -49 21 -76 75 -76v-103c-119 0 -198 63 -198 164v179c0 45 -29 82 -83 85v100c54 2 83 40 83 84v180c0 95 53 164 198 165z" />
    <glyph glyph-name="braceright.cap" horiz-adv-x="383" 
d="M53 693v103c145 -1 198 -70 198 -165v-180c0 -44 29 -82 83 -84v-100c-54 -3 -83 -40 -83 -85v-179c0 -101 -79 -164 -198 -164v103c54 0 75 27 75 76v165c0 70 35 118 85 133v2c-57 20 -85 70 -85 129v169c0 49 -21 76 -75 77z" />
    <glyph glyph-name="exclamdown.cap" horiz-adv-x="276" 
d="M209 682v-129h-142v129h142zM212 0h-148l14 470h120z" />
    <glyph glyph-name="questiondown.cap" horiz-adv-x="467" 
d="M130 356c33 30 47 61 47 114h120c0 -73 -7 -115 -49 -161c-53 -58 -82 -83 -82 -137c0 -41 30 -73 73 -73s76 32 76 89h133c-3 -129 -83 -210 -213 -210s-210 81 -210 186c0 78 39 135 105 192zM308 682v-129h-141v129h141z" />
    <glyph glyph-name="guillemotleft.cap" horiz-adv-x="502" 
d="M248 328l130 210l82 -44l-86 -166l86 -166l-82 -45zM46 328l130 210l82 -44l-86 -166l86 -166l-82 -45z" />
    <glyph glyph-name="guillemotright.cap" horiz-adv-x="502" 
d="M255 328l-130 -211l-83 45l86 166l-86 165l83 45zM457 328l-130 -211l-83 45l86 166l-86 165l83 45z" />
    <glyph glyph-name="guilsinglleft.cap" horiz-adv-x="300" 
d="M46 328l130 210l82 -44l-86 -166l86 -166l-82 -45z" />
    <glyph glyph-name="guilsinglright.cap" horiz-adv-x="300" 
d="M255 328l-130 -211l-83 45l86 166l-86 165l83 45z" />
    <glyph glyph-name="hyphen.cap" horiz-adv-x="465" 
d="M397 311h-322v105h322v-105z" />
    <glyph glyph-name="endash.cap" horiz-adv-x="554" 
d="M479 311h-404v105h404v-105z" />
    <glyph glyph-name="emdash.cap" horiz-adv-x="1104" 
d="M1029 311h-954v105h954v-105z" />
    <glyph glyph-name="periodcentered.cap" horiz-adv-x="276" 
d="M59 275v152h162v-152h-162z" />
    <glyph glyph-name="at.cap" horiz-adv-x="935" 
d="M884 380c0 -156 -89 -266 -201 -266c-73 0 -122 32 -129 94h-4c-32 -65 -90 -94 -144 -94c-102 0 -153 81 -153 180c0 124 75 253 205 253c50 0 84 -28 104 -65h3l9 56h106l-36 -236c-3 -23 -6 -41 -6 -54c0 -26 13 -53 54 -53c58 0 97 75 97 180
c0 171 -100 272 -312 272c-213 0 -331 -159 -331 -335c0 -178 125 -298 325 -298c82 0 158 15 202 36l29 -67c-54 -32 -143 -50 -239 -50c-242 0 -412 148 -412 380s174 415 430 415c265 0 403 -155 403 -348zM547 372c0 53 -24 90 -71 90c-69 0 -112 -78 -112 -163
c0 -63 26 -100 67 -100c75 0 116 84 116 173z" />
    <glyph glyph-name="sterling.oldstyle" horiz-adv-x="588" 
d="M376 250h-111c2 -11 3 -22 3 -32c0 -38 -11 -68 -35 -89c26 0 48 -5 77 -15c35 -14 50 -19 72 -19c27 0 48 13 50 67h123c-4 -143 -66 -184 -166 -184c-39 0 -79 11 -123 27c-40 15 -77 26 -107 26c-40 0 -83 -16 -120 -41v117c73 20 105 60 105 107c0 12 -2 23 -4 36
h-91v92h69c-3 18 -6 37 -6 56c0 94 57 188 202 188c125 0 200 -73 207 -189h-127c-3 48 -29 74 -75 74c-53 0 -77 -31 -77 -83c0 -15 2 -30 5 -46h129v-92z" />
    <glyph glyph-name="uni203E" unicode="&#x203e;" horiz-adv-x="550" 
d="M0 749v96h550v-96h-550z" />
    <glyph glyph-name="Euro.oldstyle" horiz-adv-x="520" 
d="M392 171h-145c21 -52 63 -85 128 -85c33 0 88 11 113 23v-107c-33 -15 -64 -26 -126 -26c-134 0 -220 69 -254 195h-82l24 83h45c-1 11 -1 19 -1 27c0 12 1 24 2 37h-68l24 83h59c34 107 116 185 255 185c48 0 91 -8 125 -21l-25 -102c-21 9 -60 16 -94 16
c-61 0 -102 -29 -124 -78h201l-20 -83h-202c-1 -12 -1 -24 -1 -35s0 -20 1 -29h186z" />
    <glyph glyph-name="florin.oldstyle" horiz-adv-x="509" 
d="M59 -105c39 0 62 19 70 71l44 268h-73v114h89l10 67c18 117 72 171 177 171c30 0 60 -4 79 -8v-112c-17 4 -34 6 -50 6c-40 0 -63 -20 -71 -71l-9 -53h84v-114h-101l-44 -272c-18 -115 -69 -180 -176 -180c-34 0 -60 4 -80 8v112c14 -4 36 -7 51 -7z" />
    <glyph glyph-name="yen.oldstyle" horiz-adv-x="557" 
d="M60 246v82h110l-129 238h144l58 -114c15 -29 28 -58 37 -85h2c10 28 22 53 36 84l57 115h142l-131 -238h110v-82h-150v-62h150v-83h-150v-101h-136v101h-150v83h150v62h-150z" />
    <glyph glyph-name="numbersign.oldstyle" horiz-adv-x="604" 
d="M563 348h-100l-27 -128h102l-18 -84h-102l-29 -136h-93l29 136h-112l-29 -136h-93l29 136h-99l18 84h98l28 128h-101l19 84h101l28 134h93l-28 -134h112l28 134h93l-28 -134h101zM258 348l-28 -128h113l27 128h-112z" />
    <glyph glyph-name="nsuperior" unicode="&#x207f;" horiz-adv-x="448" 
d="M55 328v354h104v-44h3c24 39 62 56 102 56c78 0 133 -54 133 -163v-203h-105v191c0 51 -23 78 -59 78c-42 0 -72 -29 -72 -87v-182h-106z" />
    <glyph glyph-name="fi.alt01" horiz-adv-x="587" 
d="M324 365h-106v-365h-135v365h-68v114h68v19c0 137 88 227 227 227c131 0 204 -77 215 -172h-135c-5 24 -25 62 -82 62s-90 -37 -90 -110v-26h106v-114zM390 0v479h135v-479h-135z" />
    <glyph glyph-name="fl.alt01" horiz-adv-x="589" 
d="M325 365h-105v-365h-136v365h-69v114h69v40c0 140 84 206 226 206c69 0 157 -19 217 -36v-689h-135v599c-20 6 -52 12 -79 12c-65 0 -93 -34 -93 -104v-28h105v-114z" />
    <glyph glyph-name="f_f.alt01" horiz-adv-x="635" 
d="M220 365v-365h-136v365h-69v114h69v21c0 141 82 225 218 225c57 0 104 -15 139 -41c26 28 76 42 123 42c31 0 61 -5 82 -11v-111c-18 5 -36 8 -54 8c-47 0 -64 -26 -64 -69v-64h103v-114h-103v-365h-136v365h-172zM392 479v73c0 13 1 25 3 36c-24 18 -58 27 -84 27
c-64 0 -91 -38 -91 -108v-28h172z" />
    <glyph glyph-name="f_f_i.alt01" horiz-adv-x="897" 
d="M392 365h-172v-365h-136v365h-69v114h69v21c0 141 86 225 220 225c63 0 117 -21 157 -53c39 36 98 53 157 53c131 0 205 -77 216 -172h-135c-5 24 -25 62 -82 62s-90 -36 -90 -109v-27h105v-114h-105v-365h-135v365zM699 0v479h135v-479h-135zM392 479v20
c0 28 4 58 13 81c-25 21 -64 35 -93 35c-64 0 -92 -38 -92 -108v-28h172z" />
    <glyph glyph-name="f_f_l.alt01" horiz-adv-x="897" 
d="M392 365h-172v-365h-136v365h-69v114h69v40c0 140 87 206 219 206c55 0 106 -16 149 -48c42 34 96 48 161 48c70 0 156 -12 222 -32v-693h-135v601c-22 6 -54 10 -82 10c-65 0 -90 -34 -90 -104v-28h101v-114h-101v-365h-136v365zM392 479v41c0 23 2 47 7 65
c-22 18 -61 30 -86 30c-64 0 -93 -38 -93 -108v-28h172z" />
    <glyph glyph-name="afii10051" unicode="&#x402;" horiz-adv-x="686" 
d="M486 -22v247c0 74 -31 109 -91 109c-59 0 -96 -45 -96 -107l1 -227h-143v558h-149v124h442l-1 -124h-149v-174h3c27 47 80 72 138 72c123 0 188 -79 188 -221v-247c0 -148 -72 -209 -184 -209c-41 0 -70 6 -92 14v108c11 -4 36 -10 61 -10c52 0 72 34 72 87z" />
    <glyph glyph-name="afii10052" unicode="&#x403;" horiz-adv-x="494" 
d="M68 0v682h418v-124h-280v-558h-138zM363 910l45 -100l-196 -78l-37 83z" />
    <glyph glyph-name="afii10100" unicode="&#x453;" horiz-adv-x="429" 
d="M418 479v-115h-221v-364h-135v479h356zM145 627l159 137l66 -87l-170 -122z" />
    <glyph glyph-name="afii10058" unicode="&#x409;" horiz-adv-x="950" 
d="M450 558h-177l-30 -375c-11 -135 -57 -190 -172 -190c-25 0 -48 4 -63 9v119c7 -3 24 -6 39 -6c35 0 54 13 58 68l39 499h449v-268h88c149 0 239 -78 239 -205c0 -130 -100 -209 -241 -209h-229v558zM775 209c0 60 -42 97 -114 97h-68v-198h73c70 0 109 38 109 101z" />
    <glyph glyph-name="afii10059" unicode="&#x40a;" horiz-adv-x="946" 
d="M589 682v-268h88c149 0 239 -78 239 -205c0 -130 -100 -209 -241 -209h-229v290h-235v-290h-143v682h143v-268h235v268h143zM771 209c0 60 -42 97 -114 97h-68v-198h73c70 0 109 38 109 101z" />
    <glyph glyph-name="afii10061" unicode="&#x40c;" horiz-adv-x="651" 
d="M489 0l-278 314v-314h-143v682h143v-309l275 309h175l-309 -330l319 -352h-182zM421 910l45 -100l-196 -78l-37 83z" />
    <glyph glyph-name="afii10060" unicode="&#x40b;" horiz-adv-x="686" 
d="M300 558v-174h3c27 47 82 72 140 72c123 0 186 -79 186 -223v-233h-143v225c0 74 -28 109 -91 109c-59 0 -96 -45 -96 -107l1 -227h-143v558h-149v124h442l-1 -124h-149z" />
    <glyph glyph-name="afii10145" unicode="&#x40f;" horiz-adv-x="677" 
d="M68 0v682h139v-558h263v558h139v-682h-199v-175h-143v175h-199z" />
    <glyph glyph-name="afii10099" unicode="&#x452;" horiz-adv-x="579" 
d="M389 -42v309c0 71 -34 108 -90 108c-59 0 -102 -41 -102 -122v-253h-135v557h-62v90h62v73h135v-73h145v-90h-145v-138h4c33 53 87 75 141 75c107 0 182 -71 182 -219v-309c0 -149 -66 -217 -179 -217c-35 0 -63 5 -89 14v107c15 -5 39 -9 62 -9c51 0 71 31 71 97z" />
    <glyph glyph-name="afii10106" unicode="&#x459;" horiz-adv-x="775" 
d="M123 479h368v-172h71c115 0 183 -51 183 -153c0 -94 -66 -154 -177 -154h-213v364h-119l-21 -218c-10 -111 -52 -153 -150 -153c-15 0 -37 3 -52 7v110c7 -2 22 -4 32 -4c35 0 46 25 49 60zM545 209h-54v-111h54c46 0 65 26 65 56c0 35 -20 55 -65 55z" />
    <glyph glyph-name="afii10107" unicode="&#x45a;" horiz-adv-x="770" 
d="M486 307h72c115 0 183 -51 183 -153c0 -94 -66 -154 -178 -154h-212v194h-154v-194h-135v479h135v-172h154v172h135v-172zM540 209h-54v-111h54c47 0 65 26 65 56c0 35 -19 55 -65 55z" />
    <glyph glyph-name="afii10109" unicode="&#x45c;" horiz-adv-x="547" 
d="M62 0v479h135v-208l184 208h156l-205 -229l210 -250h-161l-184 225v-225h-135zM184 627l159 137l66 -87l-170 -122z" />
    <glyph glyph-name="afii10108" unicode="&#x45b;" horiz-adv-x="579" 
d="M342 557h-145v-138h4c33 53 87 75 141 75c107 0 182 -71 182 -219v-275h-135v267c0 71 -34 108 -90 108c-59 0 -102 -41 -102 -122v-253h-135v557h-62v90h62v73h135v-73h145v-90z" />
    <glyph glyph-name="afii10193" unicode="&#x45f;" horiz-adv-x="586" 
d="M524 0h-163v-155h-135v155h-164v479h135v-364h192v364h135v-479z" />
    <glyph glyph-name="afii10062" unicode="&#x40e;" horiz-adv-x="611" 
d="M613 682l-240 -536c-49 -107 -110 -153 -190 -153c-24 0 -51 5 -65 10v118c8 -3 34 -7 46 -7c35 0 56 10 81 60l18 40l-256 468h155l136 -262c12 -23 23 -47 31 -69h2c8 26 18 51 26 70l106 261h150zM399 891h90c-5 -90 -76 -144 -167 -144c-105 0 -163 59 -167 144h89
c3 -32 32 -53 78 -53c48 0 75 22 77 53z" />
    <glyph glyph-name="afii10110" unicode="&#x45e;" horiz-adv-x="467" 
d="M474 479l-262 -714h-128l88 239l-174 475h140l69 -208c11 -35 25 -79 32 -118h4c9 46 18 76 31 118l67 208h133zM317 726h90c-5 -99 -77 -159 -167 -159c-98 0 -162 60 -167 159h89c4 -39 32 -65 78 -65c45 0 75 27 77 65z" />
    <glyph glyph-name="afii10057" unicode="&#x408;" horiz-adv-x="386" 
d="M181 201v481h144v-474c0 -168 -71 -230 -210 -230c-36 0 -84 10 -107 20v120c20 -9 62 -18 87 -18c60 0 86 28 86 101z" />
    <glyph glyph-name="afii10050" unicode="&#x490;" horiz-adv-x="494" 
d="M347 682v158h139v-282h-280v-558h-138v682h279z" />
    <glyph glyph-name="afii10023" unicode="&#x401;" horiz-adv-x="544" 
d="M477 682v-124h-264v-147h255v-118h-255v-169h275v-124h-418v682h407zM123 771v112h114v-112h-114zM307 771v112h114v-112h-114z" />
    <glyph glyph-name="afii10053" unicode="&#x404;" horiz-adv-x="761" 
d="M387 704c183 0 290 -109 322 -217h-156c-24 56 -83 100 -167 100c-104 0 -180 -69 -200 -176h306v-118h-309c15 -111 92 -198 205 -198c92 0 147 50 172 112h160c-47 -131 -156 -229 -336 -229c-211 0 -351 157 -351 365s149 361 354 361z" />
    <glyph glyph-name="afii10056" unicode="&#x407;" horiz-adv-x="280" 
d="M70 0v682h143v-682h-143zM-8 771v112h114v-112h-114zM176 771v112h114v-112h-114z" />
    <glyph glyph-name="afii10055" unicode="&#x406;" horiz-adv-x="280" 
d="M68 0v682h143v-682h-143z" />
    <glyph glyph-name="afii10103" unicode="&#x456;" horiz-adv-x="259" 
d="M62 0v479h135v-479h-135zM59 579v129h142v-129h-142z" />
    <glyph glyph-name="afii10098" unicode="&#x491;" horiz-adv-x="434" 
d="M418 614v-250h-221v-364h-135v479h221v135h135z" />
    <glyph glyph-name="afii10071" unicode="&#x451;" horiz-adv-x="553" 
d="M278 495c158 0 244 -118 244 -252c0 -11 0 -23 -2 -36h-356c0 -66 56 -123 124 -123c44 0 75 19 96 50h131c-31 -81 -102 -151 -228 -151c-143 0 -255 104 -255 260c0 137 90 252 246 252zM277 401c-66 0 -107 -49 -112 -102h224c-6 56 -49 102 -112 102zM127 591v112
h114v-112h-114zM311 591v112h114v-112h-114z" />
    <glyph glyph-name="afii61352" unicode="&#x2116;" horiz-adv-x="1099" 
d="M191 468h-4c1 -32 4 -98 4 -129v-339h-123v682h123l190 -293c63 -96 87 -144 106 -180h3c-1 34 -3 93 -3 123v350h123v-682h-123l-174 267c-78 122 -102 166 -122 201zM674 336c0 117 88 191 196 191c114 0 195 -81 195 -191c0 -108 -82 -192 -195 -192
c-109 0 -196 75 -196 192zM777 335c0 -55 39 -96 93 -96s93 40 93 96c0 55 -39 97 -93 97c-52 0 -93 -32 -93 -97zM1046 0h-357v90h357v-90z" />
    <glyph glyph-name="afii10101" unicode="&#x454;" horiz-adv-x="550" 
d="M285 495c137 0 214 -79 230 -154h-135c-13 31 -42 53 -93 53c-59 0 -103 -35 -115 -102h176v-91h-178c9 -74 55 -117 118 -117c52 0 82 30 95 64h137c-27 -91 -100 -165 -234 -165c-142 0 -256 101 -256 258c0 140 97 254 255 254z" />
    <glyph glyph-name="afii10105" unicode="&#x458;" horiz-adv-x="259" 
d="M197 479v-513c0 -152 -71 -217 -184 -217c-40 0 -71 6 -94 14v114c12 -4 41 -10 67 -10c49 0 76 24 76 97v515h135zM59 579v129h142v-129h-142z" />
    <glyph glyph-name="afii10054" unicode="&#x405;" horiz-adv-x="562" 
d="M501 504h-135c-4 50 -35 84 -85 84c-45 0 -78 -29 -78 -73c0 -51 47 -75 118 -98c140 -46 193 -124 193 -227c0 -99 -72 -212 -232 -212c-136 0 -229 80 -240 221h141c7 -63 38 -105 101 -105c56 0 90 40 90 88c0 57 -37 88 -123 116c-136 45 -186 122 -186 215
c0 116 96 191 217 191c130 0 214 -80 219 -200z" />
    <glyph glyph-name="afii10102" unicode="&#x455;" horiz-adv-x="441" 
d="M395 350h-119c-3 34 -25 54 -55 54c-32 0 -49 -21 -49 -42c0 -27 15 -44 96 -72c101 -33 138 -84 138 -153c0 -88 -67 -154 -185 -154c-122 0 -180 64 -185 157h121c3 -38 23 -65 67 -65c34 0 55 23 55 51c0 33 -23 53 -95 77c-90 29 -137 74 -137 149
c0 86 70 143 173 143c106 0 165 -61 175 -145z" />
    <glyph glyph-name="afii10104" unicode="&#x457;" horiz-adv-x="259" 
d="M64 0v479h135v-479h-135zM-17 591v112h114v-112h-114zM167 591v112h114v-112h-114z" />
    <glyph glyph-name="afii10017" unicode="&#x410;" horiz-adv-x="664" 
d="M7 0l265 682h134l251 -682h-147l-53 155h-252l-54 -155h-144zM296 419l-57 -162h183l-56 163c-13 38 -23 70 -32 104h-5c-9 -35 -20 -70 -33 -105z" />
    <glyph glyph-name="afii10018" unicode="&#x411;" horiz-adv-x="571" 
d="M393 209c0 60 -41 97 -114 97h-68v-198h74c70 0 108 38 108 101zM68 682h402v-124h-259v-144h88c149 0 239 -78 239 -205c0 -130 -100 -209 -241 -209h-229v682z" />
    <glyph glyph-name="afii10019" unicode="&#x412;" horiz-adv-x="564" 
d="M68 0v682h189c141 0 236 -57 236 -172c0 -76 -55 -127 -122 -143v-2c104 -14 158 -88 158 -169c0 -126 -102 -196 -238 -196h-223zM385 208c0 57 -41 97 -114 97h-68v-197h74c70 0 108 37 108 100zM352 496c0 51 -38 79 -102 79h-47v-165h52c67 0 97 33 97 86z" />
    <glyph glyph-name="afii10020" unicode="&#x413;" horiz-adv-x="494" 
d="M68 0v682h418v-124h-280v-558h-138z" />
    <glyph glyph-name="afii10021" unicode="&#x414;" horiz-adv-x="792" 
d="M20 -175v299h26c49 0 97 35 106 168l29 390h485v-558h96v-299h-143v175h-456v-175h-143zM523 124v434h-212l-19 -266c-6 -78 -19 -131 -53 -168h284z" />
    <glyph glyph-name="afii10022" unicode="&#x415;" horiz-adv-x="544" 
d="M475 682v-124h-264v-147h255v-118h-255v-169h275v-124h-418v682h407z" />
    <glyph glyph-name="afii10024" unicode="&#x416;" horiz-adv-x="926" 
d="M392 319l-241 -319h-170l271 351l-259 331h169l230 -306v306h143v-306l229 306h169l-259 -331l271 -351h-170l-240 319v-319h-143v319z" />
    <glyph glyph-name="afii10025" unicode="&#x417;" horiz-adv-x="556" 
d="M27 193h145c5 -54 41 -96 101 -96c59 0 100 40 100 106c0 60 -40 106 -114 106h-57v112h56c58 0 93 36 93 88c0 41 -32 77 -80 77c-53 0 -75 -38 -78 -79h-145c9 123 101 197 223 197c142 0 223 -76 223 -185c0 -67 -45 -121 -103 -144v-3c77 -23 126 -89 126 -175
c0 -126 -97 -218 -245 -218c-153 0 -238 94 -245 214z" />
    <glyph glyph-name="afii10026" unicode="&#x418;" horiz-adv-x="689" 
d="M68 682h139v-350c0 -30 -1 -89 -3 -123h3c17 36 43 81 103 180l179 293h131v-682h-138v339c0 31 2 97 3 129h-3c-20 -39 -43 -76 -119 -201l-164 -267h-131v682z" />
    <glyph glyph-name="afii10027" unicode="&#x419;" horiz-adv-x="689" 
d="M68 682h139v-350c0 -30 -1 -89 -3 -123h3c17 36 43 81 103 180l179 293h131v-682h-138v339c0 31 2 97 3 129h-3c-20 -39 -43 -76 -119 -201l-164 -267h-131v682zM418 891h90c-5 -90 -76 -144 -167 -144c-105 0 -163 59 -167 144h89c3 -32 32 -53 78 -53c48 0 75 22 77 53
z" />
    <glyph glyph-name="afii10028" unicode="&#x41a;" horiz-adv-x="651" 
d="M489 0l-278 314v-314h-143v682h143v-309l275 309h175l-309 -330l319 -352h-182z" />
    <glyph glyph-name="afii10029" unicode="&#x41b;" horiz-adv-x="699" 
d="M273 558l-30 -375c-11 -135 -57 -190 -172 -190c-25 0 -48 4 -63 9v119c7 -3 24 -6 39 -6c35 0 54 13 58 68l39 499h486v-682h-138v558h-219z" />
    <glyph glyph-name="afii10030" unicode="&#x41c;" horiz-adv-x="822" 
d="M704 682l84 -682h-138l-33 335c-5 45 -11 110 -14 150h-6c-12 -44 -27 -104 -41 -151l-99 -334h-100l-101 339c-13 43 -29 95 -39 146h-8c-2 -45 -7 -100 -11 -144l-35 -341h-129l81 682h158l100 -322c12 -38 27 -88 36 -125h4c9 37 25 89 36 125l98 322h157z" />
    <glyph glyph-name="afii10031" unicode="&#x41d;" horiz-adv-x="696" 
d="M484 0v290h-273v-290h-143v682h143v-268h273v268h143v-682h-143z" />
    <glyph glyph-name="afii10032" unicode="&#x41e;" horiz-adv-x="789" 
d="M179 341c0 -134 93 -235 215 -235c123 0 216 101 216 235c0 131 -85 235 -215 235c-122 0 -216 -101 -216 -235zM33 341c0 194 152 363 363 363c225 0 360 -173 360 -363c0 -199 -154 -363 -361 -363c-250 0 -362 195 -362 363z" />
    <glyph glyph-name="afii10033" unicode="&#x41f;" horiz-adv-x="677" 
d="M470 0v558h-263v-558h-139v682h541v-682h-139z" />
    <glyph glyph-name="afii10034" unicode="&#x420;" horiz-adv-x="564" 
d="M400 461c0 57 -33 106 -117 106h-72v-211h69c96 0 120 52 120 105zM68 0v682h218c146 0 258 -69 258 -219c0 -137 -84 -222 -263 -222h-70v-241h-143z" />
    <glyph glyph-name="afii10035" unicode="&#x421;" horiz-adv-x="765" 
d="M387 704c190 0 301 -126 325 -240h-154c-18 62 -80 118 -172 118c-121 0 -207 -98 -207 -240c0 -131 84 -242 209 -242c100 0 156 63 177 129h159c-43 -138 -153 -251 -340 -251c-211 0 -351 157 -351 365s149 361 354 361z" />
    <glyph glyph-name="afii10036" unicode="&#x422;" horiz-adv-x="485" 
d="M170 0v558h-162v124h469v-124h-163v-558h-144z" />
    <glyph glyph-name="afii10037" unicode="&#x423;" horiz-adv-x="611" 
d="M613 682l-240 -536c-49 -107 -110 -153 -190 -153c-24 0 -51 5 -65 10v118c8 -3 34 -7 46 -7c35 0 56 10 81 60l18 40l-256 468h155l136 -262c12 -23 23 -47 31 -69h2c8 26 18 51 26 70l106 261h150z" />
    <glyph glyph-name="afii10038" unicode="&#x424;" horiz-adv-x="815" 
d="M336 177v334c-96 0 -162 -66 -162 -167c0 -103 76 -167 162 -167zM479 511v-334c86 0 161 64 161 167c0 101 -66 167 -161 167zM479 -10h-143v74c-187 6 -307 119 -307 281c0 164 124 273 307 278v68h143v-68c185 -7 307 -113 307 -278c0 -162 -121 -275 -307 -281v-74z
" />
    <glyph glyph-name="afii10039" unicode="&#x425;" horiz-adv-x="615" 
d="M167 682l95 -148c19 -29 33 -54 48 -80h3c16 29 30 54 48 82l92 146h152l-222 -325l232 -357h-158l-97 157c-19 30 -37 63 -55 93h-2c-19 -31 -37 -64 -56 -95l-95 -155h-152l232 351l-224 331h159z" />
    <glyph glyph-name="afii10040" unicode="&#x426;" horiz-adv-x="736" 
d="M563 0h-495v682h143v-558h255v558h143v-558h97v-299h-143v175z" />
    <glyph glyph-name="afii10041" unicode="&#x427;" horiz-adv-x="641" 
d="M573 0h-143v312h-4c-34 -46 -102 -72 -159 -72c-129 0 -211 74 -211 224v218h143v-197c0 -85 42 -123 113 -123c69 0 118 46 118 125v195h143v-682z" />
    <glyph glyph-name="afii10042" unicode="&#x428;" horiz-adv-x="937" 
d="M68 0v682h139v-558h192v558h139v-558h192v558h139v-682h-801z" />
    <glyph glyph-name="afii10043" unicode="&#x429;" horiz-adv-x="995" 
d="M822 0h-754v682h139v-558h192v558h139v-558h192v558h139v-558h96v-299h-143v175z" />
    <glyph glyph-name="afii10044" unicode="&#x42a;" horiz-adv-x="671" 
d="M496 209c0 60 -42 97 -114 97h-69v-198h74c70 0 109 38 109 101zM170 558h-162v124h305v-268h88c150 0 239 -78 239 -205c0 -130 -99 -209 -240 -209h-230v558z" />
    <glyph glyph-name="afii10045" unicode="&#x42b;" horiz-adv-x="830" 
d="M392 209c0 60 -41 97 -114 97h-68v-198h74c70 0 108 38 108 101zM67 0v682h143v-268h88c149 0 239 -78 239 -205c0 -130 -100 -209 -241 -209h-229zM619 0v682h143v-682h-143z" />
    <glyph glyph-name="afii10046" unicode="&#x42c;" horiz-adv-x="569" 
d="M393 209c0 60 -41 97 -114 97h-68v-198h74c70 0 108 38 108 101zM68 0v682h143v-268h88c149 0 239 -78 239 -205c0 -130 -100 -209 -241 -209h-229z" />
    <glyph glyph-name="afii10047" unicode="&#x42d;" horiz-adv-x="761" 
d="M374 704c205 0 354 -153 354 -361s-140 -365 -352 -365c-179 0 -288 98 -335 229h160c24 -62 80 -112 171 -112c114 0 190 87 205 198h-313v118h310c-20 107 -99 176 -199 176c-85 0 -143 -44 -168 -100h-155c32 108 139 217 322 217z" />
    <glyph glyph-name="afii10048" unicode="&#x42e;" horiz-adv-x="1045" 
d="M651 -22c-226 0 -337 158 -357 312h-83v-290h-143v682h143v-268h87c32 162 170 290 354 290c225 0 360 -173 360 -363c0 -199 -154 -363 -361 -363zM435 341c0 -134 93 -235 215 -235c123 0 216 101 216 235c0 131 -85 235 -215 235c-121 0 -216 -101 -216 -235z" />
    <glyph glyph-name="afii10049" unicode="&#x42f;" horiz-adv-x="606" 
d="M-5 0l211 288c-77 22 -139 88 -139 186c0 112 68 208 259 208h212v-682h-143v268h-45l-185 -268h-170zM214 468c0 -57 39 -95 104 -95h77v194h-76c-68 0 -105 -37 -105 -99z" />
    <glyph glyph-name="afii10065" unicode="&#x430;" horiz-adv-x="602" 
d="M538 479v-479h-130v60h-4c-31 -41 -78 -76 -156 -76c-93 0 -218 75 -218 256c0 154 106 252 228 252c75 0 120 -37 146 -75h4v62h130zM167 239c0 -70 39 -138 123 -138c64 0 120 56 120 137c0 84 -52 139 -119 139c-84 0 -124 -69 -124 -138z" />
    <glyph glyph-name="afii10066" unicode="&#x431;" horiz-adv-x="575" 
d="M170 239c0 -79 52 -136 119 -136c74 0 120 59 120 136c0 74 -42 136 -119 136c-74 0 -120 -58 -120 -136zM357 569c-122 -15 -169 -64 -179 -124h3c30 28 77 46 126 46c142 0 238 -106 238 -251c0 -141 -106 -257 -256 -257c-151 0 -255 107 -255 293
c0 270 116 374 293 405c33 6 97 24 135 46l53 -110c-54 -29 -104 -42 -158 -48z" />
    <glyph glyph-name="afii10067" unicode="&#x432;" horiz-adv-x="510" 
d="M62 0v479h215c107 0 163 -42 163 -115c0 -45 -23 -87 -83 -103c84 -16 115 -66 115 -118c0 -85 -62 -143 -177 -143h-233zM265 208h-75v-121h83c52 0 70 27 70 61c0 33 -23 60 -78 60zM249 392h-59v-100h52c48 0 70 21 70 52s-23 48 -63 48z" />
    <glyph glyph-name="afii10068" unicode="&#x433;" horiz-adv-x="429" 
d="M418 479v-115h-221v-364h-135v479h356z" />
    <glyph glyph-name="afii10069" unicode="&#x434;" horiz-adv-x="636" 
d="M15 -155v270h10c56 0 102 43 118 198l16 166h391v-364h71v-270h-132v155h-342v-155h-132zM415 115v249h-145l-7 -72c-11 -108 -27 -145 -56 -177h208z" />
    <glyph glyph-name="afii10070" unicode="&#x435;" horiz-adv-x="553" 
d="M276 495c158 0 244 -118 244 -252c0 -11 0 -23 -2 -36h-356c0 -66 56 -123 124 -123c44 0 75 19 96 50h131c-31 -81 -102 -151 -228 -151c-143 0 -255 104 -255 260c0 137 90 252 246 252zM275 401c-66 0 -107 -49 -112 -102h224c-6 56 -49 102 -112 102z" />
    <glyph glyph-name="afii10072" unicode="&#x436;" horiz-adv-x="764" 
d="M318 0v231l-162 -231h-156l186 250l-180 229h151l161 -214v214h129v-214l161 214h150l-180 -229l186 -250h-156l-161 231v-231h-129z" />
    <glyph glyph-name="afii10073" unicode="&#x437;" horiz-adv-x="459" 
d="M20 136h123c4 -32 31 -56 78 -56c50 0 78 25 78 59c0 40 -33 62 -76 62h-44v90h50c38 0 62 20 62 55c0 29 -25 52 -67 52c-36 0 -65 -17 -71 -48h-120c10 88 82 145 195 145c120 0 187 -57 187 -133c0 -61 -33 -100 -90 -114c59 -12 101 -53 101 -112
c0 -84 -60 -153 -210 -153c-110 0 -183 55 -196 153z" />
    <glyph glyph-name="afii10074" unicode="&#x438;" horiz-adv-x="586" 
d="M62 0v479h129v-160c0 -36 -1 -109 -3 -148h2c13 24 37 60 65 100l150 208h119v-479h-129v159c0 36 1 110 3 149h-2c-13 -24 -40 -66 -65 -100l-149 -208h-120z" />
    <glyph glyph-name="afii10075" unicode="&#x439;" horiz-adv-x="586" 
d="M62 0v479h129v-160c0 -36 -1 -109 -3 -148h2c13 24 37 60 65 100l150 208h119v-479h-129v159c0 36 1 110 3 149h-2c-13 -24 -40 -66 -65 -100l-149 -208h-120zM374 726h90c-5 -99 -77 -159 -167 -159c-98 0 -162 60 -167 159h89c4 -39 32 -65 78 -65c45 0 75 27 77 65z
" />
    <glyph glyph-name="afii10076" unicode="&#x43a;" horiz-adv-x="547" 
d="M62 0v479h135v-208l184 208h156l-205 -229l210 -250h-161l-184 225v-225h-135z" />
    <glyph glyph-name="afii10077" unicode="&#x43b;" horiz-adv-x="582" 
d="M94 166l29 313h397v-479h-135v364h-149l-21 -219c-10 -110 -52 -152 -150 -152c-15 0 -37 3 -52 7v110c9 -2 21 -4 32 -4c35 0 46 25 49 60z" />
    <glyph glyph-name="afii10078" unicode="&#x43c;" horiz-adv-x="696" 
d="M586 479l86 -479h-125l-34 206c-5 30 -12 72 -14 105h-3c-7 -35 -15 -68 -27 -105l-69 -206h-103l-70 209c-12 35 -22 67 -29 102h-3c-3 -32 -8 -64 -14 -101l-34 -210h-124l89 479h136l76 -225c8 -24 18 -63 24 -90h3c6 28 17 69 25 93l74 222h136z" />
    <glyph glyph-name="afii10079" unicode="&#x43d;" horiz-adv-x="586" 
d="M524 479v-479h-135v194h-192v-194h-135v479h135v-172h192v172h135z" />
    <glyph glyph-name="afii10080" unicode="&#x43e;" horiz-adv-x="571" 
d="M30 240c0 148 110 255 256 255c151 0 256 -110 256 -255c0 -141 -106 -257 -256 -257c-147 0 -256 112 -256 257zM166 239c0 -79 52 -136 120 -136c73 0 119 59 119 136c0 74 -43 136 -119 136c-75 0 -120 -58 -120 -136z" />
    <glyph glyph-name="afii10081" unicode="&#x43f;" horiz-adv-x="586" 
d="M524 479v-479h-135v364h-192v-364h-135v479h462z" />
    <glyph glyph-name="afii10082" unicode="&#x440;" horiz-adv-x="602" 
d="M63 -235v714h130v-57h4c30 36 74 70 154 70c101 0 220 -84 220 -255c0 -153 -106 -253 -228 -253c-68 0 -115 31 -144 69h-4v-288h-132zM434 237c0 72 -40 138 -124 138c-65 0 -119 -55 -119 -138c0 -82 54 -138 120 -138c82 0 123 70 123 138z" />
    <glyph glyph-name="afii10083" unicode="&#x441;" horiz-adv-x="549" 
d="M285 495c137 0 211 -95 226 -175h-134c-12 37 -45 61 -93 61c-73 0 -117 -57 -117 -141c0 -79 44 -142 121 -142c52 0 82 31 95 66h137c-27 -98 -100 -181 -234 -181c-142 0 -256 101 -256 258c0 140 97 254 255 254z" />
    <glyph glyph-name="afii10084" unicode="&#x442;" horiz-adv-x="410" 
d="M398 479v-115h-125v-364h-135v364h-127v115h387z" />
    <glyph glyph-name="afii10085" unicode="&#x443;" horiz-adv-x="467" 
d="M474 479l-262 -714h-128l88 239l-174 475h140l69 -208c11 -35 25 -79 32 -118h4c9 46 18 76 31 118l67 208h133z" />
    <glyph glyph-name="afii10086" unicode="&#x444;" horiz-adv-x="844" 
d="M353 429h4v291h132v-290h3c25 33 65 62 127 62c90 0 193 -75 193 -255c0 -154 -85 -253 -197 -253c-56 0 -98 26 -123 63h-3v-282h-132v281h-4c-27 -32 -70 -62 -126 -62c-115 0 -195 100 -195 256c0 153 86 252 203 252c54 0 97 -31 118 -63zM165 239
c0 -83 36 -144 100 -144c51 0 95 53 95 143c0 91 -40 143 -96 143c-63 0 -99 -64 -99 -142zM679 237c0 74 -29 144 -98 144c-54 0 -96 -51 -96 -144c0 -84 39 -142 97 -142c62 0 97 64 97 142z" />
    <glyph glyph-name="afii10087" unicode="&#x445;" horiz-adv-x="505" 
d="M5 0l174 242l-164 237h151l61 -98c10 -15 19 -37 26 -51h3c7 15 15 32 24 48l58 101h150l-164 -235l171 -244h-156l-63 103c-12 21 -20 39 -25 52h-4c-8 -18 -17 -35 -27 -53l-63 -102h-152z" />
    <glyph glyph-name="afii10088" unicode="&#x446;" horiz-adv-x="610" 
d="M524 115h71v-270h-135v155h-398v479h135v-364h192v364h135v-364z" />
    <glyph glyph-name="afii10089" unicode="&#x447;" horiz-adv-x="567" 
d="M505 479v-479h-136v221h-3c-31 -52 -83 -75 -136 -75c-104 0 -175 71 -175 217v116h135v-107c0 -70 33 -106 85 -106c54 0 94 40 94 118v95h136z" />
    <glyph glyph-name="afii10090" unicode="&#x448;" horiz-adv-x="862" 
d="M800 0h-738v479h135v-364h167v364h135v-364h166v364h135v-479z" />
    <glyph glyph-name="afii10091" unicode="&#x449;" horiz-adv-x="886" 
d="M736 0h-674v479h135v-364h167v364h135v-364h166v364h135v-364h71v-270h-135v155z" />
    <glyph glyph-name="afii10092" unicode="&#x44a;" horiz-adv-x="561" 
d="M331 209h-54v-111h54c46 0 65 26 65 56c0 35 -20 55 -65 55zM277 479v-172h71c115 0 183 -51 183 -153c0 -94 -66 -154 -177 -154h-213v364h-130v115h266z" />
    <glyph glyph-name="afii10093" unicode="&#x44b;" horiz-adv-x="728" 
d="M252 209h-55v-111h55c46 0 65 26 65 56c0 35 -20 55 -65 55zM197 307h72c115 0 183 -51 183 -153c0 -94 -66 -154 -178 -154h-212v479h135v-172zM531 0v479h135v-479h-135z" />
    <glyph glyph-name="afii10094" unicode="&#x44c;" horiz-adv-x="482" 
d="M252 209h-55v-111h55c46 0 65 26 65 56c0 35 -20 55 -65 55zM197 307h72c115 0 183 -51 183 -153c0 -94 -66 -154 -178 -154h-212v479h135v-172z" />
    <glyph glyph-name="afii10095" unicode="&#x44d;" horiz-adv-x="543" 
d="M262 495c151 0 251 -110 251 -257c0 -144 -101 -255 -257 -255c-134 0 -211 79 -231 165h135c13 -37 40 -64 94 -64c66 0 111 46 119 117h-182v91h180c-13 68 -59 102 -114 102c-50 0 -82 -24 -94 -53h-137c23 80 96 154 236 154z" />
    <glyph glyph-name="afii10096" unicode="&#x44e;" horiz-adv-x="801" 
d="M197 479v-175h71c26 113 123 191 248 191c151 0 256 -110 256 -255c0 -141 -106 -257 -256 -257c-132 0 -233 91 -252 215h-67v-198h-135v479h135zM396 239c0 -79 52 -136 120 -136c73 0 119 59 119 136c0 74 -43 136 -119 136c-75 0 -120 -58 -120 -136z" />
    <glyph glyph-name="afii10097" unicode="&#x44f;" horiz-adv-x="498" 
d="M300 176h-28l-107 -176h-150l131 192c-54 16 -96 62 -96 133c0 93 65 154 185 154h201v-479h-136v176zM252 265h48v118h-49c-46 0 -66 -26 -66 -59c0 -37 22 -59 67 -59z" />
    <glyph glyph-name="uni0400" unicode="&#x400;" horiz-adv-x="544" 
d="M477 682v-124h-264v-147h255v-118h-255v-169h275v-124h-418v682h407zM141 810l44 100l189 -95l-37 -83z" />
    <glyph glyph-name="uni0450" unicode="&#x450;" horiz-adv-x="553" 
d="M278 495c158 0 244 -118 244 -252c0 -11 0 -23 -2 -36h-356c0 -66 56 -123 124 -123c44 0 75 19 96 50h131c-31 -81 -102 -151 -228 -151c-143 0 -255 104 -255 260c0 137 90 252 246 252zM277 401c-66 0 -107 -49 -112 -102h224c-6 56 -49 102 -112 102zM142 677l66 87
l159 -137l-54 -72z" />
    <glyph glyph-name="uni040D" unicode="&#x40d;" horiz-adv-x="689" 
d="M68 682h139v-350c0 -30 -1 -89 -3 -123h3c17 36 43 81 103 180l179 293h131v-682h-138v339c0 31 2 97 3 129h-3c-20 -39 -43 -76 -119 -201l-164 -267h-131v682zM220 810l44 100l189 -95l-37 -83z" />
    <glyph glyph-name="uni045D" unicode="&#x45d;" horiz-adv-x="586" 
d="M62 0v479h129v-160c0 -36 -1 -109 -3 -148h2c13 24 37 60 65 100l150 208h119v-479h-129v159c0 36 1 110 3 149h-2c-13 -24 -40 -66 -65 -100l-149 -208h-120zM175 677l66 87l159 -137l-54 -72z" />
    <glyph glyph-name="Delta" unicode="&#x2206;" horiz-adv-x="664" 
d="M7 0l265 682h134l251 -682h-650zM296 419l-108 -305h285l-107 306c-13 38 -23 70 -32 104h-5c-9 -35 -20 -70 -33 -105z" />
    <glyph glyph-name="Omega" unicode="&#x2126;" horiz-adv-x="761" 
d="M722 388c0 -112 -60 -211 -162 -252v-13h164v-123h-296v180c89 24 148 98 148 199c0 118 -76 202 -196 202c-114 0 -197 -81 -197 -202c0 -101 59 -175 148 -199v-180h-294v123h162v13c-95 38 -161 130 -161 252c0 170 134 316 343 316c216 0 341 -142 341 -316z" />
    <glyph glyph-name="mu" unicode="&#xb5;" horiz-adv-x="584" 
d="M57 -213v692h135v-267c0 -69 28 -108 82 -108c60 0 98 40 98 128v247h136v-315c0 -40 10 -51 34 -51c6 0 15 1 22 3v-119c-17 -5 -42 -9 -63 -9c-72 0 -106 26 -118 75h-3c-27 -53 -71 -79 -121 -79c-24 0 -57 9 -75 23l-3 -2c9 -36 11 -81 11 -122v-96h-135z" />
    <glyph glyph-name="pi" unicode="&#x3c0;" horiz-adv-x="654" 
d="M605 115v-109c-19 -8 -57 -13 -82 -13c-98 0 -137 55 -137 159v213h-125v-230c0 -58 -7 -101 -17 -135h-136c12 38 18 91 18 141v224c-38 0 -82 -10 -110 -25v112c28 15 89 27 141 27h472v-114h-108v-194c0 -47 13 -62 44 -62c11 0 30 3 40 6z" />
    <glyph glyph-name="uni0394" unicode="&#x394;" horiz-adv-x="664" 
d="M7 0l265 682h134l251 -682h-650zM296 419l-108 -305h285l-107 306c-13 38 -23 70 -32 104h-5c-9 -35 -20 -70 -33 -105z" />
    <glyph glyph-name="uni03A9" unicode="&#x3a9;" horiz-adv-x="761" 
d="M722 388c0 -112 -60 -211 -162 -252v-13h164v-123h-296v180c89 24 148 98 148 199c0 118 -76 202 -196 202c-114 0 -197 -81 -197 -202c0 -101 59 -175 148 -199v-180h-294v123h162v13c-95 38 -161 130 -161 252c0 170 134 316 343 316c216 0 341 -142 341 -316z" />
    <glyph glyph-name="uni03BC" unicode="&#x3bc;" horiz-adv-x="584" 
d="M57 -213v692h135v-267c0 -69 28 -108 82 -108c60 0 98 40 98 128v247h136v-315c0 -40 10 -51 34 -51c6 0 15 1 22 3v-119c-17 -5 -42 -9 -63 -9c-72 0 -106 26 -118 75h-3c-27 -53 -71 -79 -121 -79c-24 0 -57 9 -75 23l-3 -2c9 -36 11 -81 11 -122v-96h-135z" />
    <glyph glyph-name="uni2010" unicode="&#x2010;" horiz-adv-x="465" 
d="M397 211h-322v105h322v-105z" />
    <glyph glyph-name="f_i" unicode="&#xf001;" horiz-adv-x="596" 
d="M15 365v114h68v73c0 113 60 174 172 174c31 0 61 -5 83 -11v-111c-19 5 -36 8 -54 8c-48 0 -65 -26 -65 -69v-64h104v-114h-104v-365h-136v365h-68zM398 0v479h135v-479h-135zM395 579v129h142v-129h-142z" />
    <glyph glyph-name="f_l" unicode="&#xf002;" horiz-adv-x="598" 
d="M15 365v114h68v73c0 113 60 174 172 174c31 0 61 -5 83 -11v-111c-19 5 -36 8 -54 8c-48 0 -65 -26 -65 -69v-64h104v-114h-104v-365h-136v365h-68zM400 0v720h135v-720h-135z" />
    </font>
</defs>
</svg>
